<?xml version="1.0" encoding="iso-8859-1"?>
<!-- Generator: Adobe Illustrator 25.0.1, SVG Export Plug-In . SVG Version: 6.00 Build 0)  -->
<svg version="1.1" xmlns="http://www.w3.org/2000/svg" xmlns:xlink="http://www.w3.org/1999/xlink" x="0px" y="0px"
	 viewBox="0 0 2250 2436" style="enable-background:new 0 0 2250 2436;" xml:space="preserve">
<g id="&#xB808;&#xC774;&#xC5B4;_1">
</g>
<g id="&#xB808;&#xC774;&#xC5B4;_2">
	<rect x="-0.58" y="0" style="fill:#27304D;" width="2250.58" height="1225.627"/>
	<polygon style="fill:#FFFFFF;" points="606.491,859.142 681.586,832.013 716.654,845.167 716.654,874.763 625.4,879.695 	"/>
	<path style="fill:none;stroke:#FFFFFF;stroke-width:15;stroke-miterlimit:10;" d="M693.224,864.075c0,0,50.149-23.019,46.86,20.553
		c-3.288,43.572-42.75,60.014-42.75,60.014l-4.111,240.879"/>
	<path style="fill:#FFFFFF;stroke:#27304D;stroke-width:5;stroke-miterlimit:10;" d="M433.445,675.352L433.445,675.352
		l-9.464-43.113c0,0-6.356-18.691-22.808-36.555c-15.298-22.589-41.166-37.435-70.502-37.435c-21.154,0-40.503,7.723-55.388,20.499
		l-0.105,0.054c0,0-0.02,0.031-0.049,0.076c-9.464,8.162-17.109,18.375-22.25,29.946c-12.336,15.078-28.839,33.01-47.043,46.776
		c-4.432,2-8.499,4.31-12.09,6.901c-10.969,7.913-17.631,18.334-17.631,29.753c0,24.745,31.286,44.805,69.88,44.805
		c20.776,0,39.423-5.819,52.223-15.047c10.002,4.131,20.961,6.415,32.455,6.415c22.913,0,43.708-9.059,59.006-23.788
		c4.313,9.326,12.17,15.567,21.15,15.567c13.621,0,24.663-14.355,24.663-32.062C435.491,683.595,434.758,679.271,433.445,675.352z"
		/>
	<path style="fill:#27304D;stroke:#FFFFFF;stroke-width:5;stroke-miterlimit:10;" d="M340.951,578.391
		c-35.747,0-65.632,26.113-73.041,61.021c-2.87-0.745-5.97-1.153-9.205-1.153c-14.739,0-26.686,8.445-26.686,18.862
		c0,10.417,11.948,18.862,26.686,18.862c3.366,0,6.584-0.445,9.549-1.249c7.952,34.13,37.48,59.476,72.697,59.476
		c41.316,0,74.809-34.882,74.809-77.91C415.761,613.273,382.267,578.391,340.951,578.391z"/>
	<ellipse style="fill:#FFFFFF;" cx="355.414" cy="647.294" rx="5.855" ry="10.808"/>
	<ellipse style="fill:#FFFFFF;" cx="393.694" cy="648.645" rx="5.404" ry="12.159"/>
	<polyline style="fill:#FFFFFF;" points="376.13,654.049 379.733,679.269 368.924,683.772 	"/>
	<g>
		<path style="fill:#FFFFFF;" d="M249.955,658.351c1.845-1.26,3.925-2.131,6.064-2.778c2.143-0.653,4.381-1.002,6.638-1.108
			c2.259-0.09,4.544,0.193,6.724,0.801c2.192,0.586,4.221,1.704,5.948,3.086c-2.14-0.655-4.166-1.288-6.282-1.561
			c-0.516-0.112-1.055-0.11-1.576-0.184c-0.526-0.054-1.047-0.127-1.578-0.117l-1.582-0.067l-1.586,0.041
			c-2.116,0.062-4.233,0.305-6.358,0.626C254.244,657.432,252.122,657.855,249.955,658.351z"/>
	</g>
	<path style="fill:#FFFFFF;" d="M259.97,638.738c0,0,79.861,12.06,119.617-50.981l-10.26-16.355h-66.971L259.97,638.738z"/>
	<path style="fill:#27304D;stroke:#FFFFFF;stroke-width:6;stroke-miterlimit:10;" d="M665.272,799.539
		c0,0,6.577-17.264-9.865-14.798l-34.529,12.332c0,0,2.466-16.442-9.865-12.332l-25.486,44.394l0.984,1.265
		c-8.649,5.704-100.692,63.592-170.75-8.139l-40.695,42.225c0,0,6.577,60.836,105.23,57.548
		c89.233-2.974,127.346-47.647,133.811-56.152l0.193,0.248l62.481-8.221C676.782,857.909,693.224,811.049,665.272,799.539z"/>
	<path style="fill:#27304D;stroke:#FFFFFF;stroke-width:6;stroke-miterlimit:10;" d="M504.138,1028.513
		c-27.623-20.832-59.451-21.874-71.079-21.457l-92.932-17.197l-164.423,21.972c0,0-16.442,52.895,12.332,54.523l134.311,4.405
		l-1.129,4.559l-37.818,148.095l150.858,1.221h80.567C514.825,1224.633,538.667,1054.553,504.138,1028.513z"/>
	<path style="fill:#FFFFFF;stroke:#EC5528;stroke-width:5;stroke-miterlimit:10;" d="M301.898,1040.418"/>
	<circle style="fill:#EC5528;" cx="251.749" cy="885.039" r="10.276"/>
	<circle style="fill:#EC5528;" cx="251.749" cy="954.096" r="10.276"/>
	<g>
		<path style="fill:#FFFFFF;" d="M355.335,680.333c-2.629,0.638-4.951,1.733-7.14,2.998c-2.186,1.276-4.182,2.819-6.08,4.486
			c-1.931,1.638-3.636,3.547-5.408,5.435c-0.845,0.979-1.697,1.97-2.581,2.954c-0.836,1.019-1.668,2.052-2.631,3.036
			c0.377-1.303,0.883-2.556,1.387-3.823c0.619-1.197,1.223-2.424,1.94-3.583c0.38-0.565,0.766-1.128,1.164-1.685l0.598-0.835
			l0.666-0.785l1.368-1.546c0.493-0.483,1.009-0.945,1.514-1.416c2.077-1.823,4.446-3.373,7.059-4.362
			C349.787,680.26,352.647,679.711,355.335,680.333z"/>
	</g>
	<path style="fill:#FFFFFF;" d="M423.16,821.517l-48.505-66.783l-38.929-4.984l0,0l-51.055-12.28
		c0,0-117.188-23.841-117.188,200.596v78.101l201.418,5.755L362.305,880.4l8.239-5.637L423.16,821.517z"/>
	<path style="fill:#EC5528;" d="M215.987,1123.863"/>
	<g>
		<path style="fill:#FFFFFF;" d="M349.581,707.463c2.693-3.506,6.204-6.315,10.143-8.479c3.946-2.115,8.517-3.568,13.365-3.348
			c2.404,0.12,4.852,0.674,7.048,1.762c2.199,1.074,4.127,2.59,5.703,4.333c3.068,3.579,4.833,7.845,5.458,12.196
			c-2.55-3.583-5.146-6.899-8.182-9.362c-3.072-2.402-6.526-3.807-10.28-3.937c-3.741-0.182-7.666,0.655-11.542,1.945
			C357.402,703.874,353.547,705.587,349.581,707.463z"/>
	</g>
	<path style="fill:#27304D;stroke:#FFFFFF;stroke-width:5;stroke-miterlimit:10;" d="M269.822,916.751H-0.579v-84.739h270.401
		c23.391,0,42.353,18.962,42.353,42.353v0.033C312.175,897.789,293.213,916.751,269.822,916.751z"/>
	<rect x="235.718" y="993.969" style="fill:#FFFFFF;" width="23.841" height="67.413"/>
	<path style="fill:#FFFFFF;" d="M452.345,1100.844H-0.58l0-45.216h452.925c12.486,0,22.608,10.122,22.608,22.608l0,0
		C474.953,1090.722,464.831,1100.844,452.345,1100.844z"/>
	<rect x="247.228" y="1087.69" style="fill:#FFFFFF;" width="30.418" height="138.937"/>
	<rect x="415.761" y="1087.69" style="fill:#FFFFFF;" width="30.418" height="138.937"/>
	<circle style="fill:#FFFFFF;" cx="252.007" cy="874.001" r="10.276"/>
	<circle style="fill:#FFFFFF;" cx="251.749" cy="954.096" r="10.276"/>
	<path style="fill:none;stroke:#FFFFFF;stroke-width:15;stroke-miterlimit:10;" d="M589.073,1225.044c0,0-8.221-38.228,30.418-39.05
		c38.639-0.822,149.625,0,149.625,0s29.596-8.221,27.13,40.284"/>
	
		<line style="fill:none;stroke:#FFFFFF;stroke-width:15;stroke-miterlimit:10;" x1="726.366" y1="1190.104" x2="726.366" y2="1226.277"/>
	<path style="fill:none;stroke:#FFFFFF;stroke-width:5;stroke-miterlimit:10;" d="M428.761,572.286c0,0,27.13,0,41.928-21.375"/>
	<path style="fill:#FFFFFF;" d="M464.806,557.805c0,0-25.768,9.138-44.677-7.305C420.129,550.5,444.536,530.581,464.806,557.805z"/>
	<path style="fill:#FFFFFF;" d="M464.779,560.013c0,0-28.181-13.808-29.867-42.52C434.912,517.493,470.846,521.53,464.779,560.013z"
		/>
	<path style="fill:#FFFFFF;" d="M491.751,510.68c0,0-2.497,33.959-30.721,47.277C461.031,557.957,450.553,520.146,491.751,510.68z"
		/>
	<path style="fill:#FFFFFF;" d="M459.737,552.709c0,0,10.777,23.264,34.199,25.153C493.936,577.862,491.278,548.439,459.737,552.709
		z"/>
	<path style="fill:#FFFFFF;" d="M463.519,559.473c0,0,35.418,1.766,52.795-25.699C516.315,533.774,478.576,518.104,463.519,559.473z
		"/>
	<path style="fill:none;stroke:#FFFFFF;stroke-width:5;stroke-miterlimit:10;" d="M582.972,696.791c0,0,5.168,15.409,20.127,19.742"
		/>
	<path style="fill:#FFFFFF;" d="M598.062,714.504c0,0-10.098-12.895-4.362-26.766C593.701,687.738,609.663,697.806,598.062,714.504z
		"/>
	<path style="fill:#FFFFFF;" d="M596.803,714.91c0,0,2.474-18.635,18.46-25.063C615.264,689.847,619.816,711.025,596.803,714.91z"/>
	<path style="fill:#FFFFFF;" d="M629.96,720.831c0,0-19.763,5.05-32.703-8.443C597.257,712.389,616.736,699.236,629.96,720.831z"/>
	<path style="fill:#FFFFFF;" d="M599.991,710.655c0,0-11.16,10.552-7.772,24.215C592.22,734.869,608.424,727.755,599.991,710.655z"
		/>
	<path style="fill:#FFFFFF;" d="M596.87,714.091c0,0,5.743,20.452,24.653,25.09C621.522,739.181,623.233,714.763,596.87,714.091z"/>
	<path style="fill:none;stroke:#FFFFFF;stroke-width:5;stroke-miterlimit:10;" d="M860.009,652.343c0,0,18.424,15.37,32.475,10.03"
		/>
	<path style="fill:#FFFFFF;" d="M877.419,663.204c0,0-3.299,15.235,12.279,26.793l7.062,5.706l18.424-19.585l-6.915-7.159
		l12.389-0.513l-6.231-25.596C914.427,642.849,888.403,638.756,877.419,663.204z"/>
	<path style="fill:none;stroke:#FFFFFF;stroke-width:5;stroke-miterlimit:10;" d="M512.312,944.011c0,0,5.168,15.409,20.127,19.742"
		/>
	<path style="fill:#FFFFFF;" d="M527.403,961.724c0,0-10.098-12.895-4.362-26.766C523.041,934.958,539.004,945.026,527.403,961.724z
		"/>
	<path style="fill:#FFFFFF;" d="M526.144,962.13c0,0,2.474-18.636,18.46-25.063C544.604,937.067,549.156,958.245,526.144,962.13z"/>
	<path style="fill:#FFFFFF;" d="M559.3,968.052c0,0-19.763,5.05-32.703-8.443C526.597,959.609,546.076,946.456,559.3,968.052z"/>
	<path style="fill:#FFFFFF;" d="M530.772,960.513c0,0-15.079,2.917-19.55,16.265C511.222,976.779,528.714,979.469,530.772,960.513z"
		/>
	<path style="fill:#FFFFFF;" d="M527.172,959.263c0,0-0.874,21.226,15.669,31.492C542.841,990.755,552.031,968.067,527.172,959.263z
		"/>
	<path style="fill:none;stroke:#FFFFFF;stroke-width:5;stroke-miterlimit:10;" d="M794.916,865.104c0,0,21.39,0.595,33.526-15.934"
		/>
	<path style="fill:#FFFFFF;" d="M823.652,854.477c0,0-20.517,6.64-35.065-6.739C788.587,847.738,808.267,832.568,823.652,854.477z"
		/>
	<path style="fill:#FFFFFF;" d="M823.583,856.217c0,0-21.916-11.504-22.616-34.179C800.966,822.038,829.209,826.009,823.583,856.217
		z"/>
	<path style="fill:#FFFFFF;" d="M845.929,817.913c0,0-2.713,26.72-25.257,36.601C820.672,854.514,813.24,824.473,845.929,817.913z"
		/>
	<path style="fill:#FFFFFF;" d="M823.682,849.763c0,0-3.227,19.963,11.247,31.539C834.929,881.302,846.183,860.898,823.682,849.763z
		"/>
	<path style="fill:#FFFFFF;" d="M820.504,853.647c0,0,25.843,10.7,46.032-5.098C866.536,848.549,842.654,826.906,820.504,853.647z"
		/>
	<g>
		<path style="fill:#FFFFFF;" d="M379.023,530.769c-14.551-1.53-29.054-3.493-43.526-5.651c-14.464-2.214-28.888-4.697-43.265-7.429
			c-28.75-5.472-57.323-11.951-85.504-19.899c-28.124-8.088-55.922-17.575-82.516-29.868c-13.279-6.158-26.241-13.063-38.462-21.143
			c-12.166-8.113-23.674-17.421-33.107-28.638c9.557,11.11,21.147,20.269,33.376,28.229c12.232,8.004,25.189,14.855,38.471,20.948
			c26.595,12.172,54.392,21.534,82.51,29.512c28.116,8.046,56.643,14.63,85.356,20.208c14.358,2.789,28.767,5.313,43.214,7.599
			C350.013,526.956,364.491,529.078,379.023,530.769z"/>
	</g>
	<g>
		<path style="fill:#FFFFFF;" d="M175.915,718.507c-2.944,1.211-6.141,1.723-9.308,1.94l-2.386,0.166
			c-0.796,0.027-1.593-0.018-2.389-0.023c-1.592-0.051-3.195,0.01-4.775-0.216l-4.757-0.519c-1.572-0.26-3.132-0.592-4.699-0.885
			c-3.158-0.5-6.201-1.466-9.283-2.286l-2.307-0.633c-0.768-0.216-1.507-0.516-2.262-0.771l-4.503-1.61l-2.251-0.807
			c-0.754-0.259-1.501-0.537-2.224-0.873l-4.382-1.908c-5.92-2.386-11.493-5.493-17.19-8.344c-2.795-1.524-5.5-3.21-8.255-4.807
			l-4.114-2.427l-2.054-1.218l-1.991-1.317l-7.964-5.269l-3.98-2.636c-1.327-0.879-2.572-1.873-3.863-2.804l-7.676-5.673
			c-2.547-1.905-5.156-3.729-7.591-5.78l-14.774-12.073l15.073,11.685c2.466,2.006,5.095,3.795,7.667,5.66l7.745,5.553
			c1.301,0.91,2.558,1.884,3.894,2.742l3.986,2.607l7.969,5.218l1.992,1.304l2.053,1.205l4.112,2.399
			c2.752,1.579,5.458,3.244,8.247,4.753c11.174,6.002,22.738,11.348,34.859,15.087c3.049,0.858,6.066,1.864,9.192,2.404
			c1.553,0.313,3.1,0.666,4.658,0.947l4.716,0.589c1.568,0.266,3.156,0.244,4.738,0.336c0.792,0.026,1.584,0.091,2.376,0.084
			l2.375-0.105C169.748,720.068,172.942,719.641,175.915,718.507z"/>
	</g>
	<g>
		<path style="fill:#FFFFFF;" d="M680.327,818.098c3.501,1.566,6.995,3.142,10.512,4.667c3.505,1.551,7.018,3.083,10.546,4.579
			c7.05,3.004,14.114,5.974,21.26,8.732c7.121,2.821,14.318,5.444,21.61,7.77c3.644,1.166,7.326,2.216,11.052,3.075
			c3.72,0.87,7.503,1.556,11.342,1.596c-3.84,0.188-7.676-0.405-11.445-1.117c-3.767-0.766-7.489-1.738-11.174-2.819
			c-7.368-2.182-14.585-4.822-21.749-7.575c-7.13-2.841-14.211-5.802-21.204-8.961C694.086,824.886,687.147,821.61,680.327,818.098z
			"/>
	</g>
	<path style="fill:#27304D;stroke:#FFFFFF;stroke-width:5;stroke-miterlimit:10;" d="M269.821,1012.833H-0.58v-84.739h270.401
		c23.391,0,42.353,18.962,42.353,42.353v0.033C312.174,993.871,293.212,1012.833,269.821,1012.833z"/>
	<circle style="fill:#FFFFFF;" cx="252.007" cy="970.189" r="10.276"/>
	<rect x="-0.58" y="1220.639" style="fill:#FF6200;" width="2250.58" height="1215.278"/>
	<path style="fill:#FFFFFF;stroke:#FFFFFF;stroke-width:5;stroke-miterlimit:10;" d="M504.765,2201.306
		c0,0,10.747-42.162,19.014-47.122l85.977-2.48c0,0,33.895,11.574,37.202,24.801l14.881,36.375L504.765,2201.306z"/>
	<polygon style="fill:#FF6200;stroke:#FFFFFF;stroke-width:5;stroke-miterlimit:10;" points="479.551,2202.41 479.551,2433.14 
		623.398,2433.14 623.398,2197.586 	"/>
	<polygon style="fill:#FF6200;stroke:#FFFFFF;stroke-width:5;stroke-miterlimit:10;" points="623.398,2197.586 719.296,2233.763 
		730.869,2433.14 623.398,2433.14 	"/>
	<path style="fill:#FFFFFF;" d="M454.938,1842.921l-8.257,8.905l-2.482,7.407l14.655,12.464l4.74,1.589
		c0,0,3.597,49.954-20.874,71.277l-5.418-1.816l-22.065,2.904l-4.871,10.04l6.021,15.75l24.36-0.762
		c0,0,52.799-40.666,36.146-110.101l-15.238-17.466L454.938,1842.921z"/>
	<path style="fill:none;stroke:#FFFFFF;stroke-width:3;stroke-miterlimit:10;" d="M427.055,1969.002c0,0-4.134,23.974,12.401,20.668
		c16.534-3.307,21.494,7.44,9.921,14.054c-11.574,6.614-6.614,17.361,6.614,15.707c13.227-1.653,23.148,5.787,9.92,14.054
		c-13.227,8.267-10.747,15.707,1.653,14.881c12.401-0.827,21.494,4.96,10.747,13.227s-18.188,27.281,0,26.455
		s30.588,11.574,15.707,18.188c-14.881,6.614-18.188,26.455,0,24.801c18.188-1.653,25.628-1.653,21.494,9.92
		c-4.134,11.574,5.787,19.841,5.787,19.841"/>
	<polygon style="fill:#FFFFFF;" points="535.767,2153.838 542.794,2135.17 555.194,2135.17 555.194,2154.61 	"/>
	<polygon style="fill:#FFFFFF;" points="578.342,2135.17 578.342,2152.61 595.403,2152.61 586.609,2135.17 	"/>
	<polygon style="fill:#FFFFFF;" points="608.103,2067.38 683.618,2040.098 718.882,2053.326 718.882,2083.087 627.118,2088.047 	"/>
	<path style="fill:none;stroke:#FFFFFF;stroke-width:15;stroke-miterlimit:10;" d="M695.321,2072.34
		c0,0,50.429-23.148,47.122,20.668s-42.989,60.35-42.989,60.35l-4.133,242.225"/>
	<path style="fill:none;stroke:#FFFFFF;stroke-width:15;stroke-miterlimit:10;" d="M597.77,2435.678c0,0-9.094-39.682,29.761-40.509
		s150.461,0,150.461,0s29.761-8.267,27.281,40.509"/>
	
		<line style="fill:none;stroke:#FFFFFF;stroke-width:15;stroke-miterlimit:10;" x1="735.003" y1="2399.302" x2="735.003" y2="2435.678"/>
	<path style="fill:#FFFFFF;stroke:#FF6200;stroke-width:5;stroke-miterlimit:10;" d="M434.091,1882.563L434.091,1882.563
		l-9.516-43.354c0,0-6.391-18.795-22.935-36.759c-15.384-22.715-41.396-37.644-70.896-37.644c-21.272,0-40.729,7.766-55.697,20.613
		l-0.105,0.055c0,0-0.02,0.031-0.05,0.077c-9.517,8.208-17.205,18.477-22.375,30.113c-12.405,15.162-29,33.195-47.306,47.037
		c-4.456,2.011-8.546,4.334-12.158,6.939c-11.03,7.957-17.73,18.437-17.73,29.92c0,24.883,31.461,45.056,70.27,45.056
		c20.892,0,39.644-5.852,52.515-15.131c10.058,4.154,21.078,6.451,32.636,6.451c23.041,0,43.952-9.11,59.336-23.921
		c4.337,9.378,12.238,15.654,21.268,15.654c13.697,0,24.801-14.435,24.801-32.242
		C436.148,1890.851,435.411,1886.504,434.091,1882.563z"/>
	<path style="fill:#FF6200;stroke:#FFFFFF;stroke-width:5;stroke-miterlimit:10;" d="M341.08,1785.059
		c-35.946,0-65.999,26.259-73.449,61.362c-2.886-0.75-6.003-1.159-9.257-1.159c-14.821,0-26.836,8.492-26.836,18.968
		s12.015,18.968,26.836,18.968c3.385,0,6.62-0.447,9.603-1.256c7.996,34.321,37.689,59.809,73.103,59.809
		c41.547,0,75.227-35.077,75.227-78.346C416.307,1820.136,382.627,1785.059,341.08,1785.059z"/>
	<ellipse style="fill:#FFFFFF;" cx="355.624" cy="1854.348" rx="5.887" ry="10.869"/>
	<ellipse style="fill:#FFFFFF;" cx="394.117" cy="1855.706" rx="5.434" ry="12.227"/>
	<polyline style="fill:#FFFFFF;" points="376.455,1861.141 380.078,1886.501 369.209,1891.03 	"/>
	<path style="fill:none;stroke:#FFFFFF;stroke-width:5;stroke-linecap:round;stroke-miterlimit:10;" d="M249.575,1865.467
		c0,0,14.078-6.598,25.516,0"/>
	<path style="fill:#FFFFFF;" d="M259.646,1845.744c0,0,80.308,12.127,120.286-51.266l-10.317-16.446H302.27L259.646,1845.744z"/>
	<path style="fill:#FF6200;stroke:#FFFFFF;stroke-width:6;stroke-miterlimit:10;" d="M667.213,2007.443
		c0,0,6.614-17.361-9.921-14.881l-34.722,12.401c0,0,2.48-16.534-9.92-12.401l-25.628,44.642l0.989,1.272
		c-8.697,5.736-101.255,63.948-171.704-8.185l-40.922,42.462c0,0,6.614,61.176,105.818,57.869
		c89.732-2.991,128.057-47.913,134.559-56.466l0.194,0.25l62.83-8.267C678.787,2066.14,695.321,2019.017,667.213,2007.443z"/>
	<path style="fill:#FF6200;stroke:#FFFFFF;stroke-width:6;stroke-miterlimit:10;" d="M505.178,2237.405
		c-27.777-20.792-59.783-21.831-71.476-21.415l-93.452-17.163l-165.341,21.929c0,0-16.534,52.792,12.401,54.416l135.062,4.396
		l-1.135,4.55l-38.029,147.804l151.701,1.218h81.017C515.926,2433.14,539.9,2263.394,505.178,2237.405z"/>
	<path style="fill:#FFFFFF;stroke:#FF6200;stroke-width:5;stroke-miterlimit:10;" d="M301.809,2249.668"/>
	<circle style="fill:#FF6200;" cx="251.379" cy="2093.421" r="10.334"/>
	<circle style="fill:#FF6200;" cx="251.379" cy="2162.864" r="10.334"/>
	<g>
		<path style="fill:#FFFFFF;" d="M355.544,1887.571c-2.644,0.638-4.98,1.737-7.183,3.009c-2.199,1.282-4.207,2.834-6.117,4.511
			c-1.942,1.648-3.657,3.568-5.438,5.467c-0.85,0.985-1.706,1.982-2.594,2.972c-0.839,1.026-1.676,2.065-2.642,3.055
			c0.38-1.309,0.89-2.569,1.398-3.843c0.623-1.203,1.231-2.436,1.952-3.601c0.382-0.568,0.771-1.134,1.171-1.694l0.602-0.839
			l0.67-0.789l1.375-1.554c0.495-0.485,1.014-0.95,1.523-1.424c2.088-1.832,4.47-3.391,7.095-4.386
			C349.967,1887.503,352.841,1886.949,355.544,1887.571z"/>
	</g>
	<path style="fill:#FFFFFF;" d="M423.748,2029.544l-48.776-67.156l-39.147-5.012l0,0l-51.34-12.349
		c0,0-117.843-23.974-117.843,201.717v78.537l202.543,5.787l-6.632-142.312l8.285-5.669L423.748,2029.544z"/>
	<path style="fill:#FF6200;" d="M215.418,2333.579"/>
	<g>
		<path style="fill:#FFFFFF;" d="M36.436,1708.176c10.356-5.731,20.703-11.479,31.101-17.131l31.156-17.026l15.579-8.511
			l15.614-8.444l31.236-16.875l6.797-3.672l-4.047,6.627l-20.805,34.066l-20.876,34.023l-20.914,33.999l-21.016,33.936l-3.845-4.145
			l32.421-17l32.467-16.912l32.476-16.894l32.514-16.821l11-5.69l-7.543,9.789l-34.565,44.86l-34.705,44.754l-2.403-2.886
			l34.507-16.968l34.582-16.821l1.698-0.826l-0.442,1.807l-5.745,23.476l-5.861,23.45l4.886-23.672l5.003-23.646l1.256,0.981
			l-34.035,17.901l-34.109,17.754l-7.466,3.886l5.063-6.772l33.912-45.357l34.052-45.251l3.457,4.099l-32.382,17.074l-32.42,17.001
			l-32.43,16.983l-32.476,16.895l-9.531,4.958l5.686-9.103l21.146-33.854l21.248-33.791l21.286-33.767l21.357-33.724l2.749,2.955
			l-31.594,16.193l-15.801,8.09l-15.836,8.023l-31.674,16.043C57.619,1697.61,47.023,1702.883,36.436,1708.176z"/>
	</g>
	<path style="fill:#FF6200;stroke:#FFFFFF;stroke-width:5;stroke-miterlimit:10;" d="M269.79,2203.786H105.656
		c-23.391,0-42.353-18.962-42.353-42.353v-78.982c0-23.391,18.962-42.353,42.353-42.353H269.79
		c23.391,0,42.353,18.962,42.353,42.353v78.982C312.142,2184.824,293.18,2203.786,269.79,2203.786z"/>
	<rect x="109.599" y="2203.786" style="fill:#FFFFFF;" width="23.974" height="67.79"/>
	<rect x="235.259" y="2202.96" style="fill:#FFFFFF;" width="23.974" height="67.79"/>
	<path style="fill:#FFFFFF;" d="M453.096,2310.432H95.132c-12.556,0-22.734-10.179-22.734-22.735l0,0
		c0-12.556,10.179-22.734,22.734-22.734h357.964c12.556,0,22.734,10.178,22.734,22.734l0,0
		C475.83,2300.253,465.652,2310.432,453.096,2310.432z"/>
	<rect x="99.679" y="2297.204" style="fill:#FFFFFF;" width="30.588" height="139.713"/>
	<rect x="246.833" y="2297.204" style="fill:#FFFFFF;" width="30.588" height="139.713"/>
	<rect x="416.307" y="2297.204" style="fill:#FFFFFF;" width="30.588" height="139.713"/>
	<rect x="341.904" y="2297.204" style="fill:#FFFFFF;" width="30.588" height="139.713"/>
	<circle style="fill:#FFFFFF;" cx="119.933" cy="2088.461" r="10.334"/>
	<circle style="fill:#FFFFFF;" cx="121.586" cy="2157.904" r="10.334"/>
	<circle style="fill:#FFFFFF;" cx="251.379" cy="2093.421" r="10.334"/>
	<circle style="fill:#FFFFFF;" cx="251.379" cy="2162.864" r="10.334"/>
	<g>
		<path style="fill:#FFFFFF;" d="M354.482,1908.501c1.168-0.489,2.35-0.912,3.531-1.338c1.187-0.397,2.37-0.812,3.563-1.178
			c2.385-0.739,4.775-1.45,7.183-2.075l1.036-0.269l0.718,1.034c2.399,3.453,4.669,6.985,6.848,10.572l-2.432-0.815
			c4.487-1.741,9.022-3.357,13.643-4.759l1.395-0.423l0.427,1.17c0.323,0.884,0.601,1.788,0.904,2.681
			c0.299,0.895,0.597,1.79,0.862,2.699c0.556,1.808,1.074,3.633,1.503,5.497c-1.095-1.569-2.1-3.178-3.067-4.803
			c-0.497-0.807-0.96-1.629-1.422-2.451c-0.459-0.824-0.942-1.637-1.381-2.469l1.822,0.747c-4.335,2.125-8.755,4.036-13.224,5.822
			l-1.549,0.619l-0.883-1.434c-2.201-3.574-4.312-7.203-6.293-10.911l1.754,0.765c-2.461,0.361-4.94,0.635-7.425,0.88
			c-1.242,0.126-2.493,0.204-3.741,0.299C357.002,1908.428,355.749,1908.498,354.482,1908.501z"/>
	</g>
</g>
<g id="&#xB808;&#xC774;&#xC5B4;_3">
</g>
</svg>
