<?xml version="1.0" encoding="iso-8859-1"?>
<!-- Generator: Adobe Illustrator 25.0.1, SVG Export Plug-In . SVG Version: 6.00 Build 0)  -->
<svg version="1.1" xmlns="http://www.w3.org/2000/svg" xmlns:xlink="http://www.w3.org/1999/xlink" x="0px" y="0px"
	 viewBox="0 0 2250 2436" style="enable-background:new 0 0 2250 2436;" xml:space="preserve">
<g id="&#xB808;&#xC774;&#xC5B4;_2">
	<rect x="0" y="0" style="fill:#FFFFFF;" width="1125" height="1213.858"/>
	<ellipse style="fill:#FF6200;" cx="633.718" cy="895.569" rx="326.282" ry="115.721"/>
	<rect x="308" y="849.455" style="fill:#FF6200;" width="651.437" height="50.465"/>
	
		<ellipse style="fill:#FF6200;stroke:#FFFFFF;stroke-width:5;stroke-miterlimit:10;" cx="633.718" cy="853.805" rx="326.282" ry="115.721"/>
	<polygon style="fill:#FF6200;stroke:#FFFFFF;stroke-width:5;stroke-miterlimit:10;" points="448.03,794.204 340.934,851.668 
		618.852,913.841 674.612,843.189 	"/>
	<polygon style="fill:#FF6200;stroke:#FFFFFF;stroke-width:5;stroke-miterlimit:10;" points="676.201,844.643 445.061,793.816 
		461.006,665.432 704.044,718.025 	"/>
	<polygon style="fill:#FFFFFF;stroke:#FF6200;stroke-width:5;stroke-miterlimit:10;" points="471.447,681.963 456.656,783.763 
		534.093,801.165 562.806,707.196 	"/>
	<ellipse style="fill:#FF6200;" cx="504.181" cy="727.86" rx="16.861" ry="19.359"/>
	<polygon style="fill:#FF6200;" points="466.662,787.679 487.544,753.745 511.036,755.485 511.036,797.187 	"/>
	<polygon style="fill:#FFFFFF;" points="566.722,718.072 645.029,734.603 638.939,746.785 574.552,732.863 576.292,724.162 	"/>
	<polygon style="fill:#FFFFFF;" points="549.998,769.026 628.306,785.558 622.215,797.739 557.829,783.817 559.569,775.117 	"/>
	<polygon style="fill:#FFFFFF;" points="639.809,764.186 590.214,749.395 585.863,758.966 645.029,783.328 	"/>
	<path style="fill:#FF6200;" d="M546.275,986.928c0,0,68.737,128.773-2.61,234.053h148.785c0,0-57.426-149.655,6.961-234.053
		H546.275z"/>
	<path style="fill:#FFFFFF;" d="M727.675,935.964l-19.971-24.619c-5.383-6.636-4.368-16.381,2.269-21.764l51.647-41.896
		c6.636-5.383,16.381-4.368,21.764,2.269l19.971,24.619c5.383,6.636,4.368,16.381-2.269,21.764l-51.647,41.896
		C742.803,943.616,733.059,942.601,727.675,935.964z"/>
	<circle style="fill:#FF6200;" cx="729.427" cy="917.321" r="6.091"/>
	<polygon style="fill:#FF6200;" points="725.077,888.608 748.569,923.412 798.164,888.608 772.062,853.805 	"/>
	<path style="fill:#FF6200;" d="M420.992,641.889L420.992,641.889l-10.016-45.629c0,0-6.727-19.781-24.139-38.688
		c-16.191-23.907-43.568-39.619-74.616-39.619c-22.389,0-42.867,8.173-58.62,21.695l-0.111,0.057c0,0-0.021,0.033-0.052,0.081
		c-10.017,8.639-18.107,19.447-23.549,31.693c-13.056,15.957-30.522,34.936-49.789,49.505c-4.69,2.117-8.995,4.561-12.796,7.303
		c-11.609,8.375-18.66,19.404-18.66,31.49c0,26.189,33.112,47.42,73.957,47.42c21.988,0,41.724-6.159,55.27-15.925
		c10.585,4.372,22.184,6.789,34.348,6.789c24.25,0,46.258-9.588,62.449-25.176c4.565,9.87,12.88,16.475,22.384,16.475
		c14.416,0,26.103-15.193,26.103-33.933C423.158,650.612,422.382,646.037,420.992,641.889z"/>
	<path style="fill:#FFFFFF;stroke:#FF6200;stroke-width:5;stroke-miterlimit:10;" d="M323.101,539.269
		c-37.832,0-69.462,27.637-77.303,64.581c-3.037-0.789-6.318-1.22-9.743-1.22c-15.599,0-28.244,8.938-28.244,19.963
		c0,11.025,12.645,19.963,28.244,19.963c3.563,0,6.968-0.471,10.107-1.322c8.416,36.122,39.667,62.947,76.939,62.947
		c43.727,0,79.175-36.917,79.175-82.457S366.828,539.269,323.101,539.269z"/>
	<ellipse style="fill:#FF6200;" cx="338.407" cy="612.193" rx="6.196" ry="11.439"/>
	<ellipse style="fill:#FF6200;" cx="378.921" cy="613.623" rx="5.72" ry="12.869"/>
	<polyline style="fill:#FF6200;" points="360.332,619.343 364.145,646.034 352.706,650.8 	"/>
	<path style="fill:none;stroke:#FF6200;stroke-width:5;stroke-linecap:round;stroke-miterlimit:10;" d="M226.795,623.896
		c0,0,14.816-6.944,26.855,0"/>
	<path style="fill:#FF6200;" d="M235.654,601.045c0,0,81.967,11.688,122.772-49.407l-10.531-15.85h-68.737L235.654,601.045z"/>
	<path style="fill:#FF6200;" d="M278.723,707.631c0,0-100.06,0-139.214,212.301v82.658l239.273,6.091l-14.791-282.778
		L278.723,707.631z"/>
	<path style="fill:#FF6200;stroke:#FFFFFF;stroke-width:5;stroke-miterlimit:10;" d="M799.137,798.77l-21.313-89.958
		c-2.479-10.462-12.969-16.934-23.431-14.455l-64.559,15.295c-10.462,2.479-16.934,12.969-14.455,23.431l0.202,0.853
		c-23.474,2.147-41.864,21.877-41.864,45.912c0,25.468,20.646,46.115,46.115,46.115c5.93,0,11.593-1.132,16.801-3.171l0.059,0.25
		c2.479,10.462,12.969,16.933,23.431,14.455l64.559-15.295C795.144,819.722,801.616,809.232,799.137,798.77z M679.833,807.691
		c-15.377,0-27.843-12.466-27.843-27.843s12.466-27.843,27.843-27.843c0.01,0,0.02,0.001,0.03,0.001l12.488,52.71
		C688.587,806.615,684.336,807.691,679.833,807.691z"/>
	<polygon style="fill:#FF6200;" points="363.992,725.903 409.236,790.289 358.771,841.624 	"/>
	<path style="fill:#FFFFFF;stroke:#FF6200;stroke-width:5;stroke-miterlimit:10;" d="M666.346,773.322
		c0,0,6.961-18.272-10.441-15.661l-36.544,13.051c0,0,2.61-17.402-10.441-13.051l-26.973,46.985l1.041,1.339
		c-9.153,6.037-106.568,67.303-180.714-8.614l-43.069,44.689c0,0,6.961,64.386,111.371,60.906
		c94.44-3.148,134.777-50.427,141.62-59.429l0.204,0.263l66.126-8.701C678.527,835.098,695.929,785.503,666.346,773.322z"/>
	<path style="fill:#FFFFFF;stroke:#FF6200;stroke-width:5;stroke-miterlimit:10;" d="M495.81,1016.076
		c-29.235-22.274-62.92-23.388-75.227-22.942l-98.355-18.387l-174.017,23.492c0,0-17.402,56.555,13.051,58.296l142.149,4.71
		l-1.195,4.874l-42.2,163.998h109.631l20.076-166.012l31.44,1.042c6.835,6.389,12.34,19.4,12,44.899
		c-0.87,65.256-11.311,115.721-11.311,115.721h85.268C507.121,1225.766,532.353,1043.919,495.81,1016.076z"/>
	<path style="fill:#FFFFFF;stroke:#FF6200;stroke-width:5;stroke-miterlimit:10;" d="M281.769,1028.257"/>
	<g>
		<path style="fill:#FFFFFF;stroke:#FF6200;stroke-width:5;stroke-miterlimit:10;" d="M254.642,985.188H77.452
			c-23.391,0-42.353-18.962-42.353-42.353v-87.571c0-23.391,18.962-42.353,42.353-42.353h177.19
			c23.391,0,42.353,18.962,42.353,42.353v87.571C296.995,966.226,278.033,985.188,254.642,985.188z"/>
		<rect x="83.824" y="985.188" style="fill:#FF6200;" width="25.232" height="71.347"/>
		<rect x="216.077" y="984.318" style="fill:#FF6200;" width="25.232" height="71.347"/>
		<path style="fill:#FF6200;" d="M445.524,1097.429H68.418c-13.115,0-23.748-10.632-23.748-23.748v-0.359
			c0-13.115,10.632-23.748,23.748-23.748h377.106c13.115,0,23.748,10.632,23.748,23.748v0.359
			C469.272,1086.797,458.64,1097.429,445.524,1097.429z"/>
		<rect x="73.383" y="1083.508" style="fill:#FF6200;" width="32.193" height="147.044"/>
		<rect x="228.258" y="1083.508" style="fill:#FF6200;" width="32.193" height="147.044"/>
		<rect x="406.626" y="1083.508" style="fill:#FF6200;" width="32.193" height="147.044"/>
		<rect x="328.318" y="1083.508" style="fill:#FF6200;" width="32.193" height="147.044"/>
	</g>
	<path style="fill:#FFFFFF;stroke:#FF6200;stroke-width:3;stroke-miterlimit:10;" d="M229.053,653.461l6.633-0.927l-2.782-19.9
		l8.844-1.236l-4.529-16.274c0,0-17.356-3.21-14.883,14.479L229.053,653.461z"/>
	<g>
		<path style="fill:#FF6200;" d="M27.629,532.294l6.943-4.099l6.977-4.035l14.005-7.968l14.072-7.84
			c4.685-2.624,9.418-5.156,14.124-7.739l3.955-2.17l-0.595,4.582c-0.75,5.775-1.513,11.548-2.339,17.312l-2.421,17.299
			l-2.562,17.278c-0.872,5.756-1.681,11.523-2.604,17.271l-4.601-2.935l19.57-12.904c3.258-2.157,6.555-4.254,9.83-6.384
			l9.841-6.367l3.617-2.34l0.403,4.232c0.537,5.638,0.963,11.287,1.44,16.931l0.699,8.468l0.642,8.474l-1.99-1.648l13.789-0.714
			l13.798-0.607l0.46-0.02l0.25,0.294l5.558,6.53l5.5,6.585l-6.196-5.934l-6.137-5.989l0.71,0.274l-13.708,1.685l-13.717,1.577
			l-1.744,0.2l-0.246-1.849l-1.121-8.424l-1.064-8.43c-0.699-5.621-1.448-11.237-2.086-16.864l4.02,1.892l-9.672,6.622
			c-3.229,2.2-6.436,4.432-9.683,6.604l-19.457,13.073l-5.575,3.746l0.974-6.681c0.84-5.761,1.795-11.505,2.686-17.258l2.729-17.252
			l2.869-17.23c0.938-5.746,1.938-11.483,2.952-17.218l3.36,2.411c-4.825,2.354-9.624,4.758-14.47,7.072l-14.522,6.97l-14.589,6.842
			l-7.32,3.371L27.629,532.294z"/>
	</g>
	<g>
		<path style="fill:#FF6200;" d="M123.337,436.164c7.264,0.917,14.515,1.903,21.76,2.925c7.238,1.06,14.485,2.074,21.71,3.202
			l2.313,0.361l-1.151,2.136l-5.228,9.702c-1.733,3.24-3.524,6.446-5.283,9.67c-3.548,6.432-7.031,12.901-10.637,19.3l-1.855-3.861
			l20.562,2.944c3.429,0.478,6.847,1.024,10.271,1.533l10.268,1.552l4.968,0.751l-3.108,3.977l-9.155,11.713l-9.246,11.642
			l-9.246,11.642c-3.073,3.888-6.214,7.721-9.318,11.585l-2.42-4.412c7.087-0.61,14.168-1.28,21.26-1.841l21.274-1.702l3.12-0.25
			l-0.984,2.872l-5.768,16.842l-5.884,16.806l-0.091-0.766l4.938,9.068l4.87,9.11l-5.746-8.584l-5.678-8.625l-0.213-0.324
			l0.122-0.442l4.732-17.165l4.848-17.129l2.137,2.622l-21.19,2.544c-7.063,0.855-14.136,1.6-21.204,2.405l-6.392,0.728l3.972-5.141
			c3.03-3.922,6.022-7.873,9.083-11.77l9.155-11.714l9.155-11.713l9.246-11.642l1.86,4.728l-10.256-1.632
			c-3.417-0.553-6.84-1.069-10.253-1.652l-20.487-3.425l-3.746-0.626l1.891-3.235c3.707-6.341,7.537-12.61,11.302-18.918
			c1.898-3.145,3.763-6.308,5.687-9.438l5.742-9.407l1.162,2.497c-7.165-1.467-14.309-3.047-21.461-4.583
			C137.603,439.451,130.464,437.842,123.337,436.164z"/>
	</g>
	<g>
		<path style="fill:#FF6200;" d="M585.428,650.64c2.338-2.023,4.973-3.654,7.676-5.166c2.721-1.483,5.58-2.741,8.548-3.751
			c5.922-1.992,12.385-3.019,18.879-2.145c6.48,0.838,12.788,4.077,17.098,8.94c0.579,0.568,1.018,1.256,1.525,1.879l0.733,0.954
			c0.239,0.32,0.428,0.676,0.641,1.013l1.233,2.038l1.013,2.139l0.483,1.071c0.15,0.361,0.267,0.737,0.401,1.103
			c0.257,0.738,0.526,1.466,0.757,2.206c0.443,1.486,0.748,3.01,1.05,4.51c-2.989-5.367-6.322-10.369-10.604-14.122
			c-4.283-3.741-9.465-6.02-15.024-6.782c-5.567-0.756-11.39-0.216-17.149,0.974C596.915,646.709,591.182,648.502,585.428,650.64z"
			/>
	</g>
	<g>
		<path style="fill:#FF6200;" d="M568.897,619.317c4.371-4.095,9.234-7.643,14.271-10.93c5.074-3.229,10.397-6.126,16.004-8.468
			c5.587-2.378,11.47-4.198,17.571-5.18c6.09-0.975,12.442-1.045,18.627,0.258c3.084,0.661,6.11,1.657,8.982,2.993
			c2.86,1.359,5.564,3.039,8.026,4.998c2.458,1.964,4.711,4.157,6.708,6.543c1.982,2.396,3.737,4.948,5.292,7.597
			c6.149,10.666,9.256,22.541,10.672,34.383c-3.441-11.417-7.575-22.646-13.978-32.311c-1.633-2.383-3.405-4.644-5.305-6.767
			c-1.94-2.084-4.023-4.009-6.279-5.684c-4.488-3.381-9.668-5.727-15.156-6.862c-5.484-1.176-11.23-1.199-16.911-0.465
			c-5.693,0.731-11.327,2.232-16.851,4.125c-5.508,1.946-10.923,4.284-16.189,6.962
			C579.089,613.152,573.933,616.103,568.897,619.317z"/>
	</g>
	<g>
		<path style="fill:#FF6200;" d="M539.314,593.215c7.08-6.46,14.83-12.175,22.863-17.457c8.071-5.227,16.521-9.936,25.397-13.804
			c8.851-3.912,18.17-6.917,27.819-8.622c9.638-1.647,19.706-1.785,29.434,0.419c9.701,2.244,18.854,6.989,26.257,13.598
			c7.362,6.661,13.203,14.757,17.597,23.437c4.421,8.682,7.669,17.848,10.081,27.167c2.361,9.338,4.02,18.81,4.997,28.337
			c-2.073-9.348-4.367-18.621-7.354-27.647c-0.763-2.249-1.541-4.491-2.336-6.723c-0.888-2.197-1.676-4.432-2.642-6.589
			c-0.96-2.159-1.859-4.342-2.928-6.442c-0.527-1.052-0.997-2.135-1.57-3.161l-1.685-3.094c-0.536-1.046-1.196-2.016-1.792-3.024
			c-0.618-0.994-1.194-2.015-1.879-2.962l-1.96-2.9l-2.104-2.785c-2.874-3.652-6.039-7.053-9.537-10.048
			c-6.964-6.022-15.318-10.298-24.27-12.297c-8.936-2.122-18.353-2.039-27.556-0.628c-9.239,1.363-18.279,4.155-27.083,7.552
			c-8.785,3.469-17.343,7.621-25.622,12.303C555.139,582.495,547.078,587.619,539.314,593.215z"/>
	</g>
	<path style="fill:none;stroke:#FF6200;stroke-width:5;stroke-miterlimit:10;" d="M321.832,646.29c0,0-7.376,32.193,62.172,26.973"
		/>
	<circle style="fill:#FF6200;" cx="94.7" cy="863.811" r="10.876"/>
	<circle style="fill:#FF6200;" cx="96.441" cy="936.898" r="10.876"/>
	<circle style="fill:#FF6200;" cx="228.694" cy="863.811" r="10.876"/>
	<circle style="fill:#FF6200;" cx="228.694" cy="936.898" r="10.876"/>
</g>
<g id="&#xB808;&#xC774;&#xC5B4;_1">
	<rect x="0.188" y="1220.629" style="fill:#27304D;" width="2249.812" height="1215.487"/>
	<polygon style="fill:#FFFFFF;" points="607.259,2069.631 682.353,2042.501 717.422,2055.655 717.422,2085.251 626.167,2090.184 	
		"/>
	<path style="fill:none;stroke:#FFFFFF;stroke-width:15;stroke-miterlimit:10;" d="M693.991,2074.564
		c0,0,50.149-23.019,46.86,20.553s-42.75,60.014-42.75,60.014l-4.111,240.879"/>
	<path style="fill:#FFFFFF;stroke:#27304D;stroke-width:5;stroke-miterlimit:10;" d="M434.213,1885.841L434.213,1885.841
		l-9.464-43.113c0,0-6.356-18.691-22.808-36.555c-15.298-22.589-41.166-37.435-70.502-37.435c-21.154,0-40.503,7.723-55.388,20.499
		l-0.105,0.054c0,0-0.02,0.031-0.049,0.076c-9.464,8.162-17.109,18.375-22.25,29.946c-12.336,15.078-28.839,33.01-47.043,46.776
		c-4.432,2-8.499,4.31-12.09,6.901c-10.969,7.913-17.631,18.334-17.631,29.753c0,24.745,31.286,44.805,69.88,44.805
		c20.776,0,39.423-5.819,52.223-15.047c10.002,4.131,20.961,6.415,32.455,6.415c22.913,0,43.708-9.059,59.006-23.788
		c4.313,9.326,12.17,15.567,21.15,15.567c13.621,0,24.663-14.355,24.663-32.062C436.259,1894.084,435.526,1889.76,434.213,1885.841z
		"/>
	<path style="fill:#27304D;stroke:#FFFFFF;stroke-width:5;stroke-miterlimit:10;" d="M341.719,1788.88
		c-35.747,0-65.632,26.113-73.041,61.021c-2.87-0.745-5.97-1.153-9.205-1.153c-14.739,0-26.686,8.445-26.686,18.862
		s11.948,18.863,26.686,18.863c3.366,0,6.584-0.445,9.549-1.249c7.952,34.13,37.48,59.476,72.697,59.476
		c41.316,0,74.809-34.882,74.809-77.91S383.035,1788.88,341.719,1788.88z"/>
	<ellipse style="fill:#FFFFFF;" cx="356.182" cy="1857.783" rx="5.855" ry="10.808"/>
	<ellipse style="fill:#FFFFFF;" cx="394.461" cy="1859.134" rx="5.404" ry="12.159"/>
	<polyline style="fill:#FFFFFF;" points="376.898,1864.538 380.501,1889.758 369.692,1894.261 	"/>
	<g>
		<path style="fill:#FFFFFF;" d="M250.723,1868.84c1.845-1.26,3.925-2.131,6.064-2.778c2.143-0.653,4.381-1.001,6.638-1.108
			c2.259-0.09,4.544,0.193,6.724,0.801c2.192,0.586,4.221,1.704,5.948,3.086c-2.14-0.655-4.166-1.288-6.282-1.561
			c-0.516-0.111-1.055-0.11-1.576-0.184c-0.526-0.054-1.047-0.127-1.578-0.117l-1.582-0.067l-1.586,0.041
			c-2.116,0.062-4.233,0.305-6.358,0.626C255.012,1867.92,252.889,1868.344,250.723,1868.84z"/>
	</g>
	<path style="fill:#FFFFFF;" d="M260.738,1849.227c0,0,79.861,12.06,119.617-50.981l-10.26-16.355h-66.971L260.738,1849.227z"/>
	<path style="fill:#27304D;stroke:#FFFFFF;stroke-width:6;stroke-miterlimit:10;" d="M666.04,2010.028
		c0,0,6.577-17.264-9.865-14.798l-34.529,12.332c0,0,2.466-16.442-9.865-12.332l-25.486,44.394l0.984,1.265
		c-8.649,5.704-100.692,63.592-170.75-8.139l-40.695,42.225c0,0,6.577,60.836,105.23,57.548
		c89.233-2.974,127.346-47.647,133.811-56.152l0.193,0.248l62.481-8.221C677.549,2068.398,693.991,2021.537,666.04,2010.028z"/>
	<path style="fill:#27304D;stroke:#FFFFFF;stroke-width:6;stroke-miterlimit:10;" d="M504.906,2239.001
		c-27.623-20.833-59.451-21.874-71.079-21.458l-92.932-17.197l-164.423,21.972c0,0-16.442,52.895,12.332,54.523l134.311,4.405
		l-1.129,4.559l-37.818,148.095l150.858,1.221h80.567C515.593,2435.121,539.434,2265.042,504.906,2239.001z"/>
	<path style="fill:#FFFFFF;stroke:#FF3A00;stroke-width:5;stroke-miterlimit:10;" d="M302.666,2250.907"/>
	<circle style="fill:#FF3A00;" cx="252.517" cy="2095.528" r="10.276"/>
	<circle style="fill:#FF3A00;" cx="252.517" cy="2164.585" r="10.276"/>
	<g>
		<path style="fill:#FFFFFF;" d="M356.103,1890.822c-2.629,0.638-4.951,1.733-7.14,2.999c-2.186,1.276-4.182,2.819-6.08,4.486
			c-1.931,1.638-3.636,3.547-5.408,5.435c-0.845,0.979-1.697,1.97-2.581,2.954c-0.836,1.019-1.668,2.052-2.631,3.036
			c0.377-1.303,0.883-2.556,1.387-3.823c0.619-1.197,1.223-2.424,1.94-3.583c0.38-0.565,0.766-1.129,1.164-1.685l0.598-0.835
			l0.666-0.785l1.368-1.546c0.493-0.483,1.009-0.945,1.514-1.416c2.077-1.823,4.446-3.373,7.059-4.362
			C350.555,1890.749,353.415,1890.2,356.103,1890.822z"/>
	</g>
	<path style="fill:#FFFFFF;" d="M423.927,2032.006l-48.505-66.783l-38.929-4.984l0,0l-51.055-12.28
		c0,0-117.188-23.841-117.188,200.596v78.101l201.418,5.755l-6.595-141.521l8.239-5.637L423.927,2032.006z"/>
	<path style="fill:#FF3A00;" d="M216.755,2334.352"/>
	<g>
		<path style="fill:#FFFFFF;" d="M350.348,1917.951c2.693-3.506,6.204-6.314,10.143-8.479c3.946-2.115,8.517-3.568,13.365-3.348
			c2.404,0.12,4.852,0.674,7.048,1.762c2.199,1.074,4.127,2.59,5.703,4.333c3.068,3.579,4.833,7.845,5.458,12.196
			c-2.55-3.583-5.146-6.899-8.182-9.361c-3.072-2.402-6.526-3.807-10.28-3.937c-3.741-0.182-7.666,0.655-11.542,1.945
			C358.169,1914.362,354.315,1916.076,350.348,1917.951z"/>
	</g>
	<path style="fill:#27304D;stroke:#FFFFFF;stroke-width:5;stroke-miterlimit:10;" d="M270.59,2127.24H0.189v-84.739H270.59
		c23.391,0,42.353,18.962,42.353,42.353v0.033C312.942,2108.278,293.98,2127.24,270.59,2127.24z"/>
	<rect x="236.486" y="2204.458" style="fill:#FFFFFF;" width="23.841" height="67.413"/>
	<path style="fill:#FFFFFF;" d="M453.112,2311.332H0.187l0-45.216h452.925c12.486,0,22.608,10.122,22.608,22.608l0,0
		C475.721,2301.21,465.599,2311.332,453.112,2311.332z"/>
	<rect x="247.995" y="2298.178" style="fill:#FFFFFF;" width="30.418" height="138.937"/>
	<rect x="416.528" y="2298.178" style="fill:#FFFFFF;" width="30.418" height="138.937"/>
	<circle style="fill:#FFFFFF;" cx="252.774" cy="2084.49" r="10.276"/>
	<circle style="fill:#FFFFFF;" cx="252.517" cy="2164.585" r="10.276"/>
	<path style="fill:none;stroke:#FFFFFF;stroke-width:15;stroke-miterlimit:10;" d="M589.841,2435.532
		c0,0-8.221-38.228,30.418-39.051c38.639-0.822,149.625,0,149.625,0s29.596-8.221,27.13,40.284"/>
	
		<line style="fill:none;stroke:#FFFFFF;stroke-width:15;stroke-miterlimit:10;" x1="727.133" y1="2400.593" x2="727.133" y2="2436.766"/>
	<path style="fill:none;stroke:#FFFFFF;stroke-width:5;stroke-miterlimit:10;" d="M429.529,1782.775c0,0,27.13,0,41.928-21.375"/>
	<path style="fill:#FFFFFF;" d="M465.573,1768.294c0,0-25.768,9.137-44.677-7.305
		C420.896,1760.989,445.304,1741.069,465.573,1768.294z"/>
	<path style="fill:#FFFFFF;" d="M465.547,1770.501c0,0-28.181-13.808-29.867-42.52
		C435.68,1727.981,471.614,1732.019,465.547,1770.501z"/>
	<path style="fill:#FFFFFF;" d="M492.519,1721.169c0,0-2.497,33.959-30.721,47.277
		C461.798,1768.446,451.32,1730.635,492.519,1721.169z"/>
	<path style="fill:#FFFFFF;" d="M460.505,1763.198c0,0,10.777,23.264,34.199,25.153
		C494.703,1788.351,492.046,1758.927,460.505,1763.198z"/>
	<path style="fill:#FFFFFF;" d="M464.287,1769.962c0,0,35.418,1.766,52.795-25.699
		C517.082,1744.263,479.344,1728.593,464.287,1769.962z"/>
	<path style="fill:none;stroke:#FFFFFF;stroke-width:5;stroke-miterlimit:10;" d="M583.739,1907.279c0,0,5.168,15.408,20.127,19.741
		"/>
	<path style="fill:#FFFFFF;" d="M598.83,1924.993c0,0-10.098-12.895-4.362-26.766
		C594.469,1898.227,610.431,1908.295,598.83,1924.993z"/>
	<path style="fill:#FFFFFF;" d="M597.571,1925.398c0,0,2.474-18.635,18.46-25.063
		C616.031,1900.336,620.583,1921.514,597.571,1925.398z"/>
	<path style="fill:#FFFFFF;" d="M630.727,1931.32c0,0-19.763,5.05-32.703-8.443C598.024,1922.878,617.504,1909.724,630.727,1931.32z
		"/>
	<path style="fill:#FFFFFF;" d="M600.759,1921.143c0,0-11.16,10.552-7.772,24.215
		C592.987,1945.358,609.192,1938.244,600.759,1921.143z"/>
	<path style="fill:#FFFFFF;" d="M597.637,1924.58c0,0,5.743,20.452,24.653,25.09C622.29,1949.67,624.001,1925.252,597.637,1924.58z"
		/>
	<path style="fill:none;stroke:#FFFFFF;stroke-width:5;stroke-miterlimit:10;" d="M860.777,1862.831c0,0,18.424,15.37,32.475,10.03"
		/>
	<path style="fill:#FFFFFF;" d="M878.187,1873.693c0,0-3.299,15.235,12.279,26.793l7.062,5.706l18.424-19.585l-6.915-7.16
		l12.389-0.513l-6.231-25.596C915.194,1853.338,889.17,1849.245,878.187,1873.693z"/>
	<path style="fill:none;stroke:#FFFFFF;stroke-width:5;stroke-miterlimit:10;" d="M513.08,2154.499c0,0,5.168,15.409,20.127,19.742"
		/>
	<path style="fill:#FFFFFF;" d="M528.17,2172.213c0,0-10.098-12.895-4.362-26.766
		C523.809,2145.447,539.771,2155.515,528.17,2172.213z"/>
	<path style="fill:#FFFFFF;" d="M526.911,2172.618c0,0,2.474-18.636,18.46-25.063
		C545.372,2147.556,549.924,2168.734,526.911,2172.618z"/>
	<path style="fill:#FFFFFF;" d="M560.068,2178.54c0,0-19.763,5.05-32.703-8.443C527.365,2170.098,546.844,2156.944,560.068,2178.54z
		"/>
	<path style="fill:#FFFFFF;" d="M531.54,2171.002c0,0-15.079,2.917-19.55,16.265C511.99,2187.267,529.482,2189.958,531.54,2171.002z
		"/>
	<path style="fill:#FFFFFF;" d="M527.939,2169.751c0,0-0.874,21.226,15.669,31.492
		C543.608,2201.244,552.798,2178.556,527.939,2169.751z"/>
	<path style="fill:none;stroke:#FFFFFF;stroke-width:5;stroke-miterlimit:10;" d="M795.683,2075.593c0,0,21.39,0.595,33.526-15.934"
		/>
	<path style="fill:#FFFFFF;" d="M824.42,2064.966c0,0-20.517,6.64-35.065-6.739C789.355,2058.227,809.035,2043.057,824.42,2064.966z
		"/>
	<path style="fill:#FFFFFF;" d="M824.35,2066.706c0,0-21.916-11.505-22.616-34.179
		C801.734,2032.527,829.977,2036.498,824.35,2066.706z"/>
	<path style="fill:#FFFFFF;" d="M846.697,2028.402c0,0-2.713,26.72-25.257,36.601
		C821.44,2065.003,814.008,2034.962,846.697,2028.402z"/>
	<path style="fill:#FFFFFF;" d="M824.45,2060.252c0,0-3.227,19.963,11.247,31.539C835.697,2091.791,846.95,2071.386,824.45,2060.252
		z"/>
	<path style="fill:#FFFFFF;" d="M821.272,2064.136c0,0,25.843,10.699,46.032-5.098
		C867.304,2059.038,843.422,2037.395,821.272,2064.136z"/>
	<g>
		<path style="fill:#FFFFFF;" d="M379.791,1741.258c-14.551-1.53-29.054-3.493-43.526-5.651
			c-14.464-2.214-28.888-4.697-43.265-7.429c-28.75-5.472-57.323-11.951-85.504-19.899c-28.124-8.089-55.922-17.575-82.516-29.869
			c-13.279-6.158-26.241-13.063-38.462-21.143c-12.166-8.113-23.674-17.422-33.107-28.638c9.557,11.11,21.147,20.269,33.376,28.229
			c12.232,8.004,25.189,14.855,38.471,20.948c26.595,12.172,54.392,21.534,82.51,29.512c28.116,8.046,56.643,14.63,85.356,20.208
			c14.358,2.789,28.767,5.313,43.214,7.599C350.781,1737.444,365.259,1739.567,379.791,1741.258z"/>
	</g>
	<g>
		<path style="fill:#FFFFFF;" d="M176.682,1928.996c-2.944,1.211-6.141,1.723-9.308,1.94l-2.386,0.166
			c-0.796,0.027-1.593-0.018-2.389-0.023c-1.592-0.051-3.195,0.01-4.775-0.216l-4.757-0.519c-1.572-0.26-3.132-0.592-4.699-0.885
			c-3.158-0.5-6.201-1.466-9.283-2.286l-2.307-0.633c-0.768-0.216-1.507-0.516-2.262-0.771l-4.503-1.61l-2.251-0.807
			c-0.754-0.259-1.501-0.536-2.224-0.873l-4.382-1.908c-5.92-2.386-11.493-5.492-17.19-8.344c-2.795-1.524-5.5-3.21-8.255-4.807
			l-4.114-2.427l-2.054-1.218l-1.991-1.317l-7.964-5.269l-3.98-2.636c-1.327-0.879-2.572-1.873-3.863-2.804l-7.676-5.673
			c-2.547-1.905-5.156-3.729-7.591-5.78l-14.774-12.073l15.073,11.685c2.466,2.006,5.095,3.796,7.667,5.66l7.745,5.553
			c1.301,0.91,2.558,1.884,3.894,2.742l3.986,2.607l7.969,5.218l1.992,1.304l2.053,1.204l4.112,2.399
			c2.752,1.579,5.458,3.244,8.247,4.753c11.174,6.002,22.738,11.348,34.859,15.087c3.049,0.858,6.066,1.864,9.192,2.404
			c1.553,0.313,3.1,0.666,4.658,0.947l4.716,0.589c1.568,0.266,3.156,0.244,4.738,0.336c0.792,0.026,1.584,0.091,2.376,0.084
			l2.375-0.105C170.516,1930.557,173.71,1930.13,176.682,1928.996z"/>
	</g>
	<g>
		<path style="fill:#FFFFFF;" d="M681.095,2028.587c3.501,1.566,6.995,3.142,10.512,4.667c3.505,1.551,7.018,3.083,10.546,4.578
			c7.05,3.004,14.114,5.974,21.26,8.732c7.121,2.821,14.318,5.444,21.61,7.77c3.644,1.166,7.326,2.216,11.052,3.075
			c3.72,0.87,7.503,1.556,11.342,1.596c-3.84,0.188-7.676-0.405-11.445-1.117c-3.767-0.766-7.489-1.738-11.174-2.819
			c-7.368-2.183-14.585-4.822-21.749-7.575c-7.13-2.841-14.211-5.802-21.204-8.961
			C694.853,2035.375,687.915,2032.099,681.095,2028.587z"/>
	</g>
	<path style="fill:#27304D;stroke:#FFFFFF;stroke-width:5;stroke-miterlimit:10;" d="M270.588,2223.322H0.188l0-84.739h270.401
		c23.391,0,42.353,18.962,42.353,42.353v0.033C312.941,2204.36,293.979,2223.322,270.588,2223.322z"/>
	<circle style="fill:#FFFFFF;" cx="252.774" cy="2180.677" r="10.276"/>
</g>
</svg>
