<?xml version="1.0" encoding="iso-8859-1"?>
<!-- Generator: Adobe Illustrator 25.0.1, SVG Export Plug-In . SVG Version: 6.00 Build 0)  -->
<svg version="1.1" id="&#xB808;&#xC774;&#xC5B4;_1" xmlns="http://www.w3.org/2000/svg" xmlns:xlink="http://www.w3.org/1999/xlink"
	 x="0px" y="0px" viewBox="0 0 1920 2160" style="enable-background:new 0 0 1920 2160;" xml:space="preserve">
<rect x="-0.313" y="-22" style="fill:#27304D;" width="1920" height="2183.426"/>
<polygon style="fill:#FFFFFF;" points="931.687,1715.426 1023.031,1682.426 1065.687,1698.426 1065.687,1734.426 954.687,1740.426 
	"/>
<path style="fill:none;stroke:#FFFFFF;stroke-width:15;stroke-miterlimit:10;" d="M1037.187,1721.426c0,0,61-28,57,25s-52,73-52,73
	l-5,293"/>
<path style="fill:#FFFFFF;stroke:#27304D;stroke-width:5;stroke-miterlimit:10;" d="M721.198,1491.868L721.198,1491.868
	l-11.511-52.442c0,0-7.731-22.735-27.743-44.465c-18.608-27.476-50.073-45.535-85.757-45.535c-25.731,0-49.267,9.393-67.373,24.934
	l-0.127,0.066c0,0-0.024,0.038-0.06,0.093c-11.512,9.929-20.811,22.35-27.065,36.426c-15.005,18.34-35.079,40.153-57.223,56.897
	c-5.391,2.433-10.338,5.242-14.706,8.394c-13.342,9.625-21.446,22.301-21.446,36.191c0,30.099,38.056,54.5,85,54.5
	c25.271,0,47.954-7.078,63.523-18.303c12.166,5.024,25.496,7.803,39.477,7.803c27.871,0,53.165-11.02,71.773-28.935
	c5.246,11.344,14.803,18.935,25.727,18.935c16.568,0,30-17.461,30-39C723.687,1501.894,722.795,1496.635,721.198,1491.868z"/>
<path style="fill:#27304D;stroke:#FFFFFF;stroke-width:5;stroke-miterlimit:10;" d="M608.69,1373.926
	c-43.481,0-79.833,31.763-88.846,74.224c-3.491-0.907-7.262-1.402-11.197-1.402c-17.928,0-32.461,10.272-32.461,22.944
	c0,12.672,14.533,22.944,32.461,22.944c4.095,0,8.008-0.541,11.616-1.519c9.672,41.516,45.59,72.346,88.427,72.346
	c50.256,0,90.996-42.429,90.996-94.768S658.946,1373.926,608.69,1373.926z"/>
<ellipse style="fill:#FFFFFF;" cx="626.282" cy="1457.738" rx="7.121" ry="13.147"/>
<ellipse style="fill:#FFFFFF;" cx="672.845" cy="1459.382" rx="6.574" ry="14.79"/>
<polyline style="fill:#FFFFFF;" points="651.481,1465.955 655.863,1496.632 642.716,1502.109 "/>
<g>
	<path style="fill:#FFFFFF;" d="M498.005,1471.188c2.279-1.45,4.814-2.461,7.414-3.216c2.605-0.758,5.314-1.171,8.044-1.296
		c2.732-0.113,5.492,0.22,8.135,0.923c2.658,0.679,5.126,1.987,7.271,3.589c-2.559-0.875-5.023-1.698-7.605-2.064
		c-0.63-0.146-1.288-0.152-1.926-0.246c-0.643-0.071-1.28-0.166-1.931-0.159l-1.936-0.089l-1.942,0.045
		c-2.589,0.08-5.178,0.387-7.764,0.813C503.182,1469.938,500.605,1470.502,498.005,1471.188z"/>
</g>
<path style="fill:#FFFFFF;" d="M510.187,1447.331c0,0,97.142,14.669,145.5-62.012l-12.48-19.894h-81.462L510.187,1447.331z"/>
<path style="fill:#27304D;stroke:#FFFFFF;stroke-width:6;stroke-miterlimit:10;" d="M1003.187,1642.926c0,0,8-21-12-18l-42,15
	c0,0,3-20-12-15l-31,54l1.197,1.538c-10.52,6.939-122.479,77.352-207.697-9.901l-49.5,51.362c0,0,8,74,128,70
	c108.541-3.618,154.9-57.957,162.765-68.302l0.235,0.302l76-10C1017.187,1713.926,1037.187,1656.926,1003.187,1642.926z"/>
<path style="fill:#27304D;stroke:#FFFFFF;stroke-width:6;stroke-miterlimit:10;" d="M807.187,1921.444
	c-33.6-25.34-72.314-26.607-86.459-26.1l-113.041-20.918l-200,26.726c0,0-20,64.341,15,66.321l163.374,5.358l-1.373,5.545
	l-46,180.139l183.5,1.485h98C820.187,2160,849.187,1953.12,807.187,1921.444z"/>
<path style="fill:#FFFFFF;stroke:#EC5528;stroke-width:5;stroke-miterlimit:10;" d="M561.187,1935.926"/>
<circle style="fill:#EC5528;" cx="500.187" cy="1746.926" r="12.5"/>
<circle style="fill:#EC5528;" cx="500.187" cy="1830.926" r="12.5"/>
<g>
	<path style="fill:#FFFFFF;" d="M626.187,1497.926c-3.206,0.636-6.083,1.921-8.798,3.409c-2.697,1.538-5.171,3.403-7.498,5.452
		l-1.729,1.562l-1.642,1.67l-0.831,0.83l-0.778,0.884c-0.518,0.591-1.052,1.171-1.595,1.749c-1.011,1.213-2.014,2.449-3.063,3.667
		c-0.98,1.266-1.958,2.547-3.066,3.778c0.521-1.55,1.173-3.051,1.821-4.566c0.778-1.436,1.546-2.897,2.436-4.284
		c0.464-0.681,0.937-1.359,1.426-2.026l0.732-1.003l0.812-0.943l1.661-1.86c0.596-0.582,1.22-1.139,1.831-1.707
		c2.508-2.197,5.345-4.093,8.484-5.311c1.568-0.605,3.181-1.088,4.839-1.328C622.878,1497.671,624.569,1497.574,626.187,1497.926z"
		/>
</g>
<path style="fill:#FFFFFF;" d="M708.687,1669.659l-59-81.233l-47.353-6.063l0,0l-62.102-14.937c0,0-142.545-29-142.545,244v95l245,7
	l-8.022-172.143l10.022-6.857L708.687,1669.659z"/>
<path style="fill:#EC5528;" d="M456.687,2037.426"/>
<g>
	<path style="fill:#FFFFFF;" d="M619.187,1530.926c3.413-4.088,7.721-7.386,12.508-9.925c4.792-2.483,10.283-4.185,16.06-3.92
		c0.718,0.067,1.438,0.091,2.152,0.208c0.713,0.13,1.43,0.242,2.138,0.397l2.09,0.628c0.68,0.255,1.349,0.548,2.013,0.84
		c2.623,1.262,4.934,3.048,6.849,5.107c3.728,4.234,5.965,9.319,6.933,14.528c-2.893-4.442-5.961-8.578-9.658-11.694
		c-1.887-1.497-3.883-2.746-6.028-3.598c-2.134-0.872-4.415-1.319-6.745-1.424c-4.67-0.226-9.514,0.859-14.237,2.518
		C628.525,1526.265,623.874,1528.468,619.187,1530.926z"/>
</g>
<path style="fill:#27304D;stroke:#FFFFFF;stroke-width:5;stroke-miterlimit:10;" d="M531.334,1785.5H0.5v-103.074h530.834
	c23.391,0,42.353,18.962,42.353,42.353v18.369C573.687,1766.538,554.725,1785.5,531.334,1785.5z"/>
<rect x="480.687" y="1879.426" style="fill:#FFFFFF;" width="29" height="82"/>
<path style="fill:#FFFFFF;" d="M744.187,2009.426H0l0-55h744.187c15.188,0,27.5,12.312,27.5,27.5v0
	C771.687,1997.114,759.375,2009.426,744.187,2009.426z"/>
<rect x="31" y="1993" style="fill:#FFFFFF;" width="37" height="169"/>
<rect x="494.687" y="1993.426" style="fill:#FFFFFF;" width="37" height="169"/>
<rect x="699.687" y="1993.426" style="fill:#FFFFFF;" width="37" height="169"/>
<circle style="fill:#FFFFFF;" cx="500.5" cy="1733.5" r="12.5"/>
<circle style="fill:#FFFFFF;" cx="500.187" cy="1830.926" r="12.5"/>
<path style="fill:none;stroke:#FFFFFF;stroke-width:15;stroke-miterlimit:10;" d="M910.5,2160.5c0,0-10-46.5,37-47.5s182,0,182,0
	s36-10,33,49"/>
<line style="fill:none;stroke:#FFFFFF;stroke-width:15;stroke-miterlimit:10;" x1="1077.5" y1="2118" x2="1077.5" y2="2162"/>
<path style="fill:none;stroke:#FFFFFF;stroke-width:5;stroke-miterlimit:10;" d="M199.5,1238.5c0,0,18,32,41,32"/>
<path style="fill:#FFFFFF;" d="M218.5,1263.5c0,0-13,20,3,45l7,12l37-18l-6-14l18,6l5-40C282.5,1254.5,247.5,1234.5,218.5,1263.5z"
	/>
<path style="fill:none;stroke:#FFFFFF;stroke-width:5;stroke-miterlimit:10;" d="M820.5,1488.5c0,0,33,0,51-26"/>
<path style="fill:#FFFFFF;" d="M864.344,1470.885c0,0-31.344,11.115-54.344-8.885C810,1462,839.688,1437.771,864.344,1470.885z"/>
<path style="fill:#FFFFFF;" d="M864.312,1473.571c0,0-34.278-16.796-36.33-51.72
	C827.982,1421.851,871.692,1426.761,864.312,1473.571z"/>
<path style="fill:#FFFFFF;" d="M897.12,1413.564c0,0-3.038,41.307-37.368,57.506C859.752,1471.071,847.007,1425.078,897.12,1413.564
	z"/>
<path style="fill:#FFFFFF;" d="M858.179,1464.687c0,0,13.109,28.298,41.599,30.596
	C899.777,1495.282,896.545,1459.492,858.179,1464.687z"/>
<path style="fill:#FFFFFF;" d="M862.779,1472.915c0,0,43.082,2.148,64.219-31.26
	C926.998,1441.655,881.094,1422.595,862.779,1472.915z"/>
<path style="fill:none;stroke:#FFFFFF;stroke-width:5;stroke-miterlimit:10;" d="M1079.845,1599.804c0,0,6.286,18.743,24.481,24.013
	"/>
<path style="fill:#FFFFFF;" d="M1098.201,1621.35c0,0-12.283-15.685-5.305-32.558
	C1092.896,1588.793,1112.312,1601.039,1098.201,1621.35z"/>
<path style="fill:#FFFFFF;" d="M1096.67,1621.844c0,0,3.01-22.668,22.455-30.486
	C1119.124,1591.358,1124.661,1617.119,1096.67,1621.844z"/>
<path style="fill:#FFFFFF;" d="M1137,1629.047c0,0-24.039,6.143-39.779-10.269C1097.221,1618.778,1120.915,1602.778,1137,1629.047z"
	/>
<path style="fill:#FFFFFF;" d="M1100.547,1616.668c0,0-13.575,12.835-9.453,29.454
	C1091.094,1646.122,1110.805,1637.469,1100.547,1616.668z"/>
<path style="fill:#FFFFFF;" d="M1096.75,1620.848c0,0,6.986,24.878,29.987,30.519
	C1126.737,1651.367,1128.818,1621.665,1096.75,1620.848z"/>
<path style="fill:none;stroke:#FFFFFF;stroke-width:5;stroke-miterlimit:10;" d="M470.666,1138.875c0,0,14.516,25.319,32.798,25.169
	"/>
<path style="fill:#FFFFFF;" d="M485.932,1158.624c0,0-10.203,15.982,2.677,35.75l5.642,9.493l29.293-14.549l-4.86-11.089
	l14.347,4.652l3.714-31.828C536.746,1151.053,508.795,1135.384,485.932,1158.624z"/>
<path style="fill:none;stroke:#FFFFFF;stroke-width:5;stroke-miterlimit:10;" d="M922.13,1940.658c0,0,6.286,18.743,24.482,24.013"
	/>
<path style="fill:#FFFFFF;" d="M940.486,1962.204c0,0-12.283-15.685-5.305-32.558
	C935.181,1929.646,954.597,1941.893,940.486,1962.204z"/>
<path style="fill:#FFFFFF;" d="M938.954,1962.697c0,0,3.01-22.668,22.455-30.486
	C961.409,1932.211,966.946,1957.972,938.954,1962.697z"/>
<path style="fill:#FFFFFF;" d="M979.285,1969.9c0,0-24.039,6.143-39.779-10.269C939.506,1959.631,963.2,1943.632,979.285,1969.9z"/>
<path style="fill:#FFFFFF;" d="M944.584,1960.731c0,0-18.342,3.549-23.78,19.785
	C920.804,1980.516,942.081,1983.789,944.584,1960.731z"/>
<path style="fill:#FFFFFF;" d="M940.205,1959.21c0,0-1.063,25.818,19.06,38.306C959.264,1997.516,970.443,1969.919,940.205,1959.21z
	"/>
<path style="fill:none;stroke:#FFFFFF;stroke-width:5;stroke-miterlimit:10;" d="M1265.882,1844.678c0,0,26.018,0.723,40.78-19.381"
	/>
<path style="fill:#FFFFFF;" d="M1300.837,1831.751c0,0-24.956,8.076-42.652-8.197
	C1258.185,1823.554,1282.123,1805.102,1300.837,1831.751z"/>
<path style="fill:#FFFFFF;" d="M1300.752,1833.867c0,0-26.658-13.994-27.51-41.574
	C1273.242,1792.293,1307.597,1797.123,1300.752,1833.867z"/>
<path style="fill:#FFFFFF;" d="M1327.935,1787.275c0,0-3.3,32.501-30.723,44.521
	C1297.212,1831.796,1288.172,1795.255,1327.935,1787.275z"/>
<path style="fill:#FFFFFF;" d="M1300.874,1826.017c0,0-3.926,24.283,13.681,38.363
	C1314.554,1864.38,1328.243,1839.561,1300.874,1826.017z"/>
<path style="fill:#FFFFFF;" d="M1297.008,1830.741c0,0,31.435,13.015,55.992-6.201
	C1353,1824.54,1323.951,1798.214,1297.008,1830.741z"/>
<path style="fill:none;stroke:#FFFFFF;stroke-width:5;stroke-miterlimit:10;" d="M137.708,1512.708c0,0,14.565,21.572,39.505,21.863
	"/>
<path style="fill:#FFFFFF;" d="M168.574,1533.594c0,0-21.1-15.584-18.177-39.446
	C150.397,1494.148,179.338,1502.861,168.574,1533.594z"/>
<path style="fill:#FFFFFF;" d="M166.804,1534.758c0,0-4.15-29.82,17.774-46.575C184.578,1488.182,200.66,1518.922,166.804,1534.758z
	"/>
<path style="fill:#FFFFFF;" d="M220.51,1529.72c0,0-28.343,16.246-54.084,0.954C166.426,1530.674,190.866,1502.043,220.51,1529.72z"
	/>
<path style="fill:#FFFFFF;" d="M173.256,1530.285c0,0-22.026,10.951-23.218,33.463
	C150.038,1563.748,178.186,1560.421,173.256,1530.285z"/>
<path style="fill:#FFFFFF;" d="M167.164,1529.894c0,0,7.728,33.133,37.65,41.905
	C204.814,1571.799,209.297,1532.852,167.164,1529.894z"/>
<g>
	<path style="fill:#FFFFFF;" d="M421.264,1135.866c-31.851-15.888-62.945-33.279-93.422-51.673
		c-30.469-18.405-60.31-37.884-89.081-58.871c-14.347-10.542-28.418-21.467-42.065-32.905c-6.836-5.703-13.544-11.562-20.127-17.555
		c-6.591-5.985-13.046-12.122-19.306-18.455c-12.545-12.631-24.411-25.981-34.937-40.356
		c-10.458-14.384-19.662-29.853-25.695-46.628c6.187,16.718,15.519,32.076,26.089,46.338c10.563,14.307,22.444,27.605,35.013,40.177
		c25.182,25.138,52.923,47.581,81.616,68.58c28.676,21.056,58.438,40.617,88.835,59.109c15.2,9.246,30.571,18.213,46.086,26.922
		C389.773,1119.283,405.397,1127.809,421.264,1135.866z"/>
</g>
<g>
	<path style="fill:#FFFFFF;" d="M495.943,1583.36c-33.746-11.319-66.952-24.231-99.684-38.221
		c-32.726-14.003-64.98-29.156-96.383-45.951c-15.67-8.45-31.12-17.319-46.221-26.755c-7.561-4.7-15.016-9.572-22.367-14.595
		c-7.357-5.014-14.601-10.197-21.678-15.6c-14.175-10.77-27.777-22.346-40.195-35.123c-12.352-12.795-23.611-26.839-31.912-42.615
		c8.445,15.698,19.816,29.615,32.262,42.274c12.445,12.704,26.054,24.227,40.246,34.934c28.424,21.404,59.009,39.783,90.337,56.601
		c31.318,16.876,63.505,32.122,96.172,46.221c16.336,7.049,32.801,13.799,49.374,20.272
		C462.457,1571.303,479.112,1577.581,495.943,1583.36z"/>
</g>
<g>
	<path style="fill:#FFFFFF;" d="M167,1612c-6.343-1.736-12.563-3.907-18.712-6.25c-6.128-2.401-12.162-5.044-18.086-7.92
		c-11.853-5.741-23.182-12.578-33.79-20.406c-10.511-7.943-20.277-16.967-28.449-27.332l-2.998-3.933
		c-0.961-1.338-1.866-2.718-2.801-4.074c-0.457-0.685-0.943-1.352-1.376-2.052l-1.275-2.118c-0.826-1.425-1.751-2.793-2.496-4.264
		c-3.177-5.779-5.705-11.878-7.87-18.083c2.319,6.152,4.991,12.169,8.297,17.844c0.769,1.448,1.704,2.802,2.548,4.207l1.297,2.089
		c0.441,0.691,0.934,1.348,1.398,2.023c0.949,1.337,1.867,2.695,2.842,4.013l3.035,3.868c4.177,5.047,8.561,9.937,13.371,14.397
		c4.792,4.472,9.813,8.701,15.075,12.615c10.505,7.855,21.79,14.65,33.531,20.52c5.864,2.95,11.849,5.663,17.927,8.155
		C154.546,1607.787,160.702,1610.108,167,1612z"/>
</g>
<g>
	<path style="fill:#FFFFFF;" d="M1126.5,1787.5c4.248,1.927,8.494,3.854,12.765,5.725c4.259,1.896,8.529,3.769,12.816,5.597
		c8.569,3.671,17.163,7.282,25.854,10.646c4.335,1.706,8.691,3.36,13.069,4.949c4.382,1.58,8.8,3.052,13.232,4.481
		c4.438,1.408,8.92,2.678,13.457,3.713c4.53,1.042,9.137,1.866,13.807,1.89c-4.671,0.204-9.332-0.527-13.91-1.41
		c-4.578-0.942-9.1-2.133-13.579-3.456c-8.954-2.67-17.731-5.879-26.44-9.236c-8.675-3.447-17.286-7.05-25.798-10.875
		C1143.263,1795.698,1134.815,1791.732,1126.5,1787.5z"/>
</g>
<path style="fill:#27304D;stroke:#FFFFFF;stroke-width:5;stroke-miterlimit:10;" d="M531.332,1902.371H0.498v-103.074h530.834
	c23.391,0,42.353,18.962,42.353,42.353v18.369C573.685,1883.41,554.723,1902.371,531.332,1902.371z"/>
<circle style="fill:#FFFFFF;" cx="500.5" cy="1850.5" r="12.5"/>
</svg>
