<?xml version="1.0" encoding="iso-8859-1"?>
<!-- Generator: Adobe Illustrator 25.0.1, SVG Export Plug-In . SVG Version: 6.00 Build 0)  -->
<svg version="1.1" xmlns="http://www.w3.org/2000/svg" xmlns:xlink="http://www.w3.org/1999/xlink" x="0px" y="0px"
	 viewBox="0 0 2250 2436" style="enable-background:new 0 0 2250 2436;" xml:space="preserve">
<g id="&#xB808;&#xC774;&#xC5B4;_1">
</g>
<g id="&#xB808;&#xC774;&#xC5B4;_2">
	<rect x="0.588" y="-0.055" style="fill:#FF6200;" width="2249.412" height="1225.546"/>
	<path style="fill:#FFFFFF;stroke:#FFFFFF;stroke-width:5;stroke-miterlimit:10;" d="M505.933,990.88
		c0,0,10.747-42.162,19.014-47.122l85.977-2.48c0,0,33.895,11.574,37.202,24.801l14.881,36.375L505.933,990.88z"/>
	<polygon style="fill:#FF6200;stroke:#FFFFFF;stroke-width:5;stroke-miterlimit:10;" points="480.718,991.984 480.718,1222.714 
		624.565,1222.714 624.565,987.16 	"/>
	<polygon style="fill:#FF6200;stroke:#FFFFFF;stroke-width:5;stroke-miterlimit:10;" points="624.565,987.16 720.464,1023.337 
		732.037,1222.714 624.565,1222.714 	"/>
	<path style="fill:#FFFFFF;" d="M456.106,632.495l-8.257,8.905l-2.482,7.407l14.655,12.464l4.74,1.589
		c0,0,3.597,49.954-20.874,71.277l-5.418-1.816l-22.065,2.904l-4.871,10.04l6.021,15.75l24.36-0.762
		c0,0,52.799-40.666,36.146-110.101l-15.238-17.466L456.106,632.495z"/>
	<path style="fill:none;stroke:#FFFFFF;stroke-width:3;stroke-miterlimit:10;" d="M428.223,758.576c0,0-4.134,23.975,12.401,20.668
		c16.534-3.307,21.494,7.44,9.92,14.054c-11.574,6.614-6.614,17.361,6.614,15.707c13.227-1.653,23.148,5.787,9.92,14.054
		c-13.227,8.267-10.747,15.707,1.653,14.881s21.494,4.96,10.747,13.227s-18.188,27.281,0,26.455
		c18.188-0.827,30.588,11.574,15.707,18.188c-14.881,6.614-18.188,26.455,0,24.801c18.188-1.653,25.628-1.653,21.494,9.921
		c-4.134,11.574,5.787,19.841,5.787,19.841"/>
	<polygon style="fill:#FFFFFF;" points="536.935,943.412 543.962,924.744 556.362,924.744 556.362,944.184 	"/>
	<polygon style="fill:#FFFFFF;" points="579.51,924.744 579.51,942.184 596.571,942.184 587.777,924.744 	"/>
	<polygon style="fill:#FFFFFF;" points="609.271,856.954 684.786,829.672 720.05,842.9 720.05,872.661 628.286,877.621 	"/>
	<path style="fill:none;stroke:#FFFFFF;stroke-width:15;stroke-miterlimit:10;" d="M696.489,861.914
		c0,0,50.429-23.148,47.122,20.668c-3.307,43.815-42.989,60.35-42.989,60.35l-4.134,242.225"/>
	<path style="fill:none;stroke:#FFFFFF;stroke-width:15;stroke-miterlimit:10;" d="M598.938,1225.252
		c0,0-9.094-39.682,29.761-40.509c38.855-0.827,150.461,0,150.461,0s29.761-8.267,27.281,40.509"/>
	
		<line style="fill:none;stroke:#FFFFFF;stroke-width:15;stroke-miterlimit:10;" x1="736.171" y1="1188.876" x2="736.171" y2="1225.252"/>
	<path style="fill:#FFFFFF;stroke:#FF6200;stroke-width:5;stroke-miterlimit:10;" d="M435.259,672.137L435.259,672.137
		l-9.516-43.354c0,0-6.391-18.795-22.935-36.759c-15.384-22.715-41.396-37.644-70.896-37.644c-21.272,0-40.729,7.766-55.697,20.613
		l-0.105,0.055c0,0-0.02,0.031-0.05,0.077c-9.517,8.208-17.205,18.477-22.375,30.113c-12.405,15.162-29,33.195-47.306,47.037
		c-4.456,2.011-8.546,4.334-12.158,6.939c-11.03,7.957-17.73,18.437-17.73,29.92c0,24.883,31.461,45.056,70.27,45.056
		c20.892,0,39.644-5.852,52.515-15.131c10.058,4.154,21.078,6.451,32.636,6.451c23.041,0,43.952-9.11,59.336-23.921
		c4.337,9.378,12.238,15.654,21.268,15.654c13.697,0,24.801-14.435,24.801-32.242C437.316,680.425,436.579,676.078,435.259,672.137z
		"/>
	<path style="fill:#FF6200;stroke:#FFFFFF;stroke-width:5;stroke-miterlimit:10;" d="M342.248,574.633
		c-35.946,0-65.999,26.259-73.449,61.362c-2.886-0.75-6.003-1.159-9.257-1.159c-14.821,0-26.835,8.492-26.835,18.968
		c0,10.476,12.015,18.968,26.835,18.968c3.385,0,6.62-0.447,9.603-1.256c7.996,34.321,37.689,59.809,73.103,59.809
		c41.547,0,75.227-35.077,75.227-78.346C417.475,609.71,383.795,574.633,342.248,574.633z"/>
	<ellipse style="fill:#FFFFFF;" cx="356.791" cy="643.922" rx="5.887" ry="10.869"/>
	<ellipse style="fill:#FFFFFF;" cx="395.285" cy="645.28" rx="5.434" ry="12.227"/>
	<polyline style="fill:#FFFFFF;" points="377.623,650.715 381.246,676.075 370.377,680.604 	"/>
	<path style="fill:none;stroke:#FFFFFF;stroke-width:5;stroke-linecap:round;stroke-miterlimit:10;" d="M250.743,655.041
		c0,0,14.078-6.598,25.516,0"/>
	<path style="fill:#FFFFFF;" d="M260.814,635.318c0,0,80.308,12.127,120.286-51.266l-10.317-16.446h-67.345L260.814,635.318z"/>
	<path style="fill:#FF6200;stroke:#FFFFFF;stroke-width:6;stroke-miterlimit:10;" d="M668.381,797.017c0,0,6.614-17.361-9.92-14.881
		l-34.722,12.401c0,0,2.48-16.534-9.92-12.401l-25.628,44.642l0.989,1.272c-8.697,5.736-101.255,63.948-171.704-8.185
		l-40.922,42.461c0,0,6.614,61.176,105.818,57.87c89.732-2.991,128.057-47.913,134.559-56.466l0.194,0.25l62.83-8.267
		C679.955,855.714,696.489,808.591,668.381,797.017z"/>
	<path style="fill:#FF6200;stroke:#FFFFFF;stroke-width:6;stroke-miterlimit:10;" d="M506.346,1026.979
		c-27.777-20.792-59.783-21.831-71.476-21.415L341.418,988.4l-165.341,21.929c0,0-16.534,52.792,12.401,54.416l135.062,4.396
		l-1.135,4.55l-38.029,147.804l151.701,1.218h81.017C517.094,1222.714,541.068,1052.968,506.346,1026.979z"/>
	<path style="fill:#FFFFFF;stroke:#FF6200;stroke-width:5;stroke-miterlimit:10;" d="M302.977,1039.243"/>
	<circle style="fill:#FF6200;" cx="252.547" cy="882.995" r="10.334"/>
	<circle style="fill:#FF6200;" cx="252.547" cy="952.438" r="10.334"/>
	<g>
		<path style="fill:#FFFFFF;" d="M356.712,677.145c-2.644,0.638-4.98,1.737-7.183,3.009c-2.199,1.282-4.207,2.834-6.117,4.511
			c-1.942,1.648-3.657,3.568-5.438,5.467c-0.85,0.985-1.706,1.982-2.594,2.972c-0.839,1.026-1.676,2.065-2.642,3.055
			c0.38-1.309,0.89-2.569,1.398-3.843c0.623-1.203,1.231-2.436,1.952-3.601c0.382-0.568,0.771-1.134,1.171-1.693l0.602-0.839
			l0.67-0.789l1.375-1.554c0.495-0.485,1.014-0.95,1.523-1.424c2.088-1.833,4.47-3.391,7.095-4.387
			C351.135,677.077,354.009,676.523,356.712,677.145z"/>
	</g>
	<path style="fill:#FFFFFF;" d="M424.916,819.118l-48.776-67.156l-39.147-5.012l0,0l-51.34-12.349
		c0,0-117.843-23.974-117.843,201.716v78.537l202.543,5.787l-6.632-142.312l8.285-5.669L424.916,819.118z"/>
	<path style="fill:#FF6200;" d="M216.586,1123.153"/>
	<g>
		<path style="fill:#FFFFFF;" d="M37.604,497.75c10.356-5.731,20.703-11.48,31.101-17.131l31.156-17.026l15.579-8.511l15.614-8.444
			l31.236-16.875l6.797-3.672l-4.047,6.627l-20.805,34.066l-20.876,34.023l-20.914,33.999L81.427,568.74l-3.845-4.145l32.421-17
			l32.467-16.912l32.476-16.894l32.514-16.821l11-5.69l-7.543,9.789l-34.565,44.86l-34.705,44.754l-2.402-2.886l34.507-16.968
			l34.582-16.821l1.698-0.826l-0.442,1.807l-5.745,23.476l-5.861,23.45l4.886-23.672l5.003-23.646l1.256,0.981l-34.035,17.901
			l-34.109,17.754l-7.466,3.886l5.063-6.772l33.912-45.357l34.052-45.251l3.457,4.099l-32.382,17.074l-32.42,17.001l-32.43,16.983
			L80.296,569.79l-9.531,4.958l5.686-9.103l21.146-33.854l21.247-33.791l21.286-33.767l21.357-33.724l2.749,2.955l-31.594,16.193
			l-15.801,8.09l-15.836,8.023l-31.674,16.043C58.787,487.184,48.191,492.457,37.604,497.75z"/>
	</g>
	<path style="fill:#FF6200;stroke:#FFFFFF;stroke-width:5;stroke-miterlimit:10;" d="M270.958,993.36H106.824
		c-23.391,0-42.353-18.962-42.353-42.353v-78.982c0-23.391,18.962-42.353,42.353-42.353h164.133
		c23.391,0,42.353,18.962,42.353,42.353v78.982C313.31,974.398,294.348,993.36,270.958,993.36z"/>
	<rect x="110.767" y="993.36" style="fill:#FFFFFF;" width="23.974" height="67.79"/>
	<rect x="236.427" y="992.534" style="fill:#FFFFFF;" width="23.974" height="67.79"/>
	<path style="fill:#FFFFFF;" d="M454.264,1100.005H96.3c-12.556,0-22.734-10.178-22.734-22.734l0,0
		c0-12.556,10.179-22.734,22.734-22.734h357.964c12.556,0,22.734,10.179,22.734,22.734l0,0
		C476.998,1089.827,466.82,1100.005,454.264,1100.005z"/>
	<rect x="100.847" y="1086.778" style="fill:#FFFFFF;" width="30.588" height="139.713"/>
	<rect x="248.001" y="1086.778" style="fill:#FFFFFF;" width="30.588" height="139.713"/>
	<rect x="417.475" y="1086.778" style="fill:#FFFFFF;" width="30.588" height="139.713"/>
	<rect x="343.072" y="1086.778" style="fill:#FFFFFF;" width="30.588" height="139.713"/>
	<circle style="fill:#FFFFFF;" cx="121.101" cy="878.035" r="10.334"/>
	<circle style="fill:#FFFFFF;" cx="122.754" cy="947.478" r="10.334"/>
	<circle style="fill:#FFFFFF;" cx="252.547" cy="882.995" r="10.334"/>
	<circle style="fill:#FFFFFF;" cx="252.547" cy="952.438" r="10.334"/>
	<g>
		<path style="fill:#FFFFFF;" d="M355.65,698.075c1.168-0.489,2.35-0.912,3.531-1.338c1.187-0.397,2.37-0.812,3.563-1.178
			c2.385-0.739,4.775-1.45,7.183-2.075l1.036-0.269l0.718,1.034c2.399,3.453,4.669,6.985,6.848,10.572l-2.432-0.815
			c4.487-1.741,9.022-3.357,13.643-4.759l1.395-0.423l0.427,1.17c0.323,0.884,0.601,1.788,0.904,2.681
			c0.299,0.895,0.597,1.79,0.862,2.699c0.556,1.808,1.074,3.633,1.503,5.497c-1.095-1.569-2.1-3.178-3.067-4.803
			c-0.497-0.807-0.96-1.629-1.422-2.451c-0.459-0.824-0.942-1.637-1.381-2.469l1.822,0.747c-4.335,2.125-8.755,4.036-13.224,5.822
			l-1.549,0.619l-0.883-1.434c-2.201-3.574-4.312-7.203-6.293-10.911l1.754,0.765c-2.461,0.361-4.94,0.635-7.425,0.88
			c-1.242,0.126-2.493,0.204-3.741,0.299C358.17,698.002,356.917,698.072,355.65,698.075z"/>
	</g>
	<rect x="1.221" y="1212.58" style="fill:#FFFFFF;" width="2248.779" height="1224.133"/>
	<polygon style="fill:#FF6200;" points="616.81,2066.571 692.728,2039.144 728.18,2052.442 728.18,2082.362 635.926,2087.349 	"/>
	<path style="fill:none;stroke:#FF6200;stroke-width:15;stroke-miterlimit:10;" d="M704.493,2071.557
		c0,0,50.698-23.271,47.374,20.778c-3.324,44.05-43.218,60.672-43.218,60.672l-4.156,243.519"/>
	<path style="fill:none;stroke:#FF6200;stroke-width:15;stroke-miterlimit:10;" d="M606.421,2436.836c0,0-9.142-39.894,29.92-40.725
		c39.063-0.831,151.264,0,151.264,0s29.92-8.311,27.427,40.725"/>
	
		<line style="fill:none;stroke:#FF6200;stroke-width:15;stroke-miterlimit:10;" x1="744.387" y1="2400.267" x2="744.387" y2="2436.836"/>
	<path style="fill:#FFFFFF;stroke:#FF6200;stroke-width:5;stroke-miterlimit:10;" d="M510.301,2238.07
		c-27.925-21.277-60.102-22.34-71.858-21.915l-93.951-17.564l-166.225,22.44c0,0-16.622,54.023,12.467,55.685l135.783,4.499
		l-1.141,4.656l-38.232,151.252l152.511,1.247h81.45C521.105,2438.371,545.208,2264.666,510.301,2238.07z"/>
	<g>
		<path style="fill:#FF6200;" d="M359.867,1885.674c-2.641,1.053-4.805,2.355-6.889,3.728c-2.07,1.384-3.965,2.941-5.826,4.576
			c-1.891,1.604-3.621,3.436-5.5,5.221c-0.909,0.923-1.813,1.874-2.819,2.781c-0.936,0.96-1.915,1.913-3.069,2.81
			c0.2-1.415,0.575-2.773,0.993-4.124c0.513-1.297,1.081-2.589,1.751-3.827c0.362-0.602,0.735-1.203,1.126-1.791
			c0.369-0.606,0.796-1.17,1.257-1.714c0.451-0.551,0.925-1.083,1.389-1.625c0.507-0.504,1.041-0.988,1.564-1.479
			c2.158-1.894,4.676-3.463,7.457-4.369c1.398-0.429,2.824-0.754,4.287-0.802C357.036,1885.006,358.522,1885.117,359.867,1885.674z"
			/>
	</g>
	<path style="fill:#FF6200;" d="M428.175,2029.59l-49.036-67.515l-39.356-5.039l0,0l-51.614-12.415
		c0,0-118.473-24.103-118.473,202.794v78.957l203.625,5.818l-6.667-143.072l8.329-5.699L428.175,2029.59z"/>
	<path style="fill:#FFFFFF;stroke:#FF6200;stroke-width:6;stroke-miterlimit:10;" d="M636.522,2062.96l-175.82-38.662
		c-12.184-2.679-20.276-14.258-18.603-26.621l12.342-91.203c1.874-13.847,15.149-23.162,28.808-20.212l183.33,39.587
		c12.973,2.801,21.199,15.611,18.348,28.573l-19.852,90.279C662.233,2057.627,649.449,2065.802,636.522,2062.96z"/>
	<polygon style="fill:#FF6200;" points="481.269,1908.814 470.822,1954.806 548.696,1969.285 560.092,1924.145 	"/>
	<polygon style="fill:#FF6200;" points="579.001,1927.847 568.555,1973.839 646.429,1988.318 657.825,1943.177 	"/>
	<path style="fill:#FF6200;" d="M438.833,1880.639L438.833,1880.639l-9.567-43.586c0,0-6.425-18.895-23.058-36.956
		c-15.466-22.836-41.617-37.845-71.274-37.845c-21.386,0-40.947,7.807-55.995,20.723l-0.106,0.055c0,0-0.02,0.031-0.05,0.077
		c-9.568,8.252-17.297,18.576-22.494,30.274c-12.471,15.243-29.155,33.372-47.559,47.288c-4.48,2.022-8.592,4.357-12.223,6.976
		c-11.089,8-17.824,18.535-17.824,30.079c0,25.016,31.629,45.296,70.645,45.296c21.003,0,39.855-5.883,52.795-15.212
		c10.111,4.176,21.19,6.485,32.81,6.485c23.164,0,44.187-9.159,59.653-24.049c4.36,9.428,12.303,15.738,21.382,15.738
		c13.77,0,24.934-14.512,24.934-32.414C440.902,1888.972,440.161,1884.601,438.833,1880.639z"/>
	<path style="fill:#FFFFFF;stroke:#FF6200;stroke-width:5;stroke-miterlimit:10;" d="M345.326,1782.615
		c-36.138,0-66.351,26.399-73.842,61.689c-2.901-0.754-6.036-1.165-9.306-1.165c-14.9,0-26.979,8.537-26.979,19.069
		c0,10.532,12.079,19.069,26.979,19.069c3.403,0,6.656-0.45,9.654-1.262c8.039,34.505,37.891,60.128,73.494,60.128
		c41.769,0,75.629-35.264,75.629-78.764S387.094,1782.615,345.326,1782.615z"/>
	<ellipse style="fill:#FF6200;" cx="359.947" cy="1852.273" rx="5.919" ry="10.927"/>
	<ellipse style="fill:#FF6200;" cx="398.646" cy="1853.639" rx="5.463" ry="12.293"/>
	<polyline style="fill:#FF6200;" points="380.89,1859.102 384.532,1884.598 373.605,1889.151 	"/>
	<g>
		<path style="fill:#FF6200;" d="M253.332,1863.452c1.786-1.464,3.882-2.442,6.043-3.189c2.174-0.722,4.463-1.139,6.782-1.229
			c2.318-0.113,4.673,0.237,6.898,0.917c2.231,0.686,4.286,1.923,5.929,3.501c-2.266-0.481-4.31-1.015-6.435-1.197
			c-2.103-0.201-4.184-0.322-6.292-0.224c-2.103,0.08-4.216,0.261-6.357,0.523C257.755,1862.809,255.602,1863.141,253.332,1863.452z
			"/>
	</g>
	<path style="fill:#FF6200;" d="M261.795,1841.624c0,0,78.297,11.164,117.274-47.194l-10.059-15.14h-65.659L261.795,1841.624z"/>
	<path style="fill:#FFFFFF;stroke:#FF6200;stroke-width:5;stroke-miterlimit:10;" d="M305.844,2249.706"/>
	<g>
		<path style="fill:#FFFFFF;stroke:#FF6200;stroke-width:5;stroke-miterlimit:10;" d="M278.036,2208.565H112.574
			c-23.391,0-42.353-18.962-42.353-42.353v-79.857c0-23.391,18.962-42.353,42.353-42.353h165.462
			c23.391,0,42.353,18.962,42.353,42.353v79.857C320.389,2189.603,301.427,2208.565,278.036,2208.565z"/>
		<rect x="116.764" y="2208.565" style="fill:#FF6200;" width="24.103" height="68.152"/>
		<rect x="243.095" y="2207.734" style="fill:#FF6200;" width="24.103" height="68.152"/>
		<path style="fill:#FF6200;" d="M462.86,2315.78H101.455c-12.201,0-22.091-9.891-22.091-22.091v-1.53
			c0-12.2,9.891-22.091,22.091-22.091H462.86c12.201,0,22.091,9.891,22.091,22.091v1.53
			C484.951,2305.889,475.061,2315.78,462.86,2315.78z"/>
		<rect x="106.79" y="2302.482" style="fill:#FF6200;" width="30.752" height="140.46"/>
		<rect x="254.73" y="2302.482" style="fill:#FF6200;" width="30.752" height="140.46"/>
		<rect x="425.11" y="2302.482" style="fill:#FF6200;" width="30.752" height="140.46"/>
		<rect x="350.309" y="2302.482" style="fill:#FF6200;" width="30.752" height="140.46"/>
	</g>
	<g>
		<path style="fill:#FF6200;" d="M344.114,1884.843c0.039,3.091,0.826,6.019,2.216,8.528c0.695,1.251,1.476,2.434,2.43,3.475
			c0.436,0.547,0.986,1.007,1.457,1.516c0.549,0.448,1.051,0.93,1.62,1.347c4.493,3.409,10.042,5.371,15.738,6.723
			c5.725,1.33,11.66,2.105,17.664,2.666c6.01,0.576,12.088,0.896,18.263,1.51c-6.023,1.463-12.179,2.23-18.393,2.42
			c-6.209,0.164-12.502-0.286-18.692-1.732c-3.081-0.772-6.159-1.699-9.08-3.129c-2.918-1.401-5.722-3.193-8.09-5.518
			c-2.375-2.298-4.237-5.215-5.178-8.358C343.148,1891.153,343.052,1887.785,344.114,1884.843z"/>
	</g>
	<circle style="fill:#FF6200;" cx="127.153" cy="2092.624" r="10.389"/>
	<circle style="fill:#FF6200;" cx="128.815" cy="2162.438" r="10.389"/>
	<circle style="fill:#FF6200;" cx="255.146" cy="2092.624" r="10.389"/>
	<circle style="fill:#FF6200;" cx="255.146" cy="2162.438" r="10.389"/>
	<g>
		<path style="fill:#FF6200;" d="M352.387,1875.7c-2.65,0.843-4.906,2.051-7.056,3.374c-2.141,1.336-4.099,2.895-5.989,4.555
			c-1.922,1.63-3.649,3.512-5.483,5.36c-0.886,0.954-1.755,1.939-2.713,2.885c-0.898,0.99-1.793,1.999-2.861,2.942
			c0.286-1.368,0.745-2.671,1.201-3.992c0.561-1.259,1.163-2.516,1.857-3.723c0.373-0.587,0.755-1.171,1.152-1.746l0.597-0.863
			l0.67-0.812l1.386-1.594c0.503-0.496,1.03-0.971,1.547-1.455c2.128-1.868,4.584-3.436,7.294-4.39
			c1.362-0.453,2.751-0.817,4.183-0.918C349.591,1875.227,351.041,1875.242,352.387,1875.7z"/>
	</g>
	<polygon style="fill:#FF6200;" points="470.822,1969.202 547.285,1981.669 534.819,2024.887 465.835,2007.433 	"/>
	<polygon style="fill:#FF6200;" points="563.908,1985.824 553.103,2027.38 626.242,2043.172 642.865,2003.278 	"/>
	<path style="fill:#FFFFFF;stroke:#FF6200;stroke-width:5;stroke-miterlimit:10;" d="M673.201,2006.187
		c0,0,6.649-17.454-9.974-14.96l-34.907,12.467c0,0,2.493-16.622-9.973-12.467l-25.765,44.881l0.995,1.279
		c-8.743,5.767-101.795,64.289-172.621-8.229l-41.141,42.688c0,0,6.649,61.503,106.384,58.178
		c90.211-3.007,128.741-48.169,135.278-56.767l0.195,0.251l63.165-8.311C684.836,2065.197,701.459,2017.823,673.201,2006.187z"/>
	<circle style="fill:#FFFFFF;" cx="515.703" cy="1934.295" r="9.973"/>
	<circle style="fill:#FFFFFF;" cx="611.282" cy="1954.242" r="9.973"/>
	<ellipse style="fill:#FFFFFF;" cx="503.652" cy="1990.811" rx="7.896" ry="8.311"/>
	<polygon style="fill:#FFFFFF;" points="492.198,1960.449 506.56,1947.593 518.196,1950.086 521.521,1969.202 	"/>
	<polygon style="fill:#FFFFFF;" points="588.842,1982.5 587.179,1943.437 592.166,1939.281 595.491,1964.215 619.593,1975.02 
		614.606,1985.824 	"/>
	<polygon style="fill:#FFFFFF;" points="483.577,2011.922 492.431,2000.784 508.223,2004.109 511.547,2024.887 479.965,2017.407 	
		"/>
	
		<ellipse transform="matrix(0.9623 -0.2718 0.2718 0.9623 -488.3544 92.1735)" style="fill:#FF6200;" cx="88.534" cy="1808.858" rx="13.555" ry="5.761"/>
	<path style="fill:none;stroke:#FF6200;stroke-width:5;stroke-miterlimit:10;" d="M94.595,1805.385l-5.975-56.062
		c0,0,26.737,24.844,17.108,38.128"/>
	<ellipse style="fill:#FF6200;" cx="232.034" cy="1703.187" rx="13.576" ry="5.77"/>
	<ellipse style="fill:#FF6200;" cx="269.629" cy="1707.446" rx="13.576" ry="5.77"/>
	<polyline style="fill:none;stroke:#FF6200;stroke-width:5;stroke-miterlimit:10;" points="240.779,1701.337 240.779,1648.388 
		274.72,1670.79 274.72,1707.446 	"/>
	
		<line style="fill:none;stroke:#FF6200;stroke-width:5;stroke-miterlimit:10;" x1="240.609" y1="1663.522" x2="274.72" y2="1680.759"/>
	<g>
		<path style="fill:#FF6200;" d="M140.451,1803.393c2.034-2.055,4.542-3.634,7.334-4.753c2.783-1.077,6.079-1.562,9.32-0.62
			c3.237,0.924,5.981,3.283,7.703,5.938c0.927,1.317,1.576,2.737,2.208,4.15l0.779,2.13c0.233,0.589,0.424,1.206,0.684,1.773
			c0.273,0.555,0.482,1.16,0.807,1.669l0.447,0.797l0.512,0.733c0.311,0.519,0.731,0.919,1.099,1.378
			c0.419,0.396,0.823,0.815,1.287,1.153c1.789,1.451,4.105,2.218,6.626,2.496c2.53,0.257,5.228,0.004,7.924-0.499
			c2.711-0.494,5.404-1.293,8.124-2.216c-2.182,1.896-4.713,3.354-7.395,4.56c-2.701,1.157-5.635,1.971-8.769,2.084
			c-3.104,0.102-6.511-0.635-9.286-2.581c-2.831-1.884-4.721-4.751-5.973-7.612c-0.315-0.724-0.541-1.463-0.811-2.195l-0.643-1.866
			c-0.469-1.189-0.974-2.365-1.609-3.411c-1.221-2.15-2.893-3.824-5.015-4.787c-2.126-0.969-4.743-1.111-7.386-0.717
			C145.755,1801.373,143.084,1802.261,140.451,1803.393z"/>
	</g>
	<ellipse style="fill:#FF6200;" cx="782.701" cy="1934.295" rx="34.699" ry="26.301"/>
	<polygon style="fill:#FF6200;" points="762.131,1930.555 768.78,1950.501 719.743,1950.501 	"/>
	
		<ellipse transform="matrix(0.4207 -0.9072 0.9072 0.4207 -1370.5571 1879.9795)" style="fill:#FF6200;" cx="786.844" cy="2013.208" rx="21.384" ry="31.706"/>
	<polygon style="fill:#FF6200;" points="768.946,1997.634 768.758,2013.841 724.273,1993.21 	"/>
	<polygon style="fill:#FF6200;" points="587.179,1832.482 611.282,1836.638 587.179,1887.336 	"/>
	<path style="fill:#FF6200;" d="M704.116,1839.547H519.279c-12.991,0-23.523-10.531-23.523-23.523v-12.795
		c0-12.991,10.531-23.523,23.523-23.523h184.838c12.991,0,23.523,10.531,23.523,23.523v12.795
		C727.639,1829.015,717.108,1839.547,704.116,1839.547z"/>
	<g>
		<path style="fill:#FFFFFF;" d="M526.466,1807.333h-1.391v-8.062h7.206v1.873h-4.834v4.317c0.214,0.018,0.464,0.018,0.696,0.018
			c1.641,0,3.621-0.143,4.905-0.356c0.089,0.588,0.143,1.177,0.214,1.766C531.354,1807.244,527.661,1807.333,526.466,1807.333z
			 M535.135,1814.236v-3.87h-8.473v-1.855h10.845v5.726H535.135z M535.117,1807.815v-3.871h-3.764v-1.891h3.764v-3.729h2.373v9.49
			H535.117z"/>
		<path style="fill:#FFFFFF;" d="M550.049,1811.258c-2.658,0.446-7.046,0.695-9.989,0.695l-0.25-1.998
			c3.3,0.019,6.6-0.089,10.042-0.445L550.049,1811.258z M540.149,1803.23v-1.766h9.347v1.766H540.149z M544.93,1809.277
			c-2.283,0-3.835-1.248-3.835-2.836c0-1.605,1.516-2.836,3.835-2.836c2.247,0,3.835,1.23,3.835,2.836
			C548.765,1808.029,547.177,1809.277,544.93,1809.277z M542.646,1799.146h4.513v1.766h-4.513V1799.146z M544.93,1805.371
			c-0.874,0-1.499,0.464-1.499,1.088c0,0.606,0.625,1.07,1.499,1.07c0.838,0,1.48-0.464,1.48-1.07
			C546.41,1805.835,545.768,1805.371,544.93,1805.371z M553.063,1814.219h-2.354v-15.894h2.354V1814.219z"/>
		<path style="fill:#FFFFFF;" d="M557.328,1806.549h-1.284v-7.385h2.337v5.369h0.463c1.588,0,4.246-0.268,6.011-0.625
			c0.071,0.643,0.179,1.285,0.25,1.944C563.019,1806.335,559.237,1806.549,557.328,1806.549z M557.863,1814.022v-6.118h10.471v6.118
			H557.863z M565.962,1809.688h-5.708v2.532h5.708V1809.688z M568.352,1798.325v8.776h-2.39v-8.776H568.352z"/>
		<path style="fill:#FFFFFF;" d="M575.186,1799.342c2.641,0,4.192,2.408,4.192,5.744c0,3.265-1.552,5.69-4.192,5.69
			c-2.604,0-4.156-2.408-4.156-5.69C571.029,1801.75,572.581,1799.342,575.186,1799.342z M575.186,1801.43
			c-1.07,0-1.908,1.23-1.908,3.656c0,2.391,0.838,3.639,1.908,3.639c1.142,0,1.98-1.248,1.98-3.639
			C577.166,1802.66,576.327,1801.43,575.186,1801.43z M581.446,1814.219v-15.894h2.355v15.894H581.446z"/>
		<path style="fill:#FFFFFF;" d="M595.47,1799.039c2.426,0,4.299,1.48,4.299,3.692s-1.873,3.728-4.299,3.728
			c-2.391,0-4.246-1.516-4.246-3.728S593.079,1799.039,595.47,1799.039z M593.258,1814.022v-6.564h2.372v1.552h5.904v-1.552h2.372
			v6.564H593.258z M595.47,1804.533c1.177,0,2.033-0.749,2.033-1.784c0-1.034-0.874-1.819-2.033-1.819
			c-1.142,0-1.98,0.768-1.98,1.819C593.489,1803.784,594.328,1804.533,595.47,1804.533z M601.534,1810.83h-5.904v1.337h5.904
			V1810.83z M601.534,1806.745v-8.42h2.391v8.42H601.534z"/>
		<path style="fill:#FFFFFF;" d="M606.441,1799.307h8.384v1.908H611.9c0.249,2.212,1.748,3.586,3.603,4.21l-1.267,1.855
			c-1.213-0.393-2.907-1.784-3.496-3.104c-0.41,1.409-2.266,2.943-3.799,3.425l-1.195-1.872c2.229-0.75,3.567-2.283,3.728-4.514
			h-3.032V1799.307z M613.166,1814.111c-3.496,0-5.601-1.23-5.601-3.192c0-1.998,2.104-3.265,5.601-3.265
			c3.515,0,5.637,1.267,5.637,3.265C618.803,1812.881,616.681,1814.111,613.166,1814.111z M609.956,1810.919
			c0,0.803,1.194,1.338,3.21,1.338c2.087,0,3.229-0.535,3.229-1.338s-1.142-1.355-3.229-1.355
			C611.15,1809.563,609.956,1810.08,609.956,1810.919z M618.643,1804.104v3.354h-2.337v-9.133h2.337v3.871h2.212v1.908H618.643z"/>
		<path style="fill:#FFFFFF;" d="M621.463,1803.962v-1.854h9.24v1.854H621.463z M626.172,1804.497c2.177,0,3.906,1.355,3.906,3.407
			c0,2.069-1.729,3.425-3.906,3.425c-2.193,0-3.87-1.374-3.87-3.425C622.302,1805.835,623.979,1804.497,626.172,1804.497z
			 M623.746,1799.289h4.905v1.891h-4.905V1799.289z M626.172,1809.635c0.964,0,1.802-0.678,1.802-1.73
			c0-1.034-0.803-1.73-1.802-1.73s-1.783,0.696-1.783,1.73C624.389,1808.957,625.173,1809.635,626.172,1809.635z M634.074,1804.782
			h2.158v1.927h-2.158v7.51h-2.354v-15.894h2.354V1804.782z"/>
		<path style="fill:#FFFFFF;" d="M645.261,1807.315c-1.213-0.428-2.837-1.73-3.407-3.05c-0.481,1.391-2.229,2.996-3.781,3.55
			l-1.195-1.944c2.372-0.856,3.604-2.604,3.746-4.959v-1.766h2.426v1.641c0.178,2.497,1.444,3.96,3.425,4.638L645.261,1807.315z
			 M641.836,1811.418c-0.464,1.284-1.927,2.516-3.247,2.943c-0.428-0.589-0.838-1.177-1.248-1.783
			c1.891-0.66,3.175-2.123,3.175-4.121v-0.57h2.319v0.553c0,1.355,0.945,2.266,1.854,2.658c-0.499,0.553-1.017,1.123-1.498,1.712
			C642.656,1812.542,642.067,1811.936,641.836,1811.418z M647.508,1811.668c-0.321,0.999-1.534,2.247-2.89,2.926
			c-0.428-0.554-0.856-1.07-1.284-1.605c1.962-0.893,2.961-2.391,2.961-4.424v-0.678h2.337v0.713c0,1.963,1.124,3.282,2.89,3.854
			l-1.267,1.837C649.167,1813.915,647.829,1812.649,647.508,1811.668z M647.829,1807.19v-2.354h-2.123v-1.837h2.123v-0.963h-2.123
			v-1.838h2.123v-1.873h2.408v8.865H647.829z"/>
		<path style="fill:#FFFFFF;" d="M652.451,1807.155v-1.855h14.359v1.855H652.451z M654.021,1804.551l-0.909-1.819
			c2.818-0.304,5.315-1.677,5.315-4.031v-0.143h2.391v0.143c0,2.354,2.407,3.639,5.315,3.96l-0.893,1.837
			c-2.193-0.268-4.69-1.355-5.618-3.211C658.694,1803.142,656.161,1804.301,654.021,1804.551z M654.253,1813.951v-6.064h2.337v1.391
			h6.064v-1.391h2.354v6.064H654.253z M662.654,1811.044h-6.064v1.088h6.064V1811.044z"/>
		<path style="fill:#FFFFFF;" d="M670.273,1810.455h-1.588v-10.578h2.337v8.455h0.66c1.658,0,3.978-0.16,5.797-0.553
			c0.071,0.66,0.143,1.32,0.231,1.98C675.695,1810.241,672.271,1810.455,670.273,1810.455z M681.101,1814.219h-2.337v-15.894h2.337
			V1814.219z"/>
		<path style="fill:#FFFFFF;" d="M686.65,1808.671c1.766,0,4.245-0.178,5.743-0.481c0.071,0.643,0.143,1.284,0.232,1.927
			c-1.463,0.285-4.478,0.535-7.332,0.535h-1.391v-10.898h7.313v1.908h-4.977v7.01H686.65z M695.765,1804.266h2.212v1.926h-2.212
			v8.027h-2.336v-15.894h2.336V1804.266z"/>
		<path style="fill:#FFFFFF;" d="M699.264,1810.205h2.408v2.283h-2.408V1810.205z"/>
	</g>
</g>
</svg>
