<?xml version="1.0" encoding="iso-8859-1"?>
<!-- Generator: Adobe Illustrator 25.0.1, SVG Export Plug-In . SVG Version: 6.00 Build 0)  -->
<svg version="1.1" id="&#xB808;&#xC774;&#xC5B4;_1" xmlns="http://www.w3.org/2000/svg" xmlns:xlink="http://www.w3.org/1999/xlink"
	 x="0px" y="0px" viewBox="0 0 1920 2160" style="enable-background:new 0 0 1920 2160;" xml:space="preserve">
<g id="&#xB808;&#xC774;&#xC5B4;_2_1_">
	<rect style="fill:#FFFFFF;" width="1920" height="2161"/>
</g>
<g id="&#xB808;&#xC774;&#xC5B4;_1_1_">
	<polygon style="fill:#FF6200;" points="935.651,1714.154 1026.995,1681.154 1069.651,1697.154 1069.651,1733.154 958.651,1739.154 
			"/>
	<path style="fill:none;stroke:#FF6200;stroke-width:15;stroke-miterlimit:10;" d="M1041.151,1720.154c0,0,61-28,57,25s-52,73-52,73
		l-5,293"/>
	<path style="fill:none;stroke:#FF6200;stroke-width:15;stroke-miterlimit:10;" d="M923.151,2159.654c0,0-11-48,36-49s182,0,182,0
		s36-10,33,49"/>
	
		<line style="fill:none;stroke:#FF6200;stroke-width:15;stroke-miterlimit:10;" x1="1089.151" y1="2115.654" x2="1089.151" y2="2159.654"/>
	<path style="fill:#FFFFFF;stroke:#FF6200;stroke-width:5;stroke-miterlimit:10;" d="M807.5,1920.5
		c-33.6-25.6-72.314-26.88-86.459-26.368L608,1873l-200,27c0,0-20,65,15,67l163.374,5.413l-1.374,5.602L539,2160l183.5,1.5h98
		C820.5,2161.5,849.5,1952.5,807.5,1920.5z"/>
	<g>
		<path style="fill:#FF6200;" d="M626.5,1496.5c-1.609,0.522-3.057,1.16-4.456,1.863c-1.402,0.672-2.718,1.47-4.003,2.263
			c-2.563,1.617-4.907,3.491-7.176,5.485l-1.696,1.514c-0.544,0.535-1.078,1.08-1.636,1.607l-0.837,0.792
			c-0.256,0.288-0.525,0.565-0.793,0.845c-0.53,0.564-1.079,1.116-1.639,1.665c-1.07,1.142-2.123,2.321-3.283,3.452
			c-1.074,1.194-2.19,2.383-3.482,3.514c0.337-1.65,0.85-3.242,1.405-4.829c0.667-1.522,1.385-3.041,2.216-4.499
			c0.447-0.709,0.905-1.415,1.381-2.109l0.717-1.043l0.806-0.98c0.544-0.65,1.111-1.281,1.668-1.923
			c0.606-0.598,1.241-1.172,1.865-1.755c2.566-2.252,5.533-4.139,8.806-5.278c1.645-0.541,3.324-0.97,5.052-1.084
			C623.125,1495.877,624.882,1495.94,626.5,1496.5z"/>
	</g>
	<path style="fill:#FF6200;" d="M708.687,1669.659l-59-81.233l-47.353-6.063l0,0l-62.102-14.937c0,0-142.545-29-142.545,244v95
		l245,7l-8.022-172.143l10.022-6.857L708.687,1669.659z"/>
	<path style="fill:#FFFFFF;stroke:#FF6200;stroke-width:6;stroke-miterlimit:10;" d="M959.368,1709.809l-211.545-46.518
		c-14.66-3.224-24.395-17.155-22.382-32.03l14.85-109.735c2.255-16.661,18.227-27.868,34.662-24.319l220.581,47.63
		c15.608,3.37,25.506,18.784,22.077,34.379l-23.886,108.622C990.304,1703.393,974.922,1713.229,959.368,1709.809z"/>
	<polygon style="fill:#FF6200;" points="772.569,1524.342 760,1579.679 853.697,1597.1 867.409,1542.788 	"/>
	<polygon style="fill:#FF6200;" points="890.16,1547.242 877.591,1602.579 971.288,1620 985,1565.688 	"/>
	<path style="fill:#FF6200;" d="M721.511,1490.442L721.511,1490.442L710,1438c0,0-7.731-22.735-27.743-44.465
		C663.648,1366.059,632.184,1348,596.5,1348c-25.731,0-49.267,9.393-67.373,24.934L529,1373c0,0-0.024,0.038-0.06,0.093
		c-11.512,9.929-20.811,22.35-27.065,36.426c-15.005,18.34-35.079,40.153-57.223,56.897c-5.391,2.433-10.338,5.242-14.706,8.394
		c-13.342,9.624-21.446,22.3-21.446,36.19c0,30.099,38.056,54.5,85,54.5c25.271,0,47.954-7.078,63.523-18.303
		c12.166,5.025,25.496,7.803,39.477,7.803c27.871,0,53.165-11.02,71.773-28.935C673.52,1537.408,683.077,1545,694,1545
		c16.568,0,30-17.461,30-39C724,1500.468,723.108,1495.209,721.511,1490.442z"/>
	<path style="fill:#FFFFFF;stroke:#FF6200;stroke-width:5;stroke-miterlimit:10;" d="M609.004,1372.5
		c-43.481,0-79.833,31.763-88.846,74.224c-3.491-0.907-7.262-1.402-11.197-1.402c-17.928,0-32.461,10.272-32.461,22.944
		s14.533,22.944,32.461,22.944c4.094,0,8.008-0.541,11.616-1.519c9.672,41.516,45.59,72.346,88.427,72.346
		c50.256,0,90.996-42.429,90.996-94.768S659.259,1372.5,609.004,1372.5z"/>
	<ellipse style="fill:#FF6200;" cx="626.596" cy="1456.312" rx="7.121" ry="13.147"/>
	<ellipse style="fill:#FF6200;" cx="673.158" cy="1457.956" rx="6.574" ry="14.79"/>
	<polyline style="fill:#FF6200;" points="651.794,1464.529 656.176,1495.206 643.029,1500.684 	"/>
	<path style="fill:none;stroke:#FF6200;stroke-width:5;stroke-linecap:round;stroke-miterlimit:10;" d="M498.318,1469.762
		c0,0,17.029-7.98,30.864,0"/>
	<path style="fill:#FF6200;" d="M508.5,1443.5c0,0,94.206,13.433,141.103-56.784L637.5,1368.5h-79L508.5,1443.5z"/>
	<path style="fill:#FFFFFF;stroke:#FF6200;stroke-width:5;stroke-miterlimit:10;" d="M561.5,1934.5"/>
	<g>
		<path style="fill:#FFFFFF;stroke:#FF6200;stroke-width:5;stroke-miterlimit:10;" d="M536.647,1885H320.353
			c-23.391,0-42.353-18.962-42.353-42.353v-113.294c0-23.391,18.962-42.353,42.353-42.353h216.294
			c23.391,0,42.353,18.962,42.353,42.353v113.294C579,1866.038,560.038,1885,536.647,1885z"/>
		<rect x="334" y="1885" style="fill:#FF6200;" width="29" height="82"/>
		<rect x="486" y="1884" style="fill:#FF6200;" width="29" height="82"/>
		<path style="fill:#FF6200;" d="M749.5,2014h-433c-15.188,0-27.5-12.312-27.5-27.5l0,0c0-15.188,12.312-27.5,27.5-27.5h433
			c15.188,0,27.5,12.312,27.5,27.5l0,0C777,2001.688,764.688,2014,749.5,2014z"/>
		<rect x="322" y="1998" style="fill:#FF6200;" width="37" height="169"/>
		<rect x="500" y="1998" style="fill:#FF6200;" width="37" height="169"/>
		<rect x="705" y="1998" style="fill:#FF6200;" width="37" height="169"/>
		<rect x="615" y="1998" style="fill:#FF6200;" width="37" height="169"/>
	</g>
	<path style="fill:none;stroke:#FF6200;stroke-width:5;stroke-miterlimit:10;" d="M607.545,1495.5c0,0-8.478,37,71.455,31"/>
	<circle style="fill:#FF6200;" cx="346.5" cy="1745.5" r="12.5"/>
	<circle style="fill:#FF6200;" cx="348.5" cy="1829.5" r="12.5"/>
	<circle style="fill:#FF6200;" cx="500.5" cy="1745.5" r="12.5"/>
	<circle style="fill:#FF6200;" cx="500.5" cy="1829.5" r="12.5"/>
	<g>
		<path style="fill:#FF6200;" d="M617.5,1484.5c-3.196,0.845-5.984,2.222-8.627,3.772c-2.634,1.569-5.04,3.445-7.339,5.464
			l-1.712,1.538l-1.639,1.638l-0.834,0.811l-0.785,0.865c-0.525,0.577-1.065,1.144-1.613,1.71c-1.046,1.174-2.064,2.387-3.177,3.556
			c-1.036,1.225-2.068,2.469-3.273,3.646c0.424-1.603,1.021-3.141,1.614-4.697c0.715-1.484,1.467-2.968,2.322-4.394
			c0.458-0.693,0.925-1.384,1.407-2.065l0.725-1.023l0.809-0.961l1.665-1.892c0.601-0.59,1.231-1.155,1.848-1.731
			c2.536-2.226,5.441-4.112,8.643-5.298c1.609-0.566,3.252-1.033,4.947-1.201C614.16,1484.071,615.881,1484.038,617.5,1484.5z"/>
	</g>
	<polygon style="fill:#FF6200;" points="760,1597 852,1612 837,1664 754,1643 	"/>
	<polygon style="fill:#FF6200;" points="872,1617 859,1667 947,1686 967,1638 	"/>
	<path style="fill:#FFFFFF;stroke:#FF6200;stroke-width:5;stroke-miterlimit:10;" d="M1003.5,1641.5c0,0,8-21-12-18l-42,15
		c0,0,3-20-12-15l-31,54l1.197,1.539c-10.52,6.939-122.479,77.352-207.697-9.901l-49.5,51.362c0,0,8,74,128,70
		c108.541-3.618,154.9-57.956,162.765-68.302l0.235,0.302l76-10C1017.5,1712.5,1037.5,1655.5,1003.5,1641.5z"/>
	<circle style="fill:#FFFFFF;" cx="814" cy="1555" r="12"/>
	<circle style="fill:#FFFFFF;" cx="929" cy="1579" r="12"/>
	<ellipse style="fill:#FFFFFF;" cx="799.5" cy="1623" rx="9.5" ry="10"/>
	<polygon style="fill:#FFFFFF;" points="785.719,1586.469 803,1571 817,1574 821,1597 	"/>
	<polygon style="fill:#FFFFFF;" points="902,1613 900,1566 906,1561 910,1591 939,1604 933,1617 	"/>
	<polygon style="fill:#FFFFFF;" points="775.347,1648.401 786,1635 805,1639 809,1664 771,1655 	"/>
	
		<ellipse transform="matrix(0.9623 -0.2718 0.2718 0.9623 -370.3494 134.411)" style="fill:#FF6200;" cx="300.012" cy="1404.066" rx="16.308" ry="6.931"/>
	<path style="fill:none;stroke:#FF6200;stroke-width:5;stroke-miterlimit:10;" d="M307.327,1399.897l-7.19-67.454
		c0,0,32.17,29.893,20.584,45.876"/>
	<ellipse style="fill:#FF6200;" cx="472.692" cy="1276.933" rx="16.335" ry="6.942"/>
	<ellipse style="fill:#FF6200;" cx="517.926" cy="1282.058" rx="16.335" ry="6.942"/>
	<polyline style="fill:none;stroke:#FF6200;stroke-width:5;stroke-miterlimit:10;" points="483.214,1274.707 483.214,1211 
		524.051,1237.953 524.051,1282.058 	"/>
	
		<line style="fill:none;stroke:#FF6200;stroke-width:5;stroke-miterlimit:10;" x1="483.009" y1="1229.208" x2="524.051" y2="1249.948"/>
	<path style="fill:none;stroke:#FF6200;stroke-width:5;stroke-miterlimit:10;" d="M362.5,1397.5c0,0,22-16,30,9s36,8,36,8"/>
	<ellipse style="fill:#FF6200;" cx="1135.25" cy="1555" rx="41.75" ry="31.645"/>
	<polygon style="fill:#FF6200;" points="1110.5,1550.5 1118.5,1574.5 1059.5,1574.5 	"/>
	
		<ellipse transform="matrix(0.4207 -0.9072 0.9072 0.4207 -836.2738 1990.1779)" style="fill:#FF6200;" cx="1140.2" cy="1649.903" rx="25.729" ry="38.148"/>
	<polygon style="fill:#FF6200;" points="1118.7,1631.209 1118.474,1650.71 1064.95,1625.886 	"/>
	<polygon style="fill:#FF6200;" points="900,1432.5 929,1437.5 900,1498.5 	"/>
	<path style="fill:#FF6200;" d="M1045.477,1441H813.523c-12.992,0-23.523-10.532-23.523-23.523v-24.954
		c0-12.991,10.531-23.523,23.523-23.523h231.954c12.991,0,23.523,10.532,23.523,23.523v24.954
		C1069,1430.468,1058.469,1441,1045.477,1441z"/>
	<g>
		<path style="fill:#FFFFFF;" d="M826.951,1402.241h-1.675v-9.704h8.674v2.254h-5.818v5.196c0.258,0.021,0.558,0.021,0.837,0.021
			c1.976,0,4.358-0.172,5.904-0.43c0.107,0.708,0.172,1.417,0.258,2.125C832.833,1402.134,828.39,1402.241,826.951,1402.241z
			 M837.385,1410.55v-4.659h-10.198v-2.232h13.054v6.892h-2.856V1410.55z M837.363,1402.821v-4.659h-4.53v-2.276h4.53v-4.487h2.855
			v11.422H837.363z"/>
		<path style="fill:#FFFFFF;" d="M855.328,1406.964c-3.198,0.537-8.479,0.837-12.022,0.837l-0.301-2.405
			c3.973,0.021,7.944-0.107,12.088-0.537L855.328,1406.964z M843.413,1397.303v-2.125h11.25v2.125H843.413z M849.167,1404.581
			c-2.748,0-4.616-1.503-4.616-3.414c0-1.932,1.825-3.414,4.616-3.414c2.705,0,4.616,1.481,4.616,3.414
			C853.783,1403.078,851.872,1404.581,849.167,1404.581z M846.419,1392.387h5.432v2.125h-5.432V1392.387z M849.167,1399.879
			c-1.052,0-1.804,0.558-1.804,1.31c0,0.73,0.752,1.288,1.804,1.288c1.009,0,1.782-0.558,1.782-1.288
			C850.949,1400.438,850.176,1399.879,849.167,1399.879z M858.957,1410.528h-2.834v-19.129h2.834V1410.528z"/>
		<path style="fill:#FFFFFF;" d="M864.084,1401.296h-1.546v-8.888h2.812v6.462h0.558c1.911,0,5.11-0.322,7.235-0.751
			c0.086,0.772,0.215,1.545,0.301,2.34C870.933,1401.039,866.381,1401.296,864.084,1401.296z M864.728,1410.292v-7.364h12.603v7.364
			H864.728z M874.475,1405.075h-6.87v3.049h6.87V1405.075z M877.352,1391.399v10.563h-2.877v-10.563H877.352z"/>
		<path style="fill:#FFFFFF;" d="M885.57,1392.623c3.177,0,5.045,2.898,5.045,6.913c0,3.929-1.868,6.849-5.045,6.849
			c-3.135,0-5.003-2.898-5.003-6.849C880.567,1395.521,882.436,1392.623,885.57,1392.623z M885.57,1395.135
			c-1.289,0-2.298,1.481-2.298,4.401c0,2.876,1.009,4.379,2.298,4.379c1.374,0,2.383-1.503,2.383-4.379
			C887.953,1396.616,886.944,1395.135,885.57,1395.135z M893.105,1410.528v-19.129h2.834v19.129H893.105z"/>
		<path style="fill:#FFFFFF;" d="M909.974,1392.258c2.92,0,5.175,1.782,5.175,4.444s-2.255,4.487-5.175,4.487
			c-2.877,0-5.109-1.825-5.109-4.487S907.097,1392.258,909.974,1392.258z M907.312,1410.292v-7.901h2.855v1.868h7.106v-1.868h2.855
			v7.901H907.312z M909.974,1398.87c1.417,0,2.448-0.901,2.448-2.146c0-1.246-1.053-2.19-2.448-2.19
			c-1.374,0-2.383,0.923-2.383,2.19C907.591,1397.969,908.6,1398.87,909.974,1398.87z M917.273,1406.449h-7.106v1.61h7.106V1406.449
			z M917.273,1401.533v-10.134h2.877v10.134H917.273z"/>
		<path style="fill:#FFFFFF;" d="M923.173,1392.58h10.091v2.297h-3.521c0.301,2.662,2.104,4.315,4.337,5.067l-1.524,2.233
			c-1.459-0.473-3.499-2.147-4.207-3.736c-0.494,1.696-2.727,3.542-4.573,4.122l-1.438-2.254c2.684-0.901,4.294-2.748,4.487-5.432
			h-3.65v-2.297H923.173z M931.267,1410.399c-4.208,0-6.741-1.481-6.741-3.843c0-2.404,2.533-3.929,6.741-3.929
			c4.229,0,6.784,1.524,6.784,3.929C938.051,1408.918,935.496,1410.399,931.267,1410.399z M927.402,1406.556
			c0,0.966,1.438,1.61,3.864,1.61c2.513,0,3.887-0.644,3.887-1.61c0-0.966-1.374-1.631-3.887-1.631
			C928.841,1404.925,927.402,1405.547,927.402,1406.556z M937.858,1398.355v4.036h-2.812v-10.992h2.812v4.659h2.662v2.297H937.858z"
			/>
		<path style="fill:#FFFFFF;" d="M941.246,1398.184v-2.233h11.121v2.233H941.246z M946.914,1398.828
			c2.619,0,4.701,1.631,4.701,4.101c0,2.49-2.082,4.122-4.701,4.122c-2.642,0-4.659-1.653-4.659-4.122
			C942.255,1400.438,944.272,1398.828,946.914,1398.828z M943.994,1392.559h5.903v2.275h-5.903V1392.559z M946.914,1405.011
			c1.159,0,2.168-0.816,2.168-2.083c0-1.246-0.966-2.083-2.168-2.083c-1.203,0-2.147,0.837-2.147,2.083
			C944.767,1404.195,945.711,1405.011,946.914,1405.011z M956.425,1399.171h2.598v2.319h-2.598v9.039h-2.834V1391.4h2.834V1399.171z
			"/>
		<path style="fill:#FFFFFF;" d="M969.881,1402.22c-1.46-0.516-3.413-2.083-4.101-3.671c-0.579,1.675-2.684,3.607-4.551,4.272
			l-1.438-2.34c2.855-1.03,4.336-3.134,4.508-5.968v-2.125h2.92v1.975c0.215,3.006,1.739,4.766,4.122,5.582L969.881,1402.22z
			 M965.759,1407.157c-0.558,1.546-2.318,3.027-3.907,3.542c-0.515-0.708-1.009-1.417-1.503-2.147
			c2.276-0.794,3.821-2.555,3.821-4.959v-0.687h2.791v0.666c0,1.631,1.139,2.727,2.233,3.199c-0.602,0.666-1.224,1.353-1.804,2.061
			C966.747,1408.51,966.038,1407.78,965.759,1407.157z M972.586,1407.458c-0.386,1.202-1.846,2.705-3.478,3.521
			c-0.516-0.666-1.03-1.288-1.546-1.932c2.361-1.074,3.563-2.877,3.563-5.325v-0.815h2.812v0.858c0,2.362,1.353,3.951,3.479,4.638
			l-1.524,2.211C974.583,1410.163,972.973,1408.639,972.586,1407.458z M972.973,1402.069v-2.834h-2.555v-2.211h2.555v-1.159h-2.555
			v-2.211h2.555v-2.254h2.898v10.67L972.973,1402.069L972.973,1402.069z"/>
		<path style="fill:#FFFFFF;" d="M978.529,1402.026v-2.233h17.282v2.233H978.529z M980.418,1398.892l-1.095-2.189
			c3.392-0.365,6.397-2.018,6.397-4.852v-0.172h2.877v0.172c0,2.834,2.898,4.379,6.398,4.766l-1.074,2.211
			c-2.641-0.322-5.646-1.632-6.763-3.865C986.043,1397.196,982.994,1398.591,980.418,1398.892z M980.697,1410.206v-7.299h2.812
			v1.674h7.3v-1.674h2.834v7.299H980.697z M990.81,1406.707h-7.3v1.31h7.3V1406.707z"/>
		<path style="fill:#FFFFFF;" d="M999.972,1405.998h-1.91v-12.731h2.812v10.176h0.794c1.997,0,4.788-0.193,6.978-0.666
			c0.086,0.794,0.172,1.588,0.279,2.383C1006.499,1405.74,1002.377,1405.998,999.972,1405.998z M1013.004,1410.528h-2.812v-19.129
			h2.812V1410.528z"/>
		<path style="fill:#FFFFFF;" d="M1019.677,1403.851c2.125,0,5.109-0.214,6.913-0.58c0.086,0.773,0.171,1.546,0.278,2.319
			c-1.76,0.343-5.389,0.644-8.823,0.644h-1.675v-13.118h8.803v2.297h-5.99v8.437L1019.677,1403.851L1019.677,1403.851z
			 M1030.647,1398.548h2.662v2.319h-2.662v9.661h-2.812v-19.129h2.812V1398.548z"/>
		<path style="fill:#FFFFFF;" d="M1034.851,1405.698h2.898v2.748h-2.898V1405.698z"/>
	</g>
</g>
</svg>
