<?xml version="1.0" encoding="iso-8859-1"?>
<!-- Generator: Adobe Illustrator 25.0.1, SVG Export Plug-In . SVG Version: 6.00 Build 0)  -->
<svg version="1.1" xmlns="http://www.w3.org/2000/svg" xmlns:xlink="http://www.w3.org/1999/xlink" x="0px" y="0px"
	 viewBox="0 0 1920 1080" style="enable-background:new 0 0 1920 1080;" xml:space="preserve">
<g id="&#xB808;&#xC774;&#xC5B4;_2">
	<rect style="fill:#FFFFFF;" width="1920" height="1081"/>
</g>
<g id="&#xB808;&#xC774;&#xC5B4;_1">
	<polygon style="fill:#FF6200;" points="935.651,634.154 1026.995,601.154 1069.651,617.154 1069.651,653.154 958.651,659.154 	"/>
	<path style="fill:none;stroke:#FF6200;stroke-width:15;stroke-miterlimit:10;" d="M1041.151,640.154c0,0,61-28,57,25s-52,73-52,73
		l-5,293"/>
	<path style="fill:none;stroke:#FF6200;stroke-width:15;stroke-miterlimit:10;" d="M923.151,1079.654c0,0-11-48,36-49s182,0,182,0
		s36-10,33,49"/>
	
		<line style="fill:none;stroke:#FF6200;stroke-width:15;stroke-miterlimit:10;" x1="1089.151" y1="1035.654" x2="1089.151" y2="1079.654"/>
	<path style="fill:#FFFFFF;stroke:#FF6200;stroke-width:5;stroke-miterlimit:10;" d="M807.5,840.5
		c-33.6-25.6-72.314-26.88-86.459-26.368L608,793l-200,27c0,0-20,65,15,67l163.374,5.413L585,898.015L539,1080l183.5,1.5h98
		C820.5,1081.5,849.5,872.5,807.5,840.5z"/>
	<g>
		<path style="fill:#FF6200;" d="M626.5,416.5c-1.609,0.522-3.057,1.16-4.456,1.863c-1.402,0.672-2.718,1.47-4.003,2.263
			c-2.563,1.617-4.907,3.491-7.176,5.485l-1.696,1.514c-0.544,0.535-1.078,1.08-1.636,1.607l-0.837,0.792
			c-0.256,0.288-0.525,0.565-0.793,0.845c-0.53,0.564-1.079,1.116-1.639,1.665c-1.07,1.142-2.123,2.321-3.283,3.452
			c-1.074,1.194-2.19,2.383-3.482,3.514c0.337-1.65,0.85-3.242,1.405-4.829c0.667-1.522,1.385-3.041,2.216-4.499
			c0.447-0.709,0.905-1.415,1.381-2.109l0.717-1.043l0.806-0.98c0.544-0.65,1.111-1.281,1.668-1.923
			c0.606-0.598,1.241-1.172,1.865-1.755c2.566-2.252,5.533-4.139,8.806-5.278c1.645-0.541,3.324-0.97,5.052-1.084
			C623.125,415.877,624.882,415.94,626.5,416.5z"/>
	</g>
	<path style="fill:#FF6200;" d="M708.687,589.659l-59-81.233l-47.353-6.063l0,0l-62.102-14.937c0,0-142.545-29-142.545,244v95l245,7
		l-8.022-172.143l10.022-6.857L708.687,589.659z"/>
	<path style="fill:#FFFFFF;stroke:#FF6200;stroke-width:6;stroke-miterlimit:10;" d="M959.368,629.809l-211.545-46.518
		c-14.66-3.224-24.395-17.155-22.382-32.03l14.85-109.735c2.255-16.661,18.227-27.868,34.662-24.319l220.581,47.63
		c15.608,3.37,25.506,18.784,22.077,34.379l-23.886,108.622C990.304,623.393,974.922,633.229,959.368,629.809z"/>
	<polygon style="fill:#FF6200;" points="772.569,444.342 760,499.679 853.697,517.1 867.409,462.788 	"/>
	<polygon style="fill:#FF6200;" points="890.16,467.242 877.591,522.579 971.288,540 985,485.688 	"/>
	<path style="fill:#FF6200;" d="M721.511,410.442L721.511,410.442L710,358c0,0-7.731-22.735-27.743-44.465
		C663.648,286.059,632.184,268,596.5,268c-25.731,0-49.267,9.393-67.373,24.934L529,293c0,0-0.024,0.038-0.06,0.093
		c-11.512,9.929-20.811,22.35-27.065,36.426c-15.005,18.34-35.079,40.153-57.223,56.897c-5.391,2.433-10.338,5.242-14.706,8.394
		C416.604,404.434,408.5,417.11,408.5,431c0,30.099,38.056,54.5,85,54.5c25.271,0,47.954-7.078,63.523-18.303
		C569.189,472.222,582.519,475,596.5,475c27.871,0,53.165-11.02,71.773-28.935C673.52,457.408,683.077,465,694,465
		c16.568,0,30-17.461,30-39C724,420.468,723.108,415.209,721.511,410.442z"/>
	<path style="fill:#FFFFFF;stroke:#FF6200;stroke-width:5;stroke-miterlimit:10;" d="M609.004,292.5
		c-43.481,0-79.833,31.763-88.846,74.224c-3.491-0.907-7.262-1.402-11.197-1.402c-17.928,0-32.461,10.272-32.461,22.944
		c0,12.672,14.533,22.944,32.461,22.944c4.094,0,8.008-0.541,11.616-1.519c9.672,41.516,45.59,72.346,88.427,72.346
		c50.256,0,90.996-42.429,90.996-94.768S659.259,292.5,609.004,292.5z"/>
	<ellipse style="fill:#FF6200;" cx="626.596" cy="376.312" rx="7.121" ry="13.147"/>
	<ellipse style="fill:#FF6200;" cx="673.158" cy="377.956" rx="6.574" ry="14.79"/>
	<polyline style="fill:#FF6200;" points="651.794,384.529 656.176,415.206 643.029,420.684 	"/>
	<path style="fill:none;stroke:#FF6200;stroke-width:5;stroke-linecap:round;stroke-miterlimit:10;" d="M498.318,389.762
		c0,0,17.029-7.98,30.864,0"/>
	<path style="fill:#FF6200;" d="M508.5,363.5c0,0,94.206,13.433,141.103-56.784L637.5,288.5h-79L508.5,363.5z"/>
	<path style="fill:#FFFFFF;stroke:#FF6200;stroke-width:5;stroke-miterlimit:10;" d="M561.5,854.5"/>
	<g>
		<path style="fill:#FFFFFF;stroke:#FF6200;stroke-width:5;stroke-miterlimit:10;" d="M536.647,805H320.353
			C296.962,805,278,786.038,278,762.647V649.353C278,625.962,296.962,607,320.353,607h216.294C560.038,607,579,625.962,579,649.353
			v113.294C579,786.038,560.038,805,536.647,805z"/>
		<rect x="334" y="805" style="fill:#FF6200;" width="29" height="82"/>
		<rect x="486" y="804" style="fill:#FF6200;" width="29" height="82"/>
		<path style="fill:#FF6200;" d="M749.5,934h-433c-15.188,0-27.5-12.312-27.5-27.5l0,0c0-15.188,12.312-27.5,27.5-27.5h433
			c15.188,0,27.5,12.312,27.5,27.5l0,0C777,921.688,764.688,934,749.5,934z"/>
		<rect x="322" y="918" style="fill:#FF6200;" width="37" height="169"/>
		<rect x="500" y="918" style="fill:#FF6200;" width="37" height="169"/>
		<rect x="705" y="918" style="fill:#FF6200;" width="37" height="169"/>
		<rect x="615" y="918" style="fill:#FF6200;" width="37" height="169"/>
	</g>
	<path style="fill:none;stroke:#FF6200;stroke-width:5;stroke-miterlimit:10;" d="M607.545,415.5c0,0-8.478,37,71.455,31"/>
	<circle style="fill:#FF6200;" cx="346.5" cy="665.5" r="12.5"/>
	<circle style="fill:#FF6200;" cx="348.5" cy="749.5" r="12.5"/>
	<circle style="fill:#FF6200;" cx="500.5" cy="665.5" r="12.5"/>
	<circle style="fill:#FF6200;" cx="500.5" cy="749.5" r="12.5"/>
	<g>
		<path style="fill:#FF6200;" d="M617.5,404.5c-3.196,0.845-5.984,2.222-8.627,3.772c-2.634,1.569-5.04,3.445-7.339,5.464
			l-1.712,1.538l-1.639,1.638l-0.834,0.811l-0.785,0.865c-0.525,0.577-1.065,1.144-1.613,1.71c-1.046,1.174-2.064,2.387-3.177,3.556
			c-1.036,1.225-2.068,2.469-3.273,3.646c0.424-1.603,1.021-3.141,1.614-4.697c0.715-1.484,1.467-2.968,2.322-4.394
			c0.458-0.693,0.925-1.384,1.407-2.065l0.725-1.023l0.809-0.961l1.665-1.892c0.601-0.59,1.231-1.155,1.848-1.731
			c2.536-2.226,5.441-4.112,8.643-5.298c1.609-0.566,3.252-1.033,4.947-1.201C614.16,404.071,615.881,404.038,617.5,404.5z"/>
	</g>
	<polygon style="fill:#FF6200;" points="760,517 852,532 837,584 754,563 	"/>
	<polygon style="fill:#FF6200;" points="872,537 859,587 947,606 967,558 	"/>
	<path style="fill:#FFFFFF;stroke:#FF6200;stroke-width:5;stroke-miterlimit:10;" d="M1003.5,561.5c0,0,8-21-12-18l-42,15
		c0,0,3-20-12-15l-31,54l1.197,1.539c-10.52,6.939-122.479,77.352-207.697-9.901L650.5,640.5c0,0,8,74,128,70
		c108.541-3.618,154.9-57.956,162.765-68.302l0.235,0.302l76-10C1017.5,632.5,1037.5,575.5,1003.5,561.5z"/>
	<circle style="fill:#FFFFFF;" cx="814" cy="475" r="12"/>
	<circle style="fill:#FFFFFF;" cx="929" cy="499" r="12"/>
	<ellipse style="fill:#FFFFFF;" cx="799.5" cy="543" rx="9.5" ry="10"/>
	<polygon style="fill:#FFFFFF;" points="785.719,506.469 803,491 817,494 821,517 	"/>
	<polygon style="fill:#FFFFFF;" points="902,533 900,486 906,481 910,511 939,524 933,537 	"/>
	<polygon style="fill:#FFFFFF;" points="775.347,568.401 786,555 805,559 809,584 771,575 	"/>
	
		<ellipse transform="matrix(0.9623 -0.2718 0.2718 0.9623 -76.7939 93.7581)" style="fill:#FF6200;" cx="300.034" cy="324.075" rx="16.309" ry="6.931"/>
	<path style="fill:none;stroke:#FF6200;stroke-width:5;stroke-miterlimit:10;" d="M307.327,319.897l-7.19-67.454
		c0,0,32.17,29.893,20.584,45.876"/>
	<ellipse style="fill:#FF6200;" cx="472.692" cy="196.933" rx="16.335" ry="6.942"/>
	<ellipse style="fill:#FF6200;" cx="517.926" cy="202.058" rx="16.335" ry="6.942"/>
	<polyline style="fill:none;stroke:#FF6200;stroke-width:5;stroke-miterlimit:10;" points="483.214,194.707 483.214,131 
		524.051,157.953 524.051,202.058 	"/>
	
		<line style="fill:none;stroke:#FF6200;stroke-width:5;stroke-miterlimit:10;" x1="483.009" y1="149.208" x2="524.051" y2="169.948"/>
	<path style="fill:none;stroke:#FF6200;stroke-width:5;stroke-miterlimit:10;" d="M362.5,317.5c0,0,22-16,30,9s36,8,36,8"/>
	<ellipse style="fill:#FF6200;" cx="1135.25" cy="475" rx="41.75" ry="31.645"/>
	<polygon style="fill:#FF6200;" points="1110.5,470.5 1118.5,494.5 1059.5,494.5 	"/>
	
		<ellipse transform="matrix(0.4207 -0.9072 0.9072 0.4207 143.4461 1364.5469)" style="fill:#FF6200;" cx="1140.235" cy="569.948" rx="25.729" ry="38.148"/>
	<polygon style="fill:#FF6200;" points="1118.7,551.209 1118.474,570.71 1064.95,545.886 	"/>
	<polygon style="fill:#FF6200;" points="900,352.5 929,357.5 900,418.5 	"/>
	<path style="fill:#FF6200;" d="M1045.477,361H813.523C800.531,361,790,350.468,790,337.477v-24.954
		C790,299.532,800.531,289,813.523,289h231.954c12.991,0,23.523,10.532,23.523,23.523v24.954
		C1069,350.468,1058.469,361,1045.477,361z"/>
	<g>
		<path style="fill:#FFFFFF;" d="M826.951,322.241h-1.675v-9.704h8.674v2.254h-5.818v5.196c0.258,0.021,0.558,0.021,0.837,0.021
			c1.976,0,4.358-0.172,5.904-0.43c0.107,0.708,0.172,1.417,0.258,2.125C832.833,322.134,828.39,322.241,826.951,322.241z
			 M837.385,330.55v-4.659h-10.198v-2.232h13.054v6.892H837.385z M837.363,322.821v-4.659h-4.53v-2.276h4.53v-4.487h2.855v11.422
			H837.363z"/>
		<path style="fill:#FFFFFF;" d="M855.328,326.964c-3.198,0.537-8.479,0.837-12.022,0.837l-0.301-2.405
			c3.973,0.021,7.944-0.107,12.088-0.537L855.328,326.964z M843.413,317.303v-2.125h11.25v2.125H843.413z M849.167,324.581
			c-2.748,0-4.616-1.503-4.616-3.414c0-1.932,1.825-3.414,4.616-3.414c2.705,0,4.616,1.481,4.616,3.414
			C853.783,323.078,851.872,324.581,849.167,324.581z M846.419,312.387h5.432v2.125h-5.432V312.387z M849.167,319.879
			c-1.052,0-1.804,0.558-1.804,1.31c0,0.73,0.752,1.288,1.804,1.288c1.009,0,1.782-0.558,1.782-1.288
			C850.949,320.438,850.176,319.879,849.167,319.879z M858.957,330.528h-2.834v-19.129h2.834V330.528z"/>
		<path style="fill:#FFFFFF;" d="M864.084,321.296h-1.546v-8.888h2.812v6.462h0.558c1.911,0,5.11-0.322,7.235-0.751
			c0.086,0.772,0.215,1.545,0.301,2.34C870.933,321.039,866.381,321.296,864.084,321.296z M864.728,330.292v-7.364h12.603v7.364
			H864.728z M874.475,325.075h-6.87v3.049h6.87V325.075z M877.352,311.399v10.563h-2.877v-10.563H877.352z"/>
		<path style="fill:#FFFFFF;" d="M885.57,312.623c3.177,0,5.045,2.898,5.045,6.913c0,3.929-1.868,6.849-5.045,6.849
			c-3.135,0-5.003-2.898-5.003-6.849C880.567,315.521,882.436,312.623,885.57,312.623z M885.57,315.135
			c-1.289,0-2.298,1.481-2.298,4.401c0,2.876,1.009,4.379,2.298,4.379c1.374,0,2.383-1.503,2.383-4.379
			C887.953,316.616,886.944,315.135,885.57,315.135z M893.105,330.528v-19.129h2.834v19.129H893.105z"/>
		<path style="fill:#FFFFFF;" d="M909.974,312.258c2.92,0,5.175,1.782,5.175,4.444s-2.255,4.487-5.175,4.487
			c-2.877,0-5.109-1.825-5.109-4.487S907.097,312.258,909.974,312.258z M907.312,330.292v-7.901h2.855v1.868h7.106v-1.868h2.855
			v7.901H907.312z M909.974,318.87c1.417,0,2.448-0.901,2.448-2.146c0-1.246-1.053-2.19-2.448-2.19c-1.374,0-2.383,0.923-2.383,2.19
			C907.591,317.969,908.6,318.87,909.974,318.87z M917.273,326.449h-7.106v1.61h7.106V326.449z M917.273,321.533v-10.134h2.877
			v10.134H917.273z"/>
		<path style="fill:#FFFFFF;" d="M923.173,312.58h10.091v2.297h-3.521c0.301,2.662,2.104,4.315,4.337,5.067l-1.524,2.233
			c-1.459-0.473-3.499-2.147-4.207-3.736c-0.494,1.696-2.727,3.542-4.573,4.122l-1.438-2.254c2.684-0.901,4.294-2.748,4.487-5.432
			h-3.65V312.58z M931.267,330.399c-4.208,0-6.741-1.481-6.741-3.843c0-2.404,2.533-3.929,6.741-3.929
			c4.229,0,6.784,1.524,6.784,3.929C938.051,328.918,935.496,330.399,931.267,330.399z M927.402,326.556
			c0,0.966,1.438,1.61,3.864,1.61c2.513,0,3.887-0.644,3.887-1.61c0-0.966-1.374-1.631-3.887-1.631
			C928.841,324.925,927.402,325.547,927.402,326.556z M937.858,318.355v4.036h-2.812v-10.992h2.812v4.659h2.662v2.297H937.858z"/>
		<path style="fill:#FFFFFF;" d="M941.246,318.184v-2.233h11.121v2.233H941.246z M946.914,318.828c2.619,0,4.701,1.631,4.701,4.101
			c0,2.49-2.082,4.122-4.701,4.122c-2.642,0-4.659-1.653-4.659-4.122C942.255,320.438,944.272,318.828,946.914,318.828z
			 M943.994,312.559h5.903v2.275h-5.903V312.559z M946.914,325.011c1.159,0,2.168-0.816,2.168-2.083
			c0-1.246-0.966-2.083-2.168-2.083c-1.203,0-2.147,0.837-2.147,2.083C944.767,324.195,945.711,325.011,946.914,325.011z
			 M956.425,319.171h2.598v2.319h-2.598v9.039h-2.834v-19.129h2.834V319.171z"/>
		<path style="fill:#FFFFFF;" d="M969.881,322.22c-1.46-0.516-3.413-2.083-4.101-3.671c-0.579,1.675-2.684,3.607-4.551,4.272
			l-1.438-2.34c2.855-1.03,4.336-3.134,4.508-5.968v-2.125h2.92v1.975c0.215,3.006,1.739,4.766,4.122,5.582L969.881,322.22z
			 M965.759,327.157c-0.558,1.546-2.318,3.027-3.907,3.542c-0.515-0.708-1.009-1.417-1.503-2.147
			c2.276-0.794,3.821-2.555,3.821-4.959v-0.687h2.791v0.666c0,1.631,1.139,2.727,2.233,3.199c-0.602,0.666-1.224,1.353-1.804,2.061
			C966.747,328.51,966.038,327.78,965.759,327.157z M972.586,327.458c-0.386,1.202-1.846,2.705-3.478,3.521
			c-0.516-0.666-1.03-1.288-1.546-1.932c2.361-1.074,3.563-2.877,3.563-5.325v-0.815h2.812v0.858c0,2.362,1.353,3.951,3.479,4.638
			l-1.524,2.211C974.583,330.163,972.973,328.639,972.586,327.458z M972.973,322.069v-2.834h-2.555v-2.211h2.555v-1.159h-2.555
			v-2.211h2.555v-2.254h2.898v10.67H972.973z"/>
		<path style="fill:#FFFFFF;" d="M978.529,322.026v-2.233h17.282v2.233H978.529z M980.418,318.892l-1.095-2.189
			c3.392-0.365,6.397-2.018,6.397-4.852v-0.172h2.877v0.172c0,2.834,2.898,4.379,6.398,4.766l-1.074,2.211
			c-2.641-0.322-5.646-1.632-6.763-3.865C986.043,317.196,982.994,318.591,980.418,318.892z M980.697,330.206v-7.299h2.812v1.674
			h7.3v-1.674h2.834v7.299H980.697z M990.81,326.707h-7.3v1.31h7.3V326.707z"/>
		<path style="fill:#FFFFFF;" d="M999.972,325.998h-1.91v-12.731h2.812v10.176h0.794c1.997,0,4.788-0.193,6.978-0.666
			c0.086,0.794,0.172,1.588,0.279,2.383C1006.499,325.74,1002.377,325.998,999.972,325.998z M1013.004,330.528h-2.812v-19.129h2.812
			V330.528z"/>
		<path style="fill:#FFFFFF;" d="M1019.677,323.851c2.125,0,5.109-0.214,6.913-0.58c0.086,0.773,0.171,1.546,0.278,2.319
			c-1.76,0.343-5.389,0.644-8.823,0.644h-1.675v-13.118h8.803v2.297h-5.99v8.437H1019.677z M1030.647,318.548h2.662v2.319h-2.662
			v9.661h-2.812v-19.129h2.812V318.548z"/>
		<path style="fill:#FFFFFF;" d="M1034.851,325.698h2.898v2.748h-2.898V325.698z"/>
	</g>
</g>
</svg>
