<?xml version="1.0" encoding="iso-8859-1"?>
<!-- Generator: Adobe Illustrator 25.0.1, SVG Export Plug-In . SVG Version: 6.00 Build 0)  -->
<svg version="1.1" id="&#xB808;&#xC774;&#xC5B4;_1" xmlns="http://www.w3.org/2000/svg" xmlns:xlink="http://www.w3.org/1999/xlink"
	 x="0px" y="0px" viewBox="0 0 1920 2160" style="enable-background:new 0 0 1920 2160;" xml:space="preserve">
<rect x="-0.313" style="fill:#27304D;" width="1920" height="2161.426"/>
<polygon style="fill:#FFFFFF;" points="931.687,1715.426 1023.031,1682.426 1065.687,1698.426 1065.687,1734.426 954.687,1740.426 
	"/>
<path style="fill:none;stroke:#FFFFFF;stroke-width:15;stroke-miterlimit:10;" d="M1037.187,1721.426c0,0,61-28,57,25s-52,73-52,73
	l-5,293"/>
<path style="fill:#FFFFFF;stroke:#29314B;stroke-width:5;stroke-miterlimit:10;" d="M721.198,1491.867L721.198,1491.867
	l-11.511-52.442c0,0-7.731-22.735-27.743-44.465c-18.608-27.476-50.073-45.535-85.757-45.535c-25.731,0-49.267,9.393-67.373,24.934
	l-0.127,0.066c0,0-0.024,0.038-0.06,0.093c-11.512,9.929-20.811,22.35-27.065,36.426c-15.005,18.34-35.079,40.153-57.223,56.897
	c-5.391,2.433-10.338,5.242-14.706,8.394c-13.342,9.625-21.446,22.301-21.446,36.191c0,30.099,38.056,54.5,85,54.5
	c25.271,0,47.954-7.078,63.523-18.303c12.166,5.024,25.496,7.803,39.477,7.803c27.871,0,53.165-11.02,71.773-28.935
	c5.246,11.344,14.803,18.935,25.727,18.935c16.568,0,30-17.461,30-39C723.687,1501.894,722.795,1496.635,721.198,1491.867z"/>
<path style="fill:#29314B;stroke:#FFFFFF;stroke-width:5;stroke-miterlimit:10;" d="M608.69,1373.926
	c-43.481,0-79.833,31.763-88.846,74.224c-3.491-0.907-7.262-1.402-11.197-1.402c-17.928,0-32.461,10.272-32.461,22.944
	s14.533,22.944,32.461,22.944c4.095,0,8.008-0.541,11.616-1.519c9.672,41.516,45.59,72.346,88.427,72.346
	c50.256,0,90.996-42.429,90.996-94.768S658.946,1373.926,608.69,1373.926z"/>
<ellipse style="fill:#FFFFFF;" cx="626.282" cy="1457.738" rx="7.121" ry="13.147"/>
<ellipse style="fill:#FFFFFF;" cx="672.845" cy="1459.382" rx="6.574" ry="14.79"/>
<polyline style="fill:#FFFFFF;" points="651.481,1465.955 655.863,1496.632 642.716,1502.11 "/>
<path style="fill:none;stroke:#FFFFFF;stroke-width:5;stroke-linecap:round;stroke-miterlimit:10;" d="M498.005,1471.188
	c0,0,17.029-7.98,30.864,0"/>
<path style="fill:#FFFFFF;" d="M510.187,1447.331c0,0,97.142,14.669,145.5-62.012l-12.48-19.894h-81.462L510.187,1447.331z"/>
<path style="fill:#29314B;stroke:#FFFFFF;stroke-width:6;stroke-miterlimit:10;" d="M1003.187,1642.926c0,0,8-21-12-18l-42,15
	c0,0,3-20-12-15l-31,54l1.197,1.539c-10.52,6.939-122.479,77.352-207.697-9.901l-49.5,51.362c0,0,8,74,128,70
	c108.541-3.618,154.9-57.956,162.765-68.302l0.235,0.302l76-10C1017.187,1713.926,1037.187,1656.926,1003.187,1642.926z"/>
<path style="fill:#29314B;stroke:#FFFFFF;stroke-width:6;stroke-miterlimit:10;" d="M807.187,1921.926
	c-33.6-25.6-72.314-26.88-86.459-26.368l-113.041-21.132l-200,27c0,0-20,65,15,67l163.374,5.413l-1.373,5.602l-46,181.985l183.5,1.5
	h98C820.187,2162.926,849.187,1953.926,807.187,1921.926z"/>
<path style="fill:#FFFFFF;stroke:#EC5528;stroke-width:5;stroke-miterlimit:10;" d="M561.187,1935.926"/>
<circle style="fill:#EC5528;" cx="500.187" cy="1746.926" r="12.5"/>
<circle style="fill:#EC5528;" cx="500.187" cy="1830.926" r="12.5"/>
<g>
	<path style="fill:#FFFFFF;" d="M626.187,1497.926c-3.206,0.636-6.083,1.921-8.798,3.409c-2.697,1.538-5.171,3.403-7.498,5.452
		l-1.729,1.562l-1.642,1.67l-0.831,0.83l-0.778,0.884c-0.518,0.591-1.052,1.171-1.595,1.749c-1.011,1.213-2.014,2.449-3.063,3.667
		c-0.98,1.266-1.958,2.547-3.066,3.778c0.521-1.55,1.173-3.051,1.821-4.566c0.778-1.436,1.546-2.897,2.436-4.284
		c0.464-0.681,0.937-1.359,1.426-2.026l0.732-1.003l0.812-0.943l1.661-1.86c0.596-0.582,1.22-1.139,1.831-1.707
		c2.508-2.197,5.345-4.093,8.484-5.311c1.568-0.605,3.181-1.088,4.839-1.328C622.878,1497.671,624.569,1497.574,626.187,1497.926z"
		/>
</g>
<path style="fill:#FFFFFF;" d="M708.687,1669.659l-59-81.233l-47.353-6.063l0,0l-62.102-14.937c0,0-142.545-29-142.545,244v95l245,7
	l-8.022-172.143l10.022-6.857L708.687,1669.659z"/>
<path style="fill:#EC5528;" d="M456.687,2037.426"/>
<path style="fill:none;stroke:#FFFFFF;stroke-width:5;stroke-miterlimit:10;" d="M619.187,1530.926c0,0,35.488-30.274,50.744,7.863"
	/>
<path style="fill:#29314B;stroke:#FFFFFF;stroke-width:5;stroke-miterlimit:10;" d="M531.334,1880.426H0.5v-198h530.834
	c23.391,0,42.353,18.962,42.353,42.353v113.294C573.687,1861.464,554.725,1880.426,531.334,1880.426z"/>
<rect x="328.687" y="1880.426" style="fill:#FFFFFF;" width="29" height="82"/>
<rect x="480.687" y="1879.426" style="fill:#FFFFFF;" width="29" height="82"/>
<path style="fill:#FFFFFF;" d="M744.187,2009.426H0v-55h744.187c15.188,0,27.5,12.312,27.5,27.5l0,0
	C771.687,1997.114,759.375,2009.426,744.187,2009.426z"/>
<rect x="18" y="1991" style="fill:#FFFFFF;" width="37" height="169"/>
<rect x="494.687" y="1993.426" style="fill:#FFFFFF;" width="37" height="169"/>
<rect x="699.687" y="1993.426" style="fill:#FFFFFF;" width="37" height="169"/>
<circle style="fill:#FFFFFF;" cx="500.187" cy="1746.926" r="12.5"/>
<circle style="fill:#FFFFFF;" cx="500.187" cy="1830.926" r="12.5"/>
<path style="fill:none;stroke:#FFFFFF;stroke-width:15;stroke-miterlimit:10;" d="M911.5,2162c0,0-11-48,36-49s182,0,182,0
	s36-10,33,49"/>
<line style="fill:none;stroke:#FFFFFF;stroke-width:15;stroke-miterlimit:10;" x1="1077.5" y1="2118" x2="1077.5" y2="2162"/>
<path style="fill:none;stroke:#FFFFFF;stroke-width:5;stroke-miterlimit:10;" d="M199.5,1238.5c0,0,18,32,41,32"/>
<path style="fill:#FFFFFF;" d="M218.5,1263.5c0,0-13,20,3,45l7,12l37-18l-6-14l18,6l5-40C282.5,1254.5,247.5,1234.5,218.5,1263.5z"
	/>
<path style="fill:none;stroke:#FFFFFF;stroke-width:5;stroke-miterlimit:10;" d="M820.5,1488.5c0,0,33,0,51-26"/>
<path style="fill:#FFFFFF;" d="M864.344,1470.885c0,0-31.344,11.115-54.344-8.885C810,1462,839.688,1437.771,864.344,1470.885z"/>
<path style="fill:#FFFFFF;" d="M864.312,1473.571c0,0-34.278-16.796-36.33-51.72
	C827.982,1421.851,871.692,1426.761,864.312,1473.571z"/>
<path style="fill:#FFFFFF;" d="M897.12,1413.564c0,0-3.038,41.307-37.368,57.506C859.752,1471.071,847.007,1425.078,897.12,1413.564
	z"/>
<path style="fill:#FFFFFF;" d="M858.179,1464.687c0,0,13.109,28.298,41.599,30.596
	C899.777,1495.282,896.545,1459.492,858.179,1464.687z"/>
<path style="fill:#FFFFFF;" d="M862.779,1472.915c0,0,43.082,2.148,64.219-31.26
	C926.998,1441.655,881.094,1422.595,862.779,1472.915z"/>
<path style="fill:none;stroke:#FFFFFF;stroke-width:5;stroke-miterlimit:10;" d="M1079.845,1599.804c0,0,6.286,18.743,24.481,24.013
	"/>
<path style="fill:#FFFFFF;" d="M1098.201,1621.35c0,0-12.283-15.685-5.305-32.558
	C1092.896,1588.793,1112.312,1601.039,1098.201,1621.35z"/>
<path style="fill:#FFFFFF;" d="M1096.67,1621.844c0,0,3.01-22.668,22.455-30.486
	C1119.124,1591.358,1124.661,1617.118,1096.67,1621.844z"/>
<path style="fill:#FFFFFF;" d="M1137,1629.047c0,0-24.039,6.143-39.779-10.269C1097.221,1618.778,1120.915,1602.778,1137,1629.047z"
	/>
<path style="fill:#FFFFFF;" d="M1100.547,1616.668c0,0-13.575,12.835-9.453,29.454
	C1091.094,1646.122,1110.805,1637.469,1100.547,1616.668z"/>
<path style="fill:#FFFFFF;" d="M1096.75,1620.848c0,0,6.986,24.878,29.987,30.519
	C1126.737,1651.367,1128.818,1621.665,1096.75,1620.848z"/>
<path style="fill:none;stroke:#FFFFFF;stroke-width:5;stroke-miterlimit:10;" d="M1192.368,1392.651
	c0,0,22.411,18.695,39.502,12.201"/>
<path style="fill:#FFFFFF;" d="M1213.545,1405.862c0,0-4.012,18.532,14.936,32.591l8.59,6.94l22.411-23.823l-8.412-8.709
	l15.069-0.624l-7.58-31.134C1258.56,1381.103,1226.905,1376.125,1213.545,1405.862z"/>
<path style="fill:none;stroke:#FFFFFF;stroke-width:5;stroke-miterlimit:10;" d="M922.13,1940.658c0,0,6.286,18.743,24.482,24.013"
	/>
<path style="fill:#FFFFFF;" d="M940.486,1962.204c0,0-12.283-15.685-5.305-32.558
	C935.181,1929.646,954.597,1941.893,940.486,1962.204z"/>
<path style="fill:#FFFFFF;" d="M938.954,1962.697c0,0,3.01-22.668,22.455-30.486
	C961.409,1932.211,966.946,1957.972,938.954,1962.697z"/>
<path style="fill:#FFFFFF;" d="M979.285,1969.9c0,0-24.039,6.143-39.779-10.269C939.506,1959.631,963.2,1943.632,979.285,1969.9z"/>
<path style="fill:#FFFFFF;" d="M944.584,1960.731c0,0-18.342,3.549-23.78,19.784
	C920.804,1980.516,942.081,1983.789,944.584,1960.731z"/>
<path style="fill:#FFFFFF;" d="M940.205,1959.21c0,0-1.063,25.818,19.06,38.306C959.264,1997.516,970.443,1969.919,940.205,1959.21z
	"/>
<path style="fill:none;stroke:#FFFFFF;stroke-width:5;stroke-miterlimit:10;" d="M1265.882,1844.678c0,0,26.018,0.723,40.78-19.381"
	/>
<path style="fill:#FFFFFF;" d="M1300.837,1831.751c0,0-24.956,8.076-42.652-8.197
	C1258.185,1823.554,1282.123,1805.102,1300.837,1831.751z"/>
<path style="fill:#FFFFFF;" d="M1300.752,1833.867c0,0-26.658-13.994-27.51-41.574
	C1273.242,1792.293,1307.597,1797.123,1300.752,1833.867z"/>
<path style="fill:#FFFFFF;" d="M1327.935,1787.275c0,0-3.3,32.501-30.723,44.521
	C1297.212,1831.796,1288.172,1795.255,1327.935,1787.275z"/>
<path style="fill:#FFFFFF;" d="M1300.874,1826.017c0,0-3.926,24.283,13.681,38.363
	C1314.554,1864.38,1328.243,1839.561,1300.874,1826.017z"/>
<path style="fill:#FFFFFF;" d="M1297.008,1830.742c0,0,31.435,13.015,55.992-6.201
	C1353,1824.54,1323.951,1798.215,1297.008,1830.742z"/>
<path style="fill:none;stroke:#FFFFFF;stroke-width:5;stroke-miterlimit:10;" d="M137.708,1512.708c0,0,14.565,21.572,39.505,21.863
	"/>
<path style="fill:#FFFFFF;" d="M168.574,1533.594c0,0-21.1-15.584-18.177-39.446
	C150.397,1494.148,179.338,1502.861,168.574,1533.594z"/>
<path style="fill:#FFFFFF;" d="M166.804,1534.758c0,0-4.15-29.82,17.774-46.576C184.578,1488.182,200.66,1518.922,166.804,1534.758z
	"/>
<path style="fill:#FFFFFF;" d="M220.51,1529.72c0,0-28.343,16.246-54.084,0.954C166.426,1530.674,190.866,1502.043,220.51,1529.72z"
	/>
<path style="fill:#FFFFFF;" d="M173.256,1530.285c0,0-22.026,10.951-23.218,33.463
	C150.038,1563.748,178.186,1560.421,173.256,1530.285z"/>
<path style="fill:#FFFFFF;" d="M167.164,1529.894c0,0,7.728,33.133,37.65,41.905
	C204.814,1571.799,209.297,1532.852,167.164,1529.894z"/>
<path style="fill:none;stroke:#FFFFFF;stroke-miterlimit:10;" d="M1145,1407c0,0-308-32-397-137"/>
<path style="fill:none;stroke:#FFFFFF;stroke-miterlimit:10;" d="M495.943,1583.36c0,0-293.996-97.233-358.439-218.86"/>
<path style="fill:none;stroke:#FFFFFF;stroke-miterlimit:10;" d="M167,1612c0,0-93.483-25.254-117.852-96.431"/>
<path style="fill:none;stroke:#FFFFFF;stroke-miterlimit:10;" d="M1126.5,1787.5c0,0,78,38,105,37"/>
</svg>
