<?xml version="1.0" encoding="iso-8859-1"?>
<!-- Generator: Adobe Illustrator 25.0.1, SVG Export Plug-In . SVG Version: 6.00 Build 0)  -->
<svg version="1.1" id="&#xB808;&#xC774;&#xC5B4;_1" xmlns="http://www.w3.org/2000/svg" xmlns:xlink="http://www.w3.org/1999/xlink"
	 x="0px" y="0px" viewBox="0 0 1920 1080" style="enable-background:new 0 0 1920 1080;" xml:space="preserve">
<rect y="-1" style="fill:#FF6200;" width="1920" height="1080"/>
<path style="fill:#FFFFFF;stroke:#FFFFFF;stroke-width:5;stroke-miterlimit:10;" d="M807,795c0,0,13-51,23-57l104-3c0,0,41,14,45,30
	l18,44L807,795z"/>
<polygon style="fill:#FF6200;stroke:#FFFFFF;stroke-width:5;stroke-miterlimit:10;" points="776.5,796.408 776.5,1079 950.5,1079 
	950.5,790.5 "/>
<polygon style="fill:#FF6200;stroke:#FFFFFF;stroke-width:5;stroke-miterlimit:10;" points="950.5,790.5 1066.5,834.809 
	1080.5,1079 950.5,1079 "/>
<path style="fill:#FFFFFF;" d="M746.729,361.491l-9.988,10.772l-3.003,8.96l17.726,15.077l5.734,1.922
	c0,0,4.351,60.425-25.25,86.218l-6.553-2.196l-26.69,3.513l-5.892,12.144l7.283,19.051l29.466-0.922
	c0,0,63.866-49.191,43.722-133.181l-18.432-21.127L746.729,361.491z"/>
<path style="fill:none;stroke:#FFFFFF;stroke-width:3;stroke-miterlimit:10;" d="M713,514c0,0-5,29,15,25s26,9,12,17s-8,21,8,19
	s28,7,12,17s-13,19,2,18s26,6,13,16s-22,33,0,32s37,14,19,22s-22,32,0,30s31-2,26,12s7,24,7,24"/>
<polygon style="fill:#FFFFFF;" points="844.501,737.582 853,715 868,715 868,738.516 "/>
<polygon style="fill:#FFFFFF;" points="896,715 896,736.096 916.638,736.096 906,715 "/>
<polygon style="fill:#FFFFFF;" points="932,633 1023.344,600 1066,616 1066,652 955,658 "/>
<path style="fill:none;stroke:#FFFFFF;stroke-width:15;stroke-miterlimit:10;" d="M1037.5,639c0,0,61-28,57,25s-52,73-52,73l-5,293"
	/>
<path style="fill:none;stroke:#FFFFFF;stroke-width:15;stroke-miterlimit:10;" d="M919.5,1078.5c0,0-11-48,36-49s182,0,182,0
	s36-10,33,49"/>
<line style="fill:none;stroke:#FFFFFF;stroke-width:15;stroke-miterlimit:10;" x1="1085.5" y1="1034.5" x2="1085.5" y2="1078.5"/>
<path style="fill:#FFFFFF;stroke:#FF6200;stroke-width:5;stroke-miterlimit:10;" d="M721.511,409.442L721.511,409.442L710,357
	c0,0-7.731-22.735-27.743-44.465C663.648,285.059,632.184,267,596.5,267c-25.731,0-49.267,9.393-67.373,24.934L529,292
	c0,0-0.024,0.038-0.06,0.093c-11.512,9.929-20.811,22.35-27.065,36.426c-15.005,18.34-35.079,40.153-57.223,56.897
	c-5.391,2.433-10.338,5.242-14.706,8.394C416.604,403.434,408.5,416.11,408.5,430c0,30.099,38.056,54.5,85,54.5
	c25.271,0,47.954-7.078,63.523-18.303C569.189,471.222,582.519,474,596.5,474c27.871,0,53.165-11.02,71.773-28.935
	C673.52,456.408,683.077,464,694,464c16.568,0,30-17.461,30-39C724,419.468,723.108,414.209,721.511,409.442z"/>
<path style="fill:#FF6200;stroke:#FFFFFF;stroke-width:5;stroke-miterlimit:10;" d="M609.004,291.5
	c-43.481,0-79.833,31.763-88.846,74.224c-3.491-0.907-7.262-1.402-11.197-1.402c-17.928,0-32.461,10.272-32.461,22.944
	c0,12.672,14.533,22.944,32.461,22.944c4.094,0,8.008-0.541,11.616-1.519c9.672,41.516,45.59,72.346,88.427,72.346
	c50.256,0,90.996-42.429,90.996-94.768S659.259,291.5,609.004,291.5z"/>
<ellipse style="fill:#FFFFFF;" cx="626.596" cy="375.312" rx="7.121" ry="13.147"/>
<ellipse style="fill:#FFFFFF;" cx="673.158" cy="376.956" rx="6.574" ry="14.79"/>
<polyline style="fill:#FFFFFF;" points="651.794,383.529 656.176,414.206 643.029,419.684 "/>
<path style="fill:none;stroke:#FFFFFF;stroke-width:5;stroke-linecap:round;stroke-miterlimit:10;" d="M498.318,388.762
	c0,0,17.029-7.98,30.864,0"/>
<path style="fill:#FFFFFF;" d="M510.5,364.905c0,0,97.142,14.669,145.5-62.012L643.52,283h-81.462L510.5,364.905z"/>
<path style="fill:#FF6200;stroke:#FFFFFF;stroke-width:6;stroke-miterlimit:10;" d="M1003.5,560.5c0,0,8-21-12-18l-42,15
	c0,0,3-20-12-15l-31,54l1.197,1.539c-10.52,6.939-122.479,77.352-207.697-9.901L650.5,639.5c0,0,8,74,128,70
	c108.541-3.618,154.9-57.956,162.765-68.302l0.235,0.302l76-10C1017.5,631.5,1037.5,574.5,1003.5,560.5z"/>
<path style="fill:#FF6200;stroke:#FFFFFF;stroke-width:6;stroke-miterlimit:10;" d="M807.5,839.418
	c-33.6-25.555-72.314-26.833-86.459-26.322L608,792l-200,26.953c0,0-20,64.887,15,66.884l163.374,5.404L585,896.833l-46,181.669
	L722.5,1080h98C820.5,1080,849.5,871.362,807.5,839.418z"/>
<path style="fill:#FFFFFF;stroke:#FF6200;stroke-width:5;stroke-miterlimit:10;" d="M561.5,853.5"/>
<circle style="fill:#FF6200;" cx="500.5" cy="664.5" r="12.5"/>
<circle style="fill:#FF6200;" cx="500.5" cy="748.5" r="12.5"/>
<g>
	<path style="fill:#FFFFFF;" d="M626.5,415.5c-3.206,0.636-6.083,1.921-8.798,3.409c-2.697,1.538-5.171,3.403-7.498,5.452
		l-1.729,1.562l-1.642,1.67l-0.831,0.83l-0.778,0.884c-0.518,0.591-1.052,1.171-1.595,1.749c-1.011,1.213-2.013,2.449-3.063,3.666
		c-0.98,1.267-1.958,2.547-3.066,3.778c0.521-1.55,1.173-3.051,1.821-4.566c0.778-1.435,1.546-2.897,2.436-4.284
		c0.464-0.681,0.937-1.359,1.426-2.026l0.732-1.003l0.812-0.943l1.661-1.86c0.596-0.582,1.22-1.139,1.831-1.707
		c2.509-2.197,5.345-4.093,8.484-5.311c1.567-0.605,3.18-1.088,4.838-1.328C623.191,415.246,624.882,415.149,626.5,415.5z"/>
</g>
<path style="fill:#FFFFFF;" d="M709,587.233L650,506l-47.353-6.063l0,0L540.545,485c0,0-142.545-29-142.545,244v95l245,7
	l-8.022-172.143L645,652L709,587.233z"/>
<path style="fill:#FF6200;" d="M457,955"/>
<path style="fill:#FF6200;stroke:#FFFFFF;stroke-width:5;stroke-miterlimit:10;" d="M619.5,448.5c0,0,35.488-30.274,50.744,7.863"/>
<g>
	<path style="fill:#FFFFFF;" d="M250.5,198.5c12.551-6.886,25.093-13.79,37.686-20.597l37.742-20.491l18.872-10.244l18.907-10.177
		l37.82-20.341l6.801-3.658l-4.051,6.612l-25.224,41.171l-25.294,41.128l-25.333,41.104l-25.435,41.041l-3.845-4.145l39.222-20.553
		l39.269-20.464l39.278-20.447l39.316-20.373l10.986-5.693l-7.529,9.792l-41.756,54.305l-41.896,54.198l-2.402-2.886l41.699-20.607
		l41.773-20.46l1.694-0.83l-0.438,1.811l-6.871,28.415L444.5,324.5l6.013-28.611l6.129-28.585l1.256,0.981l-41.227,21.54
		l-41.301,21.393l-7.469,3.869l5.066-6.755l41.104-54.802l41.244-54.695l3.457,4.099l-39.184,20.627l-39.222,20.553l-39.231,20.535
		l-39.277,20.447l-9.528,4.96l5.683-9.105l25.565-40.959l25.666-40.896l25.706-40.872l25.775-40.829l2.75,2.955l-38.179,19.659
		l-19.093,9.823l-19.128,9.756l-38.258,19.509C276.074,185.623,263.282,192.053,250.5,198.5z"/>
</g>
<path style="fill:#FF6200;stroke:#FFFFFF;stroke-width:5;stroke-miterlimit:10;" d="M531.647,798H315.353
	C291.962,798,273,779.038,273,755.647V642.353C273,618.962,291.962,600,315.353,600h216.294C555.038,600,574,618.962,574,642.353
	v113.294C574,779.038,555.038,798,531.647,798z"/>
<rect x="329" y="798" style="fill:#FFFFFF;" width="29" height="82"/>
<rect x="481" y="797" style="fill:#FFFFFF;" width="29" height="82"/>
<path style="fill:#FFFFFF;" d="M744.5,927h-433c-15.188,0-27.5-12.312-27.5-27.5l0,0c0-15.188,12.312-27.5,27.5-27.5h433
	c15.188,0,27.5,12.312,27.5,27.5l0,0C772,914.688,759.688,927,744.5,927z"/>
<rect x="317" y="911" style="fill:#FFFFFF;" width="37" height="169"/>
<rect x="495" y="911" style="fill:#FFFFFF;" width="37" height="169"/>
<rect x="700" y="911" style="fill:#FFFFFF;" width="37" height="169"/>
<rect x="610" y="911" style="fill:#FFFFFF;" width="37" height="169"/>
<circle style="fill:#FFFFFF;" cx="341.5" cy="658.5" r="12.5"/>
<circle style="fill:#FFFFFF;" cx="343.5" cy="742.5" r="12.5"/>
<circle style="fill:#FFFFFF;" cx="500.5" cy="664.5" r="12.5"/>
<circle style="fill:#FFFFFF;" cx="500.5" cy="748.5" r="12.5"/>
</svg>
