<?xml version="1.0" encoding="iso-8859-1"?>
<!-- Generator: Adobe Illustrator 25.0.1, SVG Export Plug-In . SVG Version: 6.00 Build 0)  -->
<svg version="1.1" id="&#xB808;&#xC774;&#xC5B4;_1" xmlns="http://www.w3.org/2000/svg" xmlns:xlink="http://www.w3.org/1999/xlink"
	 x="0px" y="0px" viewBox="0 0 1920 2160" style="enable-background:new 0 0 1920 2160;" xml:space="preserve">
<g id="&#xB808;&#xC774;&#xC5B4;_2_1_">
	<rect y="0" style="fill:#FFFFFF;" width="1920" height="2160"/>
</g>
<g id="&#xB808;&#xC774;&#xC5B4;_1_1_">
	<ellipse style="fill:#FF6200;" cx="966" cy="1782" rx="375" ry="133"/>
	<rect x="591.648" y="1729" style="fill:#FF6200;" width="748.705" height="58"/>
	<ellipse style="fill:#FF6200;stroke:#FFFFFF;stroke-width:5;stroke-miterlimit:10;" cx="966" cy="1734" rx="375" ry="133"/>
	<polygon style="fill:#FF6200;stroke:#FFFFFF;stroke-width:5;stroke-miterlimit:10;" points="752.586,1665.5 629.5,1731.543 
		948.914,1803 1013,1721.799 	"/>
	<polygon style="fill:#FF6200;stroke:#FFFFFF;stroke-width:5;stroke-miterlimit:10;" points="1014.827,1723.47 749.173,1665.054 
		767.5,1517.5 1046.827,1577.947 	"/>
	<polygon style="fill:#FFFFFF;stroke:#FF6200;stroke-width:5;stroke-miterlimit:10;" points="779.5,1536.5 762.5,1653.5 
		851.5,1673.5 884.5,1565.5 	"/>
	<ellipse style="fill:#FF6200;" cx="817.121" cy="1589.25" rx="19.379" ry="22.25"/>
	<polygon style="fill:#FF6200;" points="774,1658 798,1619 825,1621 825,1668.928 	"/>
	<polygon style="fill:#FFFFFF;" points="889,1578 979,1597 972,1611 898,1595 900,1585 	"/>
	<polygon style="fill:#FFFFFF;" points="869.779,1636.562 959.779,1655.562 952.779,1669.562 878.779,1653.562 880.779,1643.562 	
		"/>
	<polygon style="fill:#FFFFFF;" points="973,1631 916,1614 911,1625 979,1653 	"/>
	<path style="fill:#FF6200;" d="M865.5,1887c0,0,79,148-3,269h171c0,0-66-172,8-269H865.5z"/>
	<path style="fill:#FFFFFF;" d="M1075.442,1830.221l-25.863-31.883c-5.384-6.636-4.368-16.381,2.269-21.764l62.947-51.063
		c6.636-5.384,16.381-4.368,21.764,2.269l25.863,31.883c5.384,6.636,4.368,16.381-2.269,21.764l-62.947,51.063
		C1090.569,1837.873,1080.825,1836.857,1075.442,1830.221z"/>
	<circle style="fill:#FF6200;" cx="1076" cy="1807" r="7"/>
	<polygon style="fill:#FF6200;" points="1071,1774 1098,1814 1155,1774 1125,1734 	"/>
	<path style="fill:#FF6200;" d="M721.511,1490.442L721.511,1490.442L710,1438c0,0-7.731-22.735-27.743-44.465
		C663.648,1366.059,632.184,1348,596.5,1348c-25.731,0-49.267,9.393-67.373,24.934L529,1373c0,0-0.024,0.038-0.06,0.093
		c-11.512,9.929-20.811,22.35-27.065,36.426c-15.005,18.34-35.079,40.153-57.223,56.897c-5.391,2.433-10.338,5.242-14.706,8.394
		c-13.342,9.624-21.446,22.3-21.446,36.19c0,30.099,38.056,54.5,85,54.5c25.271,0,47.954-7.078,63.523-18.303
		c12.166,5.025,25.496,7.803,39.477,7.803c27.871,0,53.165-11.02,71.773-28.935C673.52,1537.408,683.077,1545,694,1545
		c16.568,0,30-17.461,30-39C724,1500.468,723.108,1495.209,721.511,1490.442z"/>
	<path style="fill:#FFFFFF;stroke:#FF6200;stroke-width:5;stroke-miterlimit:10;" d="M609.004,1372.5
		c-43.481,0-79.833,31.763-88.846,74.224c-3.491-0.907-7.262-1.402-11.197-1.402c-17.928,0-32.461,10.272-32.461,22.944
		s14.533,22.944,32.461,22.944c4.094,0,8.008-0.541,11.616-1.519c9.672,41.516,45.59,72.346,88.427,72.346
		c50.256,0,90.996-42.429,90.996-94.768S659.259,1372.5,609.004,1372.5z"/>
	<ellipse style="fill:#FF6200;" cx="626.596" cy="1456.312" rx="7.121" ry="13.147"/>
	<ellipse style="fill:#FF6200;" cx="673.158" cy="1457.956" rx="6.574" ry="14.79"/>
	<polyline style="fill:#FF6200;" points="651.794,1464.529 656.176,1495.206 643.029,1500.684 	"/>
	<path style="fill:none;stroke:#FF6200;stroke-width:5;stroke-linecap:round;stroke-miterlimit:10;" d="M498.318,1469.762
		c0,0,17.029-7.98,30.864,0"/>
	<path style="fill:#FF6200;" d="M508.5,1443.5c0,0,94.206,13.433,141.103-56.784L637.5,1368.5h-79L508.5,1443.5z"/>
	<path style="fill:#FF6200;" d="M558,1566c0,0-115,0-160,244v95l275,7l-17-325L558,1566z"/>
	<path style="fill:#FF6200;stroke:#FFFFFF;stroke-width:5;stroke-miterlimit:10;" d="M1156.118,1670.747l-24.496-103.39
		c-2.849-12.024-14.905-19.462-26.929-16.613l-74.198,17.579c-12.024,2.849-19.462,14.905-16.613,26.929l0.232,0.98
		C987.135,1598.7,966,1621.377,966,1649c0,29.271,23.729,53,53,53c6.816,0,13.324-1.301,19.31-3.644l0.068,0.287
		c2.849,12.024,14.905,19.462,26.929,16.613l74.198-17.579C1151.529,1694.828,1158.967,1682.771,1156.118,1670.747z M1019,1681
		c-17.673,0-32-14.327-32-32s14.327-32,32-32c0.012,0,0.023,0.001,0.035,0.001l14.353,60.58
		C1029.061,1679.763,1024.176,1681,1019,1681z"/>
	<polygon style="fill:#FF6200;" points="656,1587 708,1661 650,1720 	"/>
	<path style="fill:#FFFFFF;stroke:#FF6200;stroke-width:5;stroke-miterlimit:10;" d="M1003.5,1641.5c0,0,8-21-12-18l-42,15
		c0,0,3-20-12-15l-31,54l1.197,1.539c-10.52,6.939-122.479,77.352-207.697-9.901l-49.5,51.362c0,0,8,74,128,70
		c108.541-3.618,154.9-57.956,162.765-68.302l0.235,0.302l76-10C1017.5,1712.5,1037.5,1655.5,1003.5,1641.5z"/>
	<path style="fill:#FFFFFF;stroke:#FF6200;stroke-width:5;stroke-miterlimit:10;" d="M807.5,1920.5
		c-33.6-25.6-72.314-26.88-86.459-26.368L608,1873l-200,27c0,0-20,65,15,67l163.374,5.413l-1.374,5.602L536.5,2166.5h126
		l23.074-190.8l36.134,1.197c7.855,7.343,14.183,22.297,13.792,51.603c-1,75-13,133-13,133h98
		C820.5,2161.5,849.5,1952.5,807.5,1920.5z"/>
	<path style="fill:#FFFFFF;stroke:#FF6200;stroke-width:5;stroke-miterlimit:10;" d="M561.5,1934.5"/>
	<g>
		<path style="fill:#FFFFFF;stroke:#FF6200;stroke-width:5;stroke-miterlimit:10;" d="M536.647,1885H320.353
			c-23.391,0-42.353-18.962-42.353-42.353v-113.294c0-23.391,18.962-42.353,42.353-42.353h216.294
			c23.391,0,42.353,18.962,42.353,42.353v113.294C579,1866.038,560.038,1885,536.647,1885z"/>
		<rect x="334" y="1885" style="fill:#FF6200;" width="29" height="82"/>
		<rect x="486" y="1884" style="fill:#FF6200;" width="29" height="82"/>
		<path style="fill:#FF6200;" d="M749.5,2014h-433c-15.188,0-27.5-12.312-27.5-27.5l0,0c0-15.188,12.312-27.5,27.5-27.5h433
			c15.188,0,27.5,12.312,27.5,27.5l0,0C777,2001.688,764.688,2014,749.5,2014z"/>
		<rect x="322" y="1998" style="fill:#FF6200;" width="37" height="169"/>
		<rect x="500" y="1998" style="fill:#FF6200;" width="37" height="169"/>
		<rect x="705" y="1998" style="fill:#FF6200;" width="37" height="169"/>
		<rect x="615" y="1998" style="fill:#FF6200;" width="37" height="169"/>
	</g>
	<path style="fill:#FFFFFF;stroke:#FF6200;stroke-width:3;stroke-miterlimit:10;" d="M500.913,1503.742l7.624-1.066l-3.197-22.871
		l10.165-1.421l-5.205-18.704c0,0-19.947-3.689-17.105,16.641L500.913,1503.742z"/>
	<g>
		<path style="fill:#FF6200;" d="M269.414,1364.483l8.011-4.652l8.044-4.587l16.14-9.074l16.206-8.946
			c5.397-2.992,10.841-5.893,16.259-8.844l3.968-2.161l-0.608,4.573c-0.882,6.634-1.776,13.267-2.734,19.89l-2.816,19.877
			l-2.957,19.855c-1.004,6.616-1.944,13.241-2.999,19.849l-4.601-2.935l22.483-14.843l11.287-7.354l11.298-7.336l3.612-2.345
			l0.408,4.237c0.624,6.479,1.138,12.969,1.703,19.454l0.83,9.729l0.773,9.735l-1.99-1.648l15.843-0.886l15.852-0.778l0.455-0.022
			l0.255,0.296l6.431,7.465l6.373,7.52l-7.069-6.869l-7.011-6.924l0.71,0.274l-15.762,1.856l-15.771,1.748l-1.752,0.194
			l-0.238-1.843l-1.252-9.685l-1.196-9.691c-0.786-6.462-1.623-12.919-2.349-19.387l4.02,1.892l-11.129,7.591l-11.14,7.574
			l-22.371,15.012l-5.582,3.746l0.98-6.681c0.971-6.621,2.058-13.224,3.081-19.836l3.124-19.83l3.264-19.808
			c1.07-6.606,2.202-13.202,3.347-19.796l3.36,2.411c-5.536,2.723-11.047,5.496-16.604,8.177l-16.657,8.076l-16.723,7.948
			l-8.388,3.923L269.414,1364.483z"/>
	</g>
	<g>
		<path style="fill:#FF6200;" d="M379.413,1254c8.338,1.111,16.664,2.291,24.983,3.506c8.313,1.253,16.633,2.461,24.933,3.783
			l2.319,0.369l-1.156,2.128l-6.047,11.129l-6.102,11.097c-4.094,7.383-8.123,14.803-12.275,22.153l-1.855-3.861l23.626,3.42
			l11.804,1.771l11.801,1.79l4.969,0.754l-3.109,3.974l-10.529,13.457l-10.62,13.385l-10.62,13.385
			c-3.531,4.469-7.13,8.884-10.692,13.329l-2.42-4.412c8.144-0.716,16.282-1.492,24.43-2.158l24.444-2.019l3.112-0.257l-0.975,2.879
			l-6.561,19.378l-6.676,19.342l-0.091-0.766l5.731,10.389l5.662,10.431l-6.539-9.905l-6.47-9.946l-0.214-0.329l0.123-0.437
			l5.525-19.702l5.64-19.666l2.137,2.622l-24.36,2.861c-8.119,0.961-16.25,1.811-24.374,2.722l-6.393,0.717l3.973-5.129
			c3.488-4.503,6.938-9.036,10.457-13.514l10.529-13.457l10.529-13.457l10.62-13.385l1.86,4.728l-11.788-1.87l-11.785-1.89
			l-23.551-3.901l-3.745-0.62l1.89-3.241c4.253-7.292,8.629-14.513,12.94-21.771l6.506-10.865l6.561-10.833l1.162,2.497
			c-8.239-1.661-16.458-3.435-24.684-5.164C395.827,1257.674,387.614,1255.872,379.413,1254z"/>
	</g>
	<g>
		<path style="fill:#FF6200;" d="M910.5,1500.5c5.527-4.406,11.938-7.666,18.724-9.966c6.794-2.229,14.174-3.373,21.568-2.378
			c7.379,0.958,14.545,4.608,19.496,10.114c4.94,5.525,7.891,12.332,9.212,19.23c-3.294-6.216-7.05-12.048-11.981-16.439
			c-4.924-4.383-10.964-7.074-17.423-7.956c-6.467-0.877-13.208-0.22-19.838,1.207c-3.318,0.723-6.639,1.599-9.919,2.669
			C917.037,1498.005,913.777,1499.205,910.5,1500.5z"/>
	</g>
	<g>
		<path style="fill:#FF6200;" d="M891.5,1464.5c5.074-4.64,10.684-8.675,16.492-12.403c5.846-3.67,11.971-6.958,18.407-9.62
			c6.413-2.712,13.17-4.72,20.142-5.87c6.971-1.094,14.219-1.143,21.279,0.308c7.039,1.5,13.782,4.63,19.406,9.102
			c2.806,2.241,5.365,4.756,7.669,7.462c2.282,2.724,4.302,5.634,6.093,8.66c7.086,12.184,10.734,25.784,12.512,39.362
			c-1.943-6.584-3.988-13.106-6.579-19.381c-2.548-6.282-5.585-12.334-9.24-17.91c-1.873-2.757-3.906-5.379-6.085-7.848
			c-2.221-2.431-4.645-4.649-7.256-6.591c-2.607-1.944-5.38-3.651-8.331-4.986c-2.949-1.337-6.051-2.323-9.228-2.982
			c-6.351-1.399-13.007-1.393-19.565-0.523c-6.583,0.819-13.064,2.627-19.42,4.825c-6.338,2.267-12.554,4.995-18.593,8.114
			C903.143,1457.305,897.238,1460.739,891.5,1464.5z"/>
	</g>
	<g>
		<path style="fill:#FF6200;" d="M857.5,1434.5c8.189-7.36,17.119-13.885,26.371-19.908c9.292-5.967,19.011-11.337,29.206-15.753
			c10.169-4.458,20.859-7.895,31.918-9.829c11.044-1.875,22.568-2.03,33.688,0.497c11.094,2.56,21.554,7.98,30.029,15.531
			c8.435,7.606,15.132,16.872,20.201,26.809c5.091,9.943,8.856,20.448,11.667,31.137c2.76,10.709,4.714,21.58,5.92,32.516
			c-2.301-10.757-4.89-21.43-8.276-31.826c-0.867-2.59-1.753-5.172-2.658-7.744l-1.477-3.811c-0.491-1.27-0.969-2.545-1.535-3.782
			c-1.095-2.49-2.124-5.005-3.348-7.426c-0.604-1.213-1.141-2.462-1.799-3.645l-1.931-3.57c-0.615-1.206-1.372-2.327-2.056-3.49
			c-0.71-1.147-1.37-2.326-2.156-3.419l-2.254-3.348l-2.422-3.216c-3.308-4.218-6.955-8.15-10.989-11.616
			c-8.037-6.965-17.698-11.914-28.042-14.23c-10.329-2.445-21.201-2.346-31.81-0.706c-10.649,1.592-21.06,4.817-31.182,8.759
			c-10.103,4.017-19.931,8.83-29.431,14.252C875.614,1422.071,866.373,1428.004,857.5,1434.5z"/>
	</g>
	<path style="fill:none;stroke:#FF6200;stroke-width:5;stroke-miterlimit:10;" d="M607.545,1495.5c0,0-8.478,37,71.455,31"/>
	<circle style="fill:#FF6200;" cx="346.5" cy="1745.5" r="12.5"/>
	<circle style="fill:#FF6200;" cx="348.5" cy="1829.5" r="12.5"/>
	<circle style="fill:#FF6200;" cx="500.5" cy="1745.5" r="12.5"/>
	<circle style="fill:#FF6200;" cx="500.5" cy="1829.5" r="12.5"/>
</g>
</svg>
