<?xml version="1.0" encoding="utf-8"?>
<!-- Generator: Adobe Illustrator 25.0.1, SVG Export Plug-In . SVG Version: 6.00 Build 0)  -->
<svg version="1.1" id="레이어_1" xmlns="http://www.w3.org/2000/svg" xmlns:xlink="http://www.w3.org/1999/xlink" x="0px"
	 y="0px" viewBox="0 0 1920 2160" style="enable-background:new 0 0 1920 2160;" xml:space="preserve">
<style type="text/css">
	.st0{fill:#27304D;}
	.st1{fill:#FFFFFF;}
	.st2{fill:none;stroke:#FFFFFF;stroke-width:15;stroke-miterlimit:10;}
	.st3{fill:#FFFFFF;stroke:#29314B;stroke-width:5;stroke-miterlimit:10;}
	.st4{fill:#29314B;stroke:#FFFFFF;stroke-width:5;stroke-miterlimit:10;}
	.st5{fill:none;stroke:#FFFFFF;stroke-width:5;stroke-linecap:round;stroke-miterlimit:10;}
	.st6{fill:#29314B;stroke:#FFFFFF;stroke-width:6;stroke-miterlimit:10;}
	.st7{fill:#FFFFFF;stroke:#EC5528;stroke-width:5;stroke-miterlimit:10;}
	.st8{fill:#EC5528;}
	.st9{fill:none;stroke:#FFFFFF;stroke-width:5;stroke-miterlimit:10;}
	.st10{fill:none;stroke:#FFFFFF;stroke-miterlimit:10;}
</style>
<rect x="-0.3" class="st0" width="1920" height="2161.4"/>
<polygon class="st1" points="931.7,1715.4 1023,1682.4 1065.7,1698.4 1065.7,1734.4 954.7,1740.4 "/>
<path class="st2" d="M1037.2,1721.4c0,0,61-28,57,25s-52,73-52,73l-5,293"/>
<path class="st3" d="M721.2,1491.9L721.2,1491.9l-11.5-52.4c0,0-7.7-22.7-27.7-44.5c-18.6-27.5-50.1-45.5-85.8-45.5
	c-25.7,0-49.3,9.4-67.4,24.9l-0.1,0.1c0,0,0,0-0.1,0.1c-11.5,9.9-20.8,22.3-27.1,36.4c-15,18.3-35.1,40.2-57.2,56.9
	c-5.4,2.4-10.3,5.2-14.7,8.4c-13.3,9.6-21.4,22.3-21.4,36.2c0,30.1,38.1,54.5,85,54.5c25.3,0,48-7.1,63.5-18.3
	c12.2,5,25.5,7.8,39.5,7.8c27.9,0,53.2-11,71.8-28.9c5.2,11.3,14.8,18.9,25.7,18.9c16.6,0,30-17.5,30-39
	C723.7,1501.9,722.8,1496.6,721.2,1491.9z"/>
<path class="st4" d="M608.7,1373.9c-43.5,0-79.8,31.8-88.8,74.2c-3.5-0.9-7.3-1.4-11.2-1.4c-17.9,0-32.5,10.3-32.5,22.9
	s14.5,22.9,32.5,22.9c4.1,0,8-0.5,11.6-1.5c9.7,41.5,45.6,72.3,88.4,72.3c50.3,0,91-42.4,91-94.8S658.9,1373.9,608.7,1373.9z"/>
<ellipse class="st1" cx="626.3" cy="1457.7" rx="7.1" ry="13.1"/>
<ellipse class="st1" cx="672.8" cy="1459.4" rx="6.6" ry="14.8"/>
<polyline class="st1" points="651.5,1466 655.9,1496.6 642.7,1502.1 "/>
<path class="st5" d="M498,1471.2c0,0,17-8,30.9,0"/>
<path class="st1" d="M510.2,1447.3c0,0,97.1,14.7,145.5-62l-12.5-19.9h-81.5L510.2,1447.3z"/>
<path class="st6" d="M1003.2,1642.9c0,0,8-21-12-18l-42,15c0,0,3-20-12-15l-31,54l1.2,1.5c-10.5,6.9-122.5,77.4-207.7-9.9
	l-49.5,51.4c0,0,8,74,128,70c108.5-3.6,154.9-58,162.8-68.3l0.2,0.3l76-10C1017.2,1713.9,1037.2,1656.9,1003.2,1642.9z"/>
<path class="st6" d="M807.2,1921.9c-33.6-25.6-72.3-26.9-86.5-26.4l-113-21.1l-200,27c0,0-20,65,15,67l163.4,5.4l-1.4,5.6l-46,182
	l183.5,1.5h98C820.2,2162.9,849.2,1953.9,807.2,1921.9z"/>
<path class="st7" d="M561.2,1935.9"/>
<circle class="st8" cx="500.2" cy="1746.9" r="12.5"/>
<circle class="st8" cx="500.2" cy="1830.9" r="12.5"/>
<g>
	<path class="st1" d="M626.2,1497.9c-3.2,0.6-6.1,1.9-8.8,3.4c-2.7,1.5-5.2,3.4-7.5,5.5l-1.7,1.6l-1.6,1.7l-0.8,0.8l-0.8,0.9
		c-0.5,0.6-1.1,1.2-1.6,1.7c-1,1.2-2,2.4-3.1,3.7c-1,1.3-2,2.5-3.1,3.8c0.5-1.6,1.2-3.1,1.8-4.6c0.8-1.4,1.5-2.9,2.4-4.3
		c0.5-0.7,0.9-1.4,1.4-2l0.7-1l0.8-0.9l1.7-1.9c0.6-0.6,1.2-1.1,1.8-1.7c2.5-2.2,5.3-4.1,8.5-5.3c1.6-0.6,3.2-1.1,4.8-1.3
		C622.9,1497.7,624.6,1497.6,626.2,1497.9z"/>
</g>
<path class="st1" d="M708.7,1669.7l-59-81.2l-47.4-6.1l0,0l-62.1-14.9c0,0-142.5-29-142.5,244v95l245,7l-8-172.1l10-6.9
	L708.7,1669.7z"/>
<path class="st8" d="M456.7,2037.4"/>
<path class="st9" d="M619.2,1530.9c0,0,35.5-30.3,50.7,7.9"/>
<path class="st4" d="M531.3,1880.4H0.5v-198h530.8c23.4,0,42.4,19,42.4,42.4v113.3C573.7,1861.5,554.7,1880.4,531.3,1880.4z"/>
<rect x="328.7" y="1880.4" class="st1" width="29" height="82"/>
<rect x="480.7" y="1879.4" class="st1" width="29" height="82"/>
<path class="st1" d="M744.2,2009.4H0v-55h744.2c15.2,0,27.5,12.3,27.5,27.5l0,0C771.7,1997.1,759.4,2009.4,744.2,2009.4z"/>
<rect x="18" y="1991" class="st1" width="37" height="169"/>
<rect x="494.7" y="1993.4" class="st1" width="37" height="169"/>
<rect x="699.7" y="1993.4" class="st1" width="37" height="169"/>
<circle class="st1" cx="500.2" cy="1746.9" r="12.5"/>
<circle class="st1" cx="500.2" cy="1830.9" r="12.5"/>
<path class="st2" d="M911.5,2162c0,0-11-48,36-49s182,0,182,0s36-10,33,49"/>
<line class="st2" x1="1077.5" y1="2118" x2="1077.5" y2="2162"/>
<path class="st9" d="M199.5,1238.5c0,0,18,32,41,32"/>
<path class="st1" d="M218.5,1263.5c0,0-13,20,3,45l7,12l37-18l-6-14l18,6l5-40C282.5,1254.5,247.5,1234.5,218.5,1263.5z"/>
<path class="st9" d="M820.5,1488.5c0,0,33,0,51-26"/>
<path class="st1" d="M864.3,1470.9c0,0-31.3,11.1-54.3-8.9C810,1462,839.7,1437.8,864.3,1470.9z"/>
<path class="st1" d="M864.3,1473.6c0,0-34.3-16.8-36.3-51.7C828,1421.9,871.7,1426.8,864.3,1473.6z"/>
<path class="st1" d="M897.1,1413.6c0,0-3,41.3-37.4,57.5C859.8,1471.1,847,1425.1,897.1,1413.6z"/>
<path class="st1" d="M858.2,1464.7c0,0,13.1,28.3,41.6,30.6C899.8,1495.3,896.5,1459.5,858.2,1464.7z"/>
<path class="st1" d="M862.8,1472.9c0,0,43.1,2.1,64.2-31.3C927,1441.7,881.1,1422.6,862.8,1472.9z"/>
<path class="st9" d="M1079.8,1599.8c0,0,6.3,18.7,24.5,24"/>
<path class="st1" d="M1098.2,1621.3c0,0-12.3-15.7-5.3-32.6C1092.9,1588.8,1112.3,1601,1098.2,1621.3z"/>
<path class="st1" d="M1096.7,1621.8c0,0,3-22.7,22.5-30.5C1119.1,1591.4,1124.7,1617.1,1096.7,1621.8z"/>
<path class="st1" d="M1137,1629c0,0-24,6.1-39.8-10.3C1097.2,1618.8,1120.9,1602.8,1137,1629z"/>
<path class="st1" d="M1100.5,1616.7c0,0-13.6,12.8-9.5,29.5C1091.1,1646.1,1110.8,1637.5,1100.5,1616.7z"/>
<path class="st1" d="M1096.8,1620.8c0,0,7,24.9,30,30.5C1126.7,1651.4,1128.8,1621.7,1096.8,1620.8z"/>
<path class="st9" d="M490.9,1223.7c0,0,16.2,24.3,34.4,22.9"/>
<path class="st1" d="M507.5,1242.4c0,0-9.1,16.6,5.1,35.5l6.3,9.1l28.3-16.5l-5.6-10.7l14.6,3.7l1.6-32
	C557.7,1231.4,528.8,1217.7,507.5,1242.4z"/>
<path class="st9" d="M922.1,1940.7c0,0,6.3,18.7,24.5,24"/>
<path class="st1" d="M940.5,1962.2c0,0-12.3-15.7-5.3-32.6C935.2,1929.6,954.6,1941.9,940.5,1962.2z"/>
<path class="st1" d="M939,1962.7c0,0,3-22.7,22.5-30.5C961.4,1932.2,966.9,1958,939,1962.7z"/>
<path class="st1" d="M979.3,1969.9c0,0-24,6.1-39.8-10.3C939.5,1959.6,963.2,1943.6,979.3,1969.9z"/>
<path class="st1" d="M944.6,1960.7c0,0-18.3,3.5-23.8,19.8C920.8,1980.5,942.1,1983.8,944.6,1960.7z"/>
<path class="st1" d="M940.2,1959.2c0,0-1.1,25.8,19.1,38.3C959.3,1997.5,970.4,1969.9,940.2,1959.2z"/>
<path class="st9" d="M1265.9,1844.7c0,0,26,0.7,40.8-19.4"/>
<path class="st1" d="M1300.8,1831.8c0,0-25,8.1-42.7-8.2C1258.2,1823.6,1282.1,1805.1,1300.8,1831.8z"/>
<path class="st1" d="M1300.8,1833.9c0,0-26.7-14-27.5-41.6C1273.2,1792.3,1307.6,1797.1,1300.8,1833.9z"/>
<path class="st1" d="M1327.9,1787.3c0,0-3.3,32.5-30.7,44.5C1297.2,1831.8,1288.2,1795.3,1327.9,1787.3z"/>
<path class="st1" d="M1300.9,1826c0,0-3.9,24.3,13.7,38.4C1314.6,1864.4,1328.2,1839.6,1300.9,1826z"/>
<path class="st1" d="M1297,1830.7c0,0,31.4,13,56-6.2C1353,1824.5,1324,1798.2,1297,1830.7z"/>
<path class="st9" d="M137.7,1512.7c0,0,14.6,21.6,39.5,21.9"/>
<path class="st1" d="M168.6,1533.6c0,0-21.1-15.6-18.2-39.4C150.4,1494.1,179.3,1502.9,168.6,1533.6z"/>
<path class="st1" d="M166.8,1534.8c0,0-4.1-29.8,17.8-46.6C184.6,1488.2,200.7,1518.9,166.8,1534.8z"/>
<path class="st1" d="M220.5,1529.7c0,0-28.3,16.2-54.1,1C166.4,1530.7,190.9,1502,220.5,1529.7z"/>
<path class="st1" d="M173.3,1530.3c0,0-22,11-23.2,33.5C150,1563.7,178.2,1560.4,173.3,1530.3z"/>
<path class="st1" d="M167.2,1529.9c0,0,7.7,33.1,37.6,41.9C204.8,1571.8,209.3,1532.9,167.2,1529.9z"/>
<path class="st10" d="M441.5,1224c0,0-286.2-118.1-341.8-244.1"/>
<path class="st10" d="M495.9,1583.4c0,0-294-97.2-358.4-218.9"/>
<path class="st10" d="M167,1612c0,0-93.5-25.3-117.9-96.4"/>
<path class="st10" d="M1126.5,1787.5c0,0,78,38,105,37"/>
</svg>
