<?xml version="1.0" encoding="iso-8859-1"?>
<!-- Generator: Adobe Illustrator 25.0.1, SVG Export Plug-In . SVG Version: 6.00 Build 0)  -->
<svg version="1.1" id="&#xB808;&#xC774;&#xC5B4;_1" xmlns="http://www.w3.org/2000/svg" xmlns:xlink="http://www.w3.org/1999/xlink"
	 x="0px" y="0px" viewBox="0 0 64 64" style="enable-background:new 0 0 64 64;" xml:space="preserve">
<g>
	<circle style="fill:#FFFFFF;stroke:#FF6200;stroke-miterlimit:10;" cx="32.222" cy="31.988" r="30.972"/>
	<path style="fill:#FF6200;" d="M52.064,30.518L52.064,30.518l-1.618-7.37c0,0-1.086-3.195-3.899-6.249
		c-2.615-3.861-7.037-6.399-12.052-6.399c-3.616,0-6.924,1.32-9.468,3.504l-0.018,0.009c0,0-0.003,0.005-0.008,0.013
		c-1.618,1.395-2.925,3.141-3.804,5.119c-2.109,2.577-4.93,5.643-8.042,7.996c-0.758,0.342-1.453,0.737-2.067,1.18
		c-1.875,1.353-3.014,3.134-3.014,5.086c0,4.23,5.348,7.659,11.946,7.659c3.552,0,6.739-0.995,8.927-2.572
		c1.71,0.706,3.583,1.097,5.548,1.097c3.917,0,7.472-1.549,10.087-4.067c0.737,1.594,2.08,2.661,3.616,2.661
		c2.328,0,4.216-2.454,4.216-5.481C52.414,31.927,52.289,31.188,52.064,30.518z"/>
	<path style="fill:#FCFCFC;" d="M36.253,13.942c-6.111,0-11.22,4.464-12.486,10.431c-0.491-0.127-1.021-0.197-1.574-0.197
		c-2.52,0-4.562,1.444-4.562,3.224c0,1.781,2.042,3.224,4.562,3.224c0.575,0,1.125-0.076,1.632-0.213
		c1.359,5.834,6.407,10.167,12.427,10.167c7.063,0,12.788-5.963,12.788-13.319S43.315,13.942,36.253,13.942z"/>
	<path style="fill:#FF6200;" d="M36.252,41.001c-5.983,0-11.163-4.125-12.736-10.083c-0.43,0.086-0.874,0.129-1.323,0.129
		c-2.748,0-4.984-1.636-4.984-3.647s2.236-3.647,4.984-3.647c0.427,0,0.847,0.039,1.256,0.116c1.472-6.023,6.791-10.35,12.804-10.35
		c7.284,0,13.211,6.164,13.211,13.741S43.537,41.001,36.252,41.001z M24.137,29.89l0.099,0.426c1.35,5.794,6.292,9.841,12.016,9.841
		c6.819,0,12.367-5.785,12.367-12.896c0-7.111-5.548-12.897-12.367-12.897c-5.754,0-10.831,4.246-12.073,10.097l-0.092,0.432
		l-0.427-0.111c-0.469-0.122-0.963-0.183-1.468-0.183c-2.283,0-4.14,1.257-4.14,2.802c0,1.545,1.857,2.802,4.14,2.802
		c0.523,0,1.035-0.067,1.522-0.199L24.137,29.89z"/>
	<ellipse style="fill:#FF6200;" cx="38.725" cy="25.721" rx="1.001" ry="1.848"/>
	<ellipse style="fill:#FF6200;" cx="45.269" cy="25.952" rx="0.924" ry="2.079"/>
	<polyline style="fill:#FF6200;" points="42.266,26.876 42.882,31.187 41.034,31.957 	"/>
	<path style="fill:#FF6200;" d="M25.034,28.033c-0.072,0-0.144-0.018-0.211-0.056c-1.725-0.995-3.926,0.007-3.948,0.017
		c-0.212,0.099-0.462,0.007-0.561-0.204c-0.099-0.211-0.008-0.462,0.203-0.561c0.106-0.049,2.617-1.201,4.728,0.016
		c0.202,0.117,0.271,0.375,0.155,0.577C25.322,27.958,25.18,28.033,25.034,28.033z"/>
	<path style="fill:#FF6200;" d="M22.128,23.921c0,0,13.239,1.888,19.83-7.98l-1.701-2.56H29.155L22.128,23.921z"/>
	<path style="fill:#FF6200;" d="M43.75,36.1c-3.592,0-6.043-0.737-7.301-2.2c-1.129-1.313-0.826-2.708-0.813-2.767l0.823,0.189
		l-0.411-0.094l0.412,0.092c-0.009,0.043-0.215,1.063,0.644,2.047c0.923,1.058,3.227,2.226,8.955,1.797l0.063,0.842
		C45.283,36.069,44.492,36.1,43.75,36.1z"/>
	<path style="fill:#FF6200;" d="M28.023,41.962c0,0-10.499,4.2-11.024,16.799c0,0,9.498,6.851,24.96,2.638
		c0,0,6.013-2.113,8.56-4.42l-7.797-14.492C42.721,42.487,35.897,46.686,28.023,41.962z"/>
</g>
</svg>
