<?xml version="1.0" encoding="iso-8859-1"?>
<!-- Generator: Adobe Illustrator 25.0.1, SVG Export Plug-In . SVG Version: 6.00 Build 0)  -->
<svg version="1.1" xmlns="http://www.w3.org/2000/svg" xmlns:xlink="http://www.w3.org/1999/xlink" x="0px" y="0px"
	 viewBox="0 0 672 736" style="enable-background:new 0 0 672 736;" xml:space="preserve">
<g id="logo__x3145_">
	<g>
		<path style="fill:#FFFFFF;" d="M-1724.075,122.499L-1604,231.487l-44.341,48.945l-75.734-68.339l-74.813,68.339l-45.252-49.875
			L-1724.075,122.499z"/>
	</g>
	<g>
		<path style="fill:#FFFFFF;" d="M197.575,10.661l186.73,169.488l-68.955,76.115L197.575,149.989L81.232,256.263l-70.373-77.562
			L197.575,10.661z"/>
	</g>
</g>
<g id="logo__x3147_">
	<path style="fill:#FFFFFF;" d="M-1517,279c-54.124,0-98,43.876-98,98s43.876,98,98,98s98-43.876,98-98S-1462.876,279-1517,279z
		 M-1517,409.61c-18.01,0-32.61-14.6-32.61-32.61s14.6-32.61,32.61-32.61s32.61,14.6,32.61,32.61S-1498.99,409.61-1517,409.61z"/>
	<path style="fill:#FFFFFF;" d="M510.599,227.037c-84.169,0-152.401,68.232-152.401,152.401s68.232,152.401,152.401,152.401
		S663,463.606,663,379.438S594.768,227.037,510.599,227.037z M510.599,430.15c-28.008,0-50.712-22.705-50.712-50.712
		c0-28.008,22.705-50.712,50.712-50.712c28.008,0,50.712,22.705,50.712,50.712C561.312,407.445,538.607,430.15,510.599,430.15z"/>
</g>
<g id="_x3147__1_">
	<g>
		<path style="fill:#FFFFFF;" d="M-1916.775,600.045c10.185,0,18.299,8.114,18.299,17.954c0,9.84-8.114,17.952-18.299,17.952
			c-9.84,0-17.954-8.112-17.954-17.952C-1934.729,608.159-1926.615,600.045-1916.775,600.045z M-1916.602,623.004
			c2.59,0,4.833-2.071,4.833-5.005s-2.244-5.179-4.833-5.179c-2.762,0-4.834,2.244-4.834,5.179S-1919.365,623.004-1916.602,623.004z
			"/>
	</g>
</g>
<g id="_x315C_">
	<polygon style="fill:#FFFFFF;" points="-1909.87,661.328 -1909.87,681.009 -1923.163,681.009 -1923.163,661.328 -1941.116,661.328 
		-1941.116,648.554 -1892.089,648.554 -1892.089,661.328 	"/>
</g>
<g id="_x3139_">
	<polygon style="fill:#FFFFFF;" points="-1839.087,575.014 -1839.087,611.612 -1859.631,611.612 -1859.631,622.66 -1839.087,622.66 
		-1839.087,635.435 -1872.924,635.435 -1872.924,598.837 -1852.38,598.837 -1852.38,587.789 -1872.924,587.789 -1872.924,575.014 	
		"/>
</g>
<g id="_x3163_">
	<path style="fill:#FFFFFF;" d="M-1821.48,635.435v-62.04h13.293v62.04H-1821.48z"/>
</g>
<g id="&#xB3C4;">
	<polygon style="fill:#FFFFFF;" points="-1774.692,613.51 -1774.692,600.908 -1785.05,600.908 -1785.05,565 -1751.214,565 
		-1751.214,577.775 -1771.758,577.775 -1771.758,588.133 -1751.214,588.133 -1751.214,600.908 -1761.4,600.908 -1761.4,613.51 
		-1743.619,613.51 -1743.619,626.285 -1792.646,626.285 -1792.646,613.51 	"/>
</g>
<g id="_x3147_">
	<path style="fill:#FFFFFF;" d="M-1768.305,636.469c10.185,0,18.299,8.114,18.299,17.954c0,9.84-8.114,17.954-18.299,17.954
		c-9.84,0-17.954-8.114-17.954-17.954C-1786.259,644.583-1778.145,636.469-1768.305,636.469z M-1768.132,659.43
		c2.589,0,4.833-2.072,4.833-5.007c0-2.935-2.244-5.179-4.833-5.179c-2.763,0-4.834,2.244-4.834,5.179
		C-1772.966,657.358-1770.895,659.43-1768.132,659.43z"/>
</g>
<g id="_x3134_">
	<polygon style="fill:#FFFFFF;" points="-1724.453,635.435 -1724.453,599.527 -1711.16,599.527 -1711.16,622.66 -1690.617,622.66 
		-1690.617,635.435 	"/>
</g>
<g id="_x3153_">
	<polygon style="fill:#FFFFFF;" points="-1688.546,599.527 -1668.175,599.527 -1668.175,576.394 -1654.882,576.394 
		-1654.882,635.435 -1668.175,635.435 -1668.175,612.302 -1688.546,612.302 	"/>
</g>
<g id="_x3163__1_">
	<path style="fill:#FFFFFF;" d="M-1645.734,635.435v-59.04h13.293v59.04H-1645.734z"/>
</g>
<g id="_x3145_">
	<polygon style="fill:#FFFFFF;" points="-1564.071,604.706 -1541.629,625.077 -1549.916,634.225 -1564.071,621.452 
		-1578.054,634.225 -1586.512,624.903 	"/>
</g>
<g id="_x314F_">
	<path style="fill:#FFFFFF;" d="M-1527.992,635.435v-59.04h13.293v23.133h17.782v12.775h-17.782v23.133H-1527.992z"/>
</g>
<g id="_x3139__1_">
	<polygon style="fill:#FFFFFF;" points="-1448.92,575.014 -1448.92,611.612 -1469.462,611.612 -1469.462,622.66 -1448.92,622.66 
		-1448.92,635.435 -1482.755,635.435 -1482.755,598.837 -1462.213,598.837 -1462.213,587.789 -1482.755,587.789 -1482.755,575.014 	
		"/>
</g>
<g id="Layer_15">
	<polygon style="fill:#FFFFFF;" points="-1431.312,635.435 -1431.312,576.394 -1418.019,576.394 -1418.019,599.527 
		-1400.237,599.527 -1400.237,612.302 -1418.019,612.302 -1418.019,635.435 	"/>
</g>
<g id="Layer_16">
	<path style="fill:#FFFFFF;" d="M-1415.257,646.309c10.184,0,18.298,8.114,18.298,17.954s-8.114,17.954-18.298,17.954
		c-9.84,0-17.954-8.114-17.954-17.954S-1425.097,646.309-1415.257,646.309z M-1415.084,669.27c2.59,0,4.833-2.072,4.833-5.007
		s-2.243-5.179-4.833-5.179c-2.763,0-4.833,2.244-4.833,5.179S-1417.847,669.27-1415.084,669.27z"/>
</g>
<g id="Layer_17">
	<path style="fill:#FFFFFF;" d="M-1365.187,575.014v23.305h-7.596v-23.305h-13.293v60.421h34.181v-60.421H-1365.187z
		 M-1365.187,622.832h-7.596v-12.085h7.596V622.832z"/>
</g>
<g id="Layer_18">
	<polygon style="fill:#FFFFFF;" points="-1334.632,635.435 -1334.632,576.394 -1321.339,576.394 -1321.339,599.527 
		-1303.558,599.527 -1303.558,612.302 -1321.339,612.302 -1321.339,635.435 	"/>
</g>
<g id="Layer_19">
	<path style="fill:#FFFFFF;" d="M-1318.577,646.309c10.184,0,18.298,8.114,18.298,17.954s-8.114,17.954-18.298,17.954
		c-9.84,0-17.954-8.114-17.954-17.954S-1328.417,646.309-1318.577,646.309z M-1318.405,669.27c2.59,0,4.833-2.072,4.833-5.007
		s-2.243-5.179-4.833-5.179c-2.763,0-4.833,2.244-4.833,5.179S-1321.167,669.27-1318.405,669.27z"/>
	<g>
		<path style="fill:#FFFFFF;" d="M40.005,642.157c10.045,0,18.047,8.002,18.047,17.706c0,9.704-8.002,17.704-18.047,17.704
			c-9.704,0-17.706-8-17.706-17.704C22.299,650.159,30.301,642.157,40.005,642.157z M40.176,664.799
			c2.554,0,4.766-2.042,4.766-4.936s-2.213-5.108-4.766-5.108c-2.724,0-4.767,2.214-4.767,5.108S37.452,664.799,40.176,664.799z"/>
	</g>
	<polygon style="fill:#FFFFFF;" points="46.816,702.595 46.816,722.004 33.706,722.004 33.706,702.595 16,702.595 16,689.997 
		64.351,689.997 64.351,702.595 	"/>
	<polygon style="fill:#FFFFFF;" points="116.622,617.471 116.622,653.564 96.362,653.564 96.362,664.46 116.622,664.46 
		116.622,677.059 83.253,677.059 83.253,640.966 103.513,640.966 103.513,630.07 83.253,630.07 83.253,617.471 	"/>
	<path style="fill:#FFFFFF;" d="M133.987,677.059v-61.185h13.109v61.185H133.987z"/>
	<polygon style="fill:#FFFFFF;" points="180.129,655.436 180.129,643.008 169.915,643.008 169.915,607.595 203.283,607.595 
		203.283,620.194 183.023,620.194 183.023,630.409 203.283,630.409 203.283,643.008 193.239,643.008 193.239,655.436 
		210.774,655.436 210.774,668.035 162.423,668.035 162.423,655.436 	"/>
	<path style="fill:#FFFFFF;" d="M186.428,678.079c10.045,0,18.047,8.002,18.047,17.706c0,9.704-8.002,17.706-18.047,17.706
		c-9.704,0-17.706-8.002-17.706-17.706C168.722,686.081,176.724,678.079,186.428,678.079z M186.599,700.723
		c2.554,0,4.766-2.044,4.766-4.938s-2.213-5.108-4.766-5.108c-2.724,0-4.767,2.214-4.767,5.108S183.875,700.723,186.599,700.723z"/>
	<polygon style="fill:#FFFFFF;" points="229.675,677.059 229.675,641.646 242.785,641.646 242.785,664.46 263.045,664.46 
		263.045,677.059 	"/>
	<polygon style="fill:#FFFFFF;" points="265.088,641.646 285.177,641.646 285.177,618.832 298.287,618.832 298.287,677.059 
		285.177,677.059 285.177,654.245 265.088,654.245 	"/>
	<path style="fill:#FFFFFF;" d="M307.31,677.059v-58.226h13.109v58.226H307.31z"/>
	<polygon style="fill:#FFFFFF;" points="387.846,646.754 409.979,666.843 401.805,675.865 387.846,663.268 374.055,675.865 
		365.714,666.672 	"/>
	<path style="fill:#FFFFFF;" d="M423.428,677.059v-58.226h13.109v22.814h17.536v12.599h-17.536v22.814H423.428z"/>
	<polygon style="fill:#FFFFFF;" points="501.409,617.471 501.409,653.564 481.15,653.564 481.15,664.46 501.409,664.46 
		501.409,677.059 468.04,677.059 468.04,640.966 488.3,640.966 488.3,630.07 468.04,630.07 468.04,617.471 	"/>
	<polygon style="fill:#FFFFFF;" points="518.774,677.059 518.774,618.832 531.884,618.832 531.884,641.646 549.42,641.646 
		549.42,654.245 531.884,654.245 531.884,677.059 	"/>
	<path style="fill:#FFFFFF;" d="M534.608,687.783c10.044,0,18.046,8.002,18.046,17.706c0,9.704-8.002,17.706-18.046,17.706
		c-9.704,0-17.706-8.002-17.706-17.706C516.902,695.785,524.904,687.783,534.608,687.783z M534.778,710.427
		c2.555,0,4.766-2.044,4.766-4.938s-2.212-5.108-4.766-5.108c-2.724,0-4.766,2.214-4.766,5.108S532.053,710.427,534.778,710.427z"/>
	<path style="fill:#FFFFFF;" d="M583.987,617.471v22.984h-7.491v-22.984h-13.11v59.588h33.71v-59.588H583.987z M583.987,664.63
		h-7.491v-11.918h7.491V664.63z"/>
	<polygon style="fill:#FFFFFF;" points="614.12,677.059 614.12,618.832 627.23,618.832 627.23,641.646 644.766,641.646 
		644.766,654.245 627.23,654.245 627.23,677.059 	"/>
	<path style="fill:#FFFFFF;" d="M629.954,687.783c10.044,0,18.046,8.002,18.046,17.706c0,9.704-8.002,17.706-18.046,17.706
		c-9.704,0-17.706-8.002-17.706-17.706C612.248,695.785,620.25,687.783,629.954,687.783z M630.124,710.427
		c2.555,0,4.766-2.044,4.766-4.938s-2.212-5.108-4.766-5.108c-2.724,0-4.766,2.214-4.766,5.108S627.4,710.427,630.124,710.427z"/>
</g>
</svg>
