<?xml version="1.0" encoding="iso-8859-1"?>
<!-- Generator: Adobe Illustrator 25.0.1, SVG Export Plug-In . SVG Version: 6.00 Build 0)  -->
<svg version="1.1" id="&#xB808;&#xC774;&#xC5B4;_1" xmlns="http://www.w3.org/2000/svg" xmlns:xlink="http://www.w3.org/1999/xlink"
	 x="0px" y="0px" viewBox="0 0 180 152" style="enable-background:new 0 0 180 152;" xml:space="preserve">
<path style="fill:#FF6200;stroke:#FFFFFF;stroke-width:5;stroke-miterlimit:10;" d="M76.073,4.895
	c33.129,0,60.826,24.201,67.693,56.553c2.66-0.691,5.533-1.068,8.531-1.068c13.659,0,24.732,7.827,24.732,17.481
	c0,9.655-11.073,17.481-24.732,17.481c-3.12,0-6.102-0.412-8.85-1.157c-7.369,31.631-34.735,55.121-67.374,55.121
	c-38.291,0-69.332-32.328-69.332-72.206S37.782,4.895,76.073,4.895z"/>
<ellipse style="fill:#FFFFFF;" cx="62.669" cy="68.753" rx="5.426" ry="10.017"/>
<ellipse style="fill:#FFFFFF;" cx="27.192" cy="70.005" rx="5.008" ry="11.269"/>
<polyline style="fill:#FFFFFF;" points="43.47,75.014 40.131,98.386 50.148,102.56 "/>
<g>
	<path style="fill:#FFFFFF;" d="M62.742,99.372c2.494-0.622,5.164-0.133,7.587,0.732c2.436,0.906,4.646,2.343,6.578,4.038
		c1.97,1.672,3.533,3.726,4.918,5.839c0.66,1.08,1.21,2.226,1.774,3.343c0.455,1.183,0.912,2.353,1.239,3.572
		c-0.914-0.9-1.697-1.849-2.484-2.784c-0.829-0.904-1.627-1.814-2.416-2.715c-1.652-1.736-3.233-3.494-5.016-5.006
		c-1.753-1.54-3.589-2.969-5.599-4.162C67.309,101.044,65.176,100.01,62.742,99.372z"/>
</g>
<path style="fill:#FFFFFF;" d="M98.492,47.682l8.762,26.286c0,0,37.438-7.169,39.031-17.524s-8.762-26.286-8.762-26.286
	S100.085,31.751,98.492,47.682z"/>
<g>
	<path style="fill:#FFFFFF;" d="M29.262,43.354c1.583-2.024,3.99-3.281,6.432-4.089c2.479-0.784,5.105-1.01,7.67-0.861
		c2.582,0.106,5.077,0.765,7.469,1.579c1.185,0.446,2.323,1.011,3.455,1.545c1.086,0.654,2.166,1.295,3.174,2.055
		c-1.274-0.148-2.476-0.414-3.671-0.668c-1.209-0.203-2.399-0.43-3.574-0.655c-2.37-0.353-4.698-0.767-7.034-0.863
		c-2.329-0.136-4.656-0.134-6.975,0.162C33.891,41.863,31.573,42.359,29.262,43.354z"/>
</g>
<path style="fill:#FFFFFF;" d="M103.043,41.702c0,0-52.56-38.122-90.656,2.259c0,0-8.381-16.762,14.476-30.477
	c0,0,70.858-38.858,106.668,19.048L103.043,41.702z"/>
<polygon style="fill:none;stroke:#FFFFFF;stroke-width:3;stroke-miterlimit:10;" points="2.864,72.533 3.626,87.01 39.436,84.724 
	39.436,71.009 "/>
<polygon style="fill:none;stroke:#FFFFFF;stroke-width:3;stroke-miterlimit:10;" points="47.817,70.247 47.817,83.2 82.103,83.2 
	82.103,68.724 "/>
<line style="fill:none;stroke:#FFFFFF;stroke-width:3;stroke-miterlimit:10;" x1="39.436" y1="77.1" x2="47.817" y2="75.962"/>
<line style="fill:#EC5528;stroke:#FFFFFF;stroke-width:5;stroke-miterlimit:10;" x1="23.609" y1="122.997" x2="63.817" y2="113.677"/>
</svg>
