<?xml version="1.0" encoding="iso-8859-1"?>
<!-- Generator: Adobe Illustrator 25.0.1, SVG Export Plug-In . SVG Version: 6.00 Build 0)  -->
<svg version="1.1" id="&#xB808;&#xC774;&#xC5B4;_1" xmlns="http://www.w3.org/2000/svg" xmlns:xlink="http://www.w3.org/1999/xlink"
	 x="0px" y="0px" viewBox="0 0 219 191" style="enable-background:new 0 0 219 191;" xml:space="preserve">
<path style="fill:#FFFFFF;" d="M200.3,90.998c5.144-4.876,8.369-11.866,8.369-19.633c0-14.735-11.598-26.68-25.905-26.68
	c-1.755,0-3.468,0.182-5.125,0.525c0.358-1.95,0.554-3.96,0.554-6.017c0-17.769-13.986-32.173-31.239-32.173
	c-8.338,0-15.906,3.371-21.508,8.853c-5.521-9.085-15.319-15.131-26.492-15.131c-14.083,0-25.986,9.6-29.885,22.791
	c-4.097-2.033-8.692-3.173-13.544-3.173c-17.253,0-31.239,14.404-31.239,32.173c0,0.323,0.015,0.642,0.024,0.962
	C10.728,56.989,0.666,69.635,0.666,84.705c0,12.887,7.36,23.999,17.984,29.135c-4.977,4.926-8.08,11.846-8.08,19.517
	c0,14.952,11.769,27.072,26.286,27.072c1.033,0,2.05-0.068,3.052-0.187c-0.001,0.062-0.005,0.125-0.005,0.187
	c0,13.218,10.404,23.934,23.238,23.934s23.238-10.715,23.238-23.934c0-13.218-10.404-23.934-23.238-23.934
	c-0.061,0-0.121,0.004-0.182,0.005c0.116-1.032,0.182-2.079,0.182-3.143c0-9.702-4.958-18.207-12.404-22.987
	c7.534-5.874,12.404-15.183,12.404-25.665c0-0.323-0.015-0.642-0.024-0.962c10.639-2.738,19.116-11.092,22.29-21.828
	c4.097,2.033,8.692,3.173,13.544,3.173c8.338,0,15.906-3.371,21.508-8.853c5.521,9.085,15.319,15.131,26.492,15.131
	c3.484,0,6.832-0.596,9.961-1.681c-0.034,0.556-0.056,1.115-0.056,1.681c0,14.406,11.087,26.138,24.952,26.655
	c-3.47,3.919-5.587,9.132-5.587,14.854c0,12.179,9.586,22.052,21.411,22.052c11.825,0,21.411-9.873,21.411-22.052
	C219.047,101.625,210.867,92.35,200.3,90.998z"/>
<path style="fill:#FF6200;stroke:#FFFFFF;stroke-width:5;stroke-miterlimit:10;" d="M128.579,43.436
	c-33.129,0-60.826,24.201-67.693,56.553c-2.66-0.691-5.533-1.068-8.531-1.068c-13.659,0-24.732,7.827-24.732,17.481
	c0,9.655,11.073,17.481,24.732,17.481c3.12,0,6.102-0.412,8.85-1.157c7.369,31.631,34.735,55.121,67.374,55.121
	c38.291,0,69.332-32.328,69.332-72.205S166.87,43.436,128.579,43.436z"/>
<ellipse style="fill:#FFFFFF;" cx="141.983" cy="107.295" rx="5.426" ry="10.017"/>
<ellipse style="fill:#FFFFFF;" cx="177.46" cy="108.547" rx="5.008" ry="11.269"/>
<polyline style="fill:#FFFFFF;" points="161.182,113.555 164.521,136.928 154.504,141.102 "/>
<path style="fill:none;stroke:#FFFFFF;stroke-width:5;stroke-linecap:round;stroke-miterlimit:10;" d="M44.246,117.542
	c0,0,12.974-6.08,23.516,0"/>
<path style="fill:#FFFFFF;" d="M53.528,99.365c0,0,74.014,11.177,110.859-47.248l-9.509-15.157H92.811L53.528,99.365z"/>
<g>
	<path style="fill:#FFFFFF;" d="M141.91,137.914c-2.434,0.637-4.567,1.672-6.581,2.857c-2.01,1.193-3.846,2.622-5.599,4.162
		c-1.783,1.512-3.364,3.27-5.016,5.006c-0.788,0.901-1.587,1.811-2.416,2.715c-0.787,0.936-1.57,1.885-2.484,2.784
		c0.328-1.219,0.785-2.389,1.239-3.572c0.564-1.117,1.114-2.263,1.774-3.343c1.385-2.113,2.948-4.167,4.918-5.839
		c1.931-1.695,4.141-3.132,6.578-4.038C136.746,137.781,139.417,137.292,141.91,137.914z"/>
</g>
<path style="fill:#FF6200;stroke:#FFFFFF;stroke-width:5;stroke-miterlimit:10;" d="M136.577,163.057
	c0,0,27.039-23.066,38.663,5.991"/>
</svg>
