<?xml version="1.0" encoding="iso-8859-1"?>
<!-- Generator: Adobe Illustrator 25.0.1, SVG Export Plug-In . SVG Version: 6.00 Build 0)  -->
<svg version="1.1" id="&#xB808;&#xC774;&#xC5B4;_1" xmlns="http://www.w3.org/2000/svg" xmlns:xlink="http://www.w3.org/1999/xlink"
	 x="0px" y="0px" viewBox="0 0 241 166" style="enable-background:new 0 0 241 166;" xml:space="preserve">
<path style="fill:#FFFFFF;" d="M239.083,108.414L239.083,108.414l-8.771-39.956c0,0-5.89-17.322-21.138-33.878
	c-14.178-20.935-38.152-34.694-65.339-34.694c-19.605,0-37.537,7.157-51.332,18.998l-0.097,0.05c0,0-0.019,0.029-0.046,0.071
	c-8.771,7.565-15.856,17.029-20.621,27.753C60.306,60.73,45.012,77.35,28.14,90.107c-4.107,1.853-7.877,3.994-11.205,6.395
	c-10.166,7.333-16.34,16.992-16.34,27.575c0,22.933,28.995,41.524,64.763,41.524c19.254,0,36.537-5.393,48.399-13.945
	c9.269,3.828,19.426,5.945,30.078,5.945c21.235,0,40.507-8.396,54.685-22.046c3.997,8.643,11.279,14.427,19.601,14.427
	c12.624,0,22.857-13.304,22.857-29.715C240.98,116.053,240.3,112.046,239.083,108.414z"/>
<path style="fill:#FF6200;stroke:#FFFFFF;stroke-width:5;stroke-miterlimit:10;" d="M153.362,18.552
	c-33.129,0-60.826,24.201-67.693,56.553c-2.66-0.691-5.533-1.068-8.531-1.068c-13.659,0-24.732,7.827-24.732,17.481
	c0,9.655,11.073,17.481,24.732,17.481c3.12,0,6.102-0.412,8.85-1.157c7.369,31.631,34.735,55.121,67.374,55.121
	c38.291,0,69.332-32.328,69.332-72.205S191.653,18.552,153.362,18.552z"/>
<ellipse style="fill:#FFFFFF;" cx="166.766" cy="82.41" rx="5.426" ry="10.017"/>
<ellipse style="fill:#FFFFFF;" cx="202.242" cy="83.662" rx="5.008" ry="11.269"/>
<polyline style="fill:#FFFFFF;" points="185.965,88.671 189.304,112.044 179.287,116.217 "/>
<path style="fill:none;stroke:#FFFFFF;stroke-width:5;stroke-linecap:round;stroke-miterlimit:10;" d="M69.029,92.658
	c0,0,12.974-6.08,23.516,0"/>
<path style="fill:#FFFFFF;" d="M78.311,74.481c0,0,74.014,11.177,110.859-47.248l-9.509-15.157h-62.067L78.311,74.481z"/>
<g>
	<path style="fill:#FFFFFF;" d="M166.693,113.03c-2.434,0.637-4.567,1.672-6.581,2.857c-2.01,1.193-3.846,2.622-5.599,4.162
		c-1.783,1.512-3.364,3.27-5.016,5.006c-0.788,0.901-1.587,1.811-2.416,2.715c-0.787,0.936-1.57,1.885-2.484,2.784
		c0.328-1.219,0.785-2.389,1.239-3.572c0.564-1.117,1.114-2.263,1.774-3.343c1.385-2.113,2.948-4.167,4.918-5.839
		c1.931-1.695,4.141-3.132,6.578-4.038C161.529,112.896,164.199,112.407,166.693,113.03z"/>
</g>
<path style="fill:#FF6200;stroke:#FFFFFF;stroke-width:5;stroke-miterlimit:10;" d="M198.94,146.393c0,0-32.3-4.105-33.016-20.991"
	/>
</svg>
