<?xml version="1.0" encoding="iso-8859-1"?>
<!-- Generator: Adobe Illustrator 25.0.0, SVG Export Plug-In . SVG Version: 6.00 Build 0)  -->
<svg version="1.1" id="&#xB808;&#xC774;&#xC5B4;_1" xmlns="http://www.w3.org/2000/svg" xmlns:xlink="http://www.w3.org/1999/xlink"
	 x="0px" y="0px" viewBox="0 0 1280 640" style="enable-background:new 0 0 1280 640;" xml:space="preserve">
<g>
	<path style="fill:#FF6200;" d="M0-2h1280l0.006,369.942C1158.928,469.712,934.211,538.078,677,538.078
		c-331.343,0-605.763-113.453-677.164-265.619L0-2z"/>
</g>
<g>
	<g>
		<path style="fill:#FFFFFF;" d="M212.175,84l40.671,36.915l-15.019,16.578l-25.652-23.147l-25.34,23.147L171.507,120.6L212.175,84z
			"/>
	</g>
	<path style="fill:#FFFFFF;" d="M282.313,137.009c-18.332,0-33.194,14.861-33.194,33.194s14.861,33.194,33.194,33.194
		c18.332,0,33.194-14.861,33.194-33.194S300.646,137.009,282.313,137.009z M282.313,181.248c-6.1,0-11.045-4.945-11.045-11.045
		s4.945-11.045,11.045-11.045c6.1,0,11.045,4.945,11.045,11.045S288.413,181.248,282.313,181.248z"/>
</g>
</svg>
